<svg width="1440" height="1381" viewBox="0 0 1440 1381" fill="none" xmlns="http://www.w3.org/2000/svg">
<path d="M1655.77 1069.24C1633.18 978.694 1577.52 906.587 1485.61 848.783C1409.68 801.026 1306.76 762.427 1171 730.789C1056.92 704.209 931.01 684.873 809.239 666.186C666.134 644.212 518.137 621.499 392.216 587.146C164.883 525.144 -2.45883 517.228 -105.146 563.609C-194.271 603.852 -234.173 683.946 -223.709 801.673C-213.196 920.109 -153.871 1049.64 -105.96 1137.46C-49.7744 1240.44 23.2406 1345.1 89.3752 1417.43C153.432 1487.5 243.843 1575.23 375.564 1632.14C460.663 1668.91 561.898 1692.63 676.454 1702.62C726.24 1706.97 777.581 1708.69 830.151 1707.77C886.76 1706.78 944.772 1702.75 1003.77 1695.67C1108.54 1683.1 1207.46 1655.48 1297.74 1613.59C1383.12 1573.98 1456.98 1523.52 1517.24 1463.61C1637.88 1343.68 1688.38 1199.94 1655.77 1069.24ZM1512.66 1461.77C1452.77 1521.29 1379.38 1571.43 1294.56 1610.78C1204.95 1652.35 1106.79 1679.76 1002.82 1692.23C889.637 1705.81 780.102 1708.14 677.267 1699.17C563.55 1689.24 463.082 1665.71 378.662 1629.24C309.941 1599.54 215.49 1548.43 94.0947 1415.64C28.1269 1343.48 -44.7384 1239.05 -100.811 1136.27C-148.61 1048.66 -207.783 919.445 -218.271 801.416C-228.603 684.987 -189.502 605.929 -102.057 566.435C-61.567 548.156 -10.7519 538.488 50.1517 537.425C141.243 535.835 254.877 553.492 389.997 590.355C516.338 624.817 664.554 647.573 807.879 669.578C929.503 688.245 1055.25 707.56 1169.06 734.075C1305.97 765.971 1405.33 803.215 1481.76 851.289C1572.82 908.562 1627.98 980.051 1650.37 1069.85C1682.78 1199.7 1632.58 1342.55 1512.66 1461.77Z" fill="#F0F757"/>
<path d="M1429.22 879.152C1357.96 834.217 1261.46 798.026 1134.22 768.528C1027.95 743.855 910.725 726.11 797.373 708.937C739.391 700.158 679.457 691.076 622.077 681.23C605.244 678.341 588.957 675.443 573.673 672.609C508.499 660.529 453.113 648.162 404.298 634.787C145.815 564.106 -28.8025 567.956 -114.733 646.239C-160.813 688.368 -180.605 751.629 -173.593 834.271C-166.85 917.128 -132.369 1019.65 -73.9127 1130.75C-19.5977 1233.99 52.9393 1339.43 120.111 1412.8C180.122 1478.39 264.812 1560.54 388.097 1613.88C503.092 1663.66 650.607 1687.98 814.011 1685.12C866.563 1684.21 920.794 1680.47 976.086 1673.89C1072.87 1662.38 1164.35 1637.13 1248.01 1598.83C1327.23 1562.55 1396.11 1516.23 1452.78 1461.12C1569.67 1347.52 1619.05 1210.79 1588.26 1085.98C1567.23 1001.01 1515.21 933.354 1429.22 879.152ZM1448.21 1459.22C1391.94 1513.97 1323.52 1559.98 1244.86 1595.99C1161.87 1633.99 1071.13 1659.03 975.153 1670.44C869.292 1683.07 766.814 1685.17 670.596 1676.67C564.223 1667.29 470.224 1645.18 391.213 1610.97C326.929 1583.15 238.542 1535.28 124.849 1411C57.862 1337.81 -14.507 1232.61 -68.7274 1129.57C-127.033 1018.78 -161.398 916.58 -168.136 834.025C-175.098 752.195 -155.621 689.671 -110.276 648.205C-67.9376 609.626 -3.30614 589.59 83.0179 588.083C168.359 586.593 274.932 603.235 402.079 637.996C451.076 651.427 506.682 663.836 572.075 675.958C587.396 678.792 603.719 681.701 620.588 684.601C678.024 694.458 738.013 703.55 796.03 712.328C909.236 729.47 1026.29 747.194 1132.28 771.802C1258.78 801.127 1354.64 837.062 1425.35 881.647C1510.49 935.33 1562.01 1002.35 1582.85 1086.55C1613.44 1210.52 1564.37 1346.34 1448.21 1459.22Z" fill="#F0F757"/>
<path d="M1463.24 916.569C1391.98 871.633 1295.48 835.443 1168.24 805.945C1061.96 781.272 944.742 763.527 831.389 746.353C773.408 737.574 713.474 728.493 656.093 718.646C639.261 715.758 622.974 712.86 607.689 710.025C542.515 697.946 487.129 685.579 438.314 672.203C179.831 601.523 5.21384 605.372 -80.7166 683.656C-126.797 725.784 -146.589 789.046 -139.576 871.688C-132.833 954.545 -98.3528 1057.07 -39.8963 1168.16C14.4187 1271.41 86.9557 1376.84 154.128 1450.21C214.138 1515.81 298.828 1597.96 422.113 1651.3C537.109 1701.08 684.624 1725.39 848.028 1722.54C900.579 1721.62 954.811 1717.89 1010.1 1711.3C1106.88 1699.8 1198.36 1674.54 1282.02 1636.24C1361.24 1599.97 1430.13 1553.64 1486.8 1498.53C1603.69 1384.93 1653.07 1248.21 1622.28 1123.4C1601.25 1038.42 1549.23 970.771 1463.24 916.569ZM1482.23 1496.64C1425.96 1551.38 1357.54 1597.4 1278.88 1633.41C1195.89 1671.4 1105.15 1696.45 1009.17 1707.86C903.308 1720.48 800.831 1722.59 704.612 1714.09C598.24 1704.71 504.241 1682.59 425.229 1648.39C360.946 1620.57 272.558 1572.7 158.865 1448.41C91.8784 1375.23 19.5094 1270.03 -34.711 1166.99C-93.0166 1056.2 -127.382 953.996 -134.12 871.442C-141.082 789.612 -121.605 727.088 -76.2592 685.622C-33.9212 647.043 30.7102 627.006 117.034 625.5C202.376 624.01 308.948 640.652 436.095 675.413C485.093 688.843 540.698 701.253 606.091 713.375C621.412 716.209 637.736 719.118 654.605 722.017C712.04 731.874 772.029 740.967 830.047 749.745C943.253 766.886 1060.31 784.611 1166.29 809.219C1292.8 838.544 1388.66 874.479 1459.37 919.064C1544.51 972.746 1596.03 1039.77 1616.86 1123.97C1647.46 1247.93 1598.39 1383.76 1482.23 1496.64Z" fill="#F0F757"/>
<path d="M1372.8 909.51C1306.21 867.397 1216.12 833.626 1097.4 806.256C998.876 783.481 890.31 767.303 785.321 751.656C730.481 743.484 673.78 735.032 619.522 725.781C603.785 723.106 588.594 720.409 574.351 717.777C513.798 706.593 462.12 695.032 416.377 682.439C290.856 647.998 185.627 632.204 103.593 635.448C28.5067 638.431 -29.0443 657.415 -67.486 691.884C-110.564 730.813 -129.395 789.679 -123.461 866.858C-115.879 965.426 -69.0034 1072.12 -30.994 1144.28C19.7609 1240.66 87.738 1339.3 150.863 1408.14C206.827 1469.27 285.795 1545.82 400.627 1595.59C508.159 1642.24 646.092 1665.05 798.797 1662.37C847.327 1661.52 897.377 1658.11 948.401 1652.06C1038.75 1641.42 1124.16 1617.91 1202.26 1582.17C1276.3 1548.28 1340.73 1504.89 1393.72 1453.23C1502.84 1347.09 1549.12 1219.33 1520.69 1102.67C1501.22 1023.32 1452.84 960.134 1372.8 909.51ZM1389.17 1451.37C1336.54 1502.67 1272.6 1545.72 1199.12 1579.36C1121.71 1614.8 1037.04 1638.12 947.486 1648.65C896.735 1654.67 846.993 1658.07 798.718 1658.91C647.178 1661.55 510.323 1638.96 403.725 1592.71C343.879 1566.77 261.574 1522.14 155.564 1406.36C92.6247 1337.7 24.7974 1239.3 -25.8264 1143.14C-63.7231 1071.18 -110.466 964.808 -118.022 866.647C-123.888 790.268 -105.408 732.14 -63.0826 693.886C-25.6623 660.341 30.4959 641.857 103.817 638.94C107.619 638.792 111.458 638.679 115.352 638.611C194.798 637.224 295.221 653.032 414.14 685.637C460.084 698.285 511.962 709.9 572.753 721.127C587.033 723.77 602.279 726.465 618.034 729.152C672.365 738.413 729.121 746.876 783.997 755.059C888.84 770.686 997.242 786.842 1095.47 809.541C1213.46 836.739 1302.91 870.265 1368.93 912.017C1448.13 962.11 1496.02 1024.67 1515.3 1103.28C1543.53 1219.09 1497.55 1345.95 1389.17 1451.37Z" fill="#F0F757"/>
<path d="M1316.41 939.902C1254.51 900.622 1170.84 869.26 1060.62 844.006C969.809 823.117 869.843 808.497 773.162 794.354C721.518 786.8 668.123 778.986 617.024 770.343C602.438 767.88 588.324 765.385 575.085 762.956C519.098 752.656 471.148 741.902 428.495 730.091C312.153 698.068 214.695 683.218 138.84 685.936C69.152 688.43 15.65 705.799 -20.2177 737.563C-60.4412 773.19 -78.2931 827.66 -73.2897 899.49C-66.8964 991.504 -23.3897 1090.79 11.9646 1157.88C59.1229 1247.38 122.558 1339.21 181.654 1403.53C233.573 1460.2 306.818 1531.16 413.197 1577.37C513.267 1620.9 641.616 1642.17 783.621 1639.7C828.13 1638.92 874.018 1635.81 920.755 1630.31C1085.22 1611.19 1232.24 1545.53 1334.72 1445.42C1383.47 1397.96 1420.11 1343.69 1440.68 1288.49C1462.12 1230.96 1466.33 1174.08 1453.2 1119.44C1435.26 1045.66 1390.51 986.936 1316.41 939.902ZM1435.33 1287.74C1414.92 1342.54 1378.55 1396.42 1330.13 1443.53C1228.5 1542.82 1082.78 1607.93 919.822 1626.86C725.368 1649.73 546.536 1631.12 416.277 1574.46C360.868 1550.4 284.644 1509.01 186.337 1401.72C127.426 1337.59 64.1588 1245.99 17.1136 1156.71C-18.1461 1089.83 -61.5012 990.888 -67.8694 899.267C-72.8038 828.261 -55.303 774.529 -15.8325 739.566C18.9957 708.725 71.0864 691.846 139.029 689.417C214.046 686.714 310.666 701.497 426.24 733.301C469.112 745.178 517.263 755.975 573.469 766.318C586.745 768.769 600.895 771.263 615.536 773.725C666.726 782.379 720.176 790.203 771.856 797.768C868.373 811.891 968.175 826.49 1058.69 847.303C1168.16 872.373 1251.19 903.479 1312.52 942.409C1385.8 988.912 1430.04 1047.01 1447.77 1120.04C1460.78 1174.21 1456.6 1230.64 1435.33 1287.74Z" fill="#F0F757"/>
<path d="M1345.14 979.199C1283.24 939.919 1199.57 908.557 1089.35 883.303C998.54 862.414 898.574 847.794 801.893 833.651C750.249 826.097 696.853 818.284 645.755 809.64C631.169 807.177 617.055 804.682 603.816 802.254C547.829 791.953 499.879 781.199 457.226 769.388C340.884 737.365 243.426 722.516 167.571 725.233C97.8823 727.727 44.3803 745.096 8.51252 776.86C-31.7109 812.487 -49.5629 866.957 -44.5594 938.787C-38.1662 1030.8 5.34053 1130.09 40.6949 1197.17C87.8532 1286.68 151.288 1378.51 210.385 1442.83C262.303 1499.5 335.549 1570.46 441.927 1616.67C541.997 1660.19 670.347 1681.47 812.352 1678.99C856.861 1678.22 902.749 1675.1 949.486 1669.61C1113.95 1650.49 1260.97 1584.83 1363.45 1484.71C1412.2 1437.25 1448.84 1382.99 1469.41 1327.79C1490.85 1270.26 1495.06 1213.38 1481.93 1158.74C1463.99 1084.95 1419.24 1026.23 1345.14 979.199ZM1464.07 1327.03C1443.65 1381.84 1407.28 1435.71 1358.87 1482.83C1257.23 1582.12 1111.51 1647.23 948.553 1666.16C754.099 1689.02 575.267 1670.41 445.007 1613.76C389.599 1589.69 313.374 1548.31 215.067 1441.02C156.157 1376.89 92.8892 1285.29 45.8439 1196C10.5841 1129.13 -32.771 1030.18 -39.1391 938.565C-44.0736 867.558 -26.5728 813.826 12.8978 778.863C47.726 748.022 99.8168 731.143 167.759 728.714C242.777 726.011 339.396 740.794 454.97 772.598C497.843 784.475 545.994 795.272 602.2 805.615C615.476 808.066 629.626 810.56 644.267 813.023C695.456 821.676 748.907 829.501 800.587 837.065C897.104 851.188 996.906 865.788 1087.42 886.6C1196.89 911.67 1279.93 942.776 1341.25 981.706C1414.53 1028.21 1458.77 1086.31 1476.5 1159.34C1489.52 1213.51 1485.33 1269.94 1464.07 1327.03Z" fill="#F0F757"/>
<path d="M1260.01 970.282C1202.8 933.836 1125.53 904.871 1023.82 881.756C940.649 862.743 849.21 849.659 760.801 837.021C712.408 830.095 662.374 822.943 614.49 814.917C601.035 812.666 588.018 810.385 575.765 808.136C524.344 798.72 480.139 788.772 440.576 777.743C333.45 748.138 243.762 734.244 174.123 736.435C109.905 738.451 60.4159 754.193 27.0304 783.219C-10.3176 815.695 -27.2085 865.781 -23.157 932.087C-17.9521 1017.55 22.167 1109.42 54.8847 1171.44C98.4647 1254.07 157.358 1339.1 212.389 1398.9C260.261 1451.09 327.785 1516.48 425.71 1559.11C518.317 1599.51 637.085 1619.28 768.391 1616.99C808.896 1616.28 850.584 1613.47 893.054 1608.53C1045.01 1591.13 1180.88 1530.41 1275.64 1437.57C1320.58 1393.77 1354.46 1343.64 1373.55 1292.6C1393.48 1239.34 1397.55 1186.71 1385.62 1136.17C1369.29 1067.99 1328.18 1013.73 1260.01 970.282ZM1368.28 1291.84C1349.32 1342.49 1315.73 1392.23 1271.13 1435.7C1177.21 1527.7 1042.64 1587.87 892.193 1605.09C713.394 1625.92 548.836 1608.55 428.863 1556.22C377.893 1534.04 307.75 1495.89 217.127 1397.11C162.244 1337.48 103.537 1252.7 60.0702 1170.28C27.4474 1108.48 -12.5202 1016.94 -17.6997 931.899C-21.7006 866.405 -5.16065 817.068 31.4344 785.256C63.7801 757.142 111.858 741.889 174.33 739.916C243.15 737.751 331.999 751.554 438.356 780.941C478.121 792.036 522.563 802.026 574.203 811.485C586.493 813.745 599.547 816.025 613.038 818.287C661.013 826.323 711.103 833.486 759.532 840.422C847.795 853.052 939.07 866.104 1021.93 885.041C1122.89 907.983 1199.5 936.681 1256.14 972.766C1323.49 1015.67 1364.08 1069.31 1380.26 1136.74C1392.07 1186.84 1388.03 1239.01 1368.28 1291.84Z" fill="#F0F757"/>
<path d="M1203.64 1000.73C1151.12 967.108 1080.27 940.563 987.054 919.565C911.489 902.405 828.505 890.857 748.257 879.691C703.189 873.416 656.569 866.936 611.973 859.538C599.633 857.5 587.692 855.42 576.48 853.374C530.264 844.948 489.769 835.817 452.674 825.454C354.944 798.158 273.064 785.174 209.496 786.888C150.731 788.471 105.254 802.61 74.2968 828.934C39.8064 858.271 23.8763 903.961 26.9759 964.744C30.9919 1043.62 67.7237 1128.09 97.823 1185.05C137.843 1260.81 192.176 1339.05 243.16 1394.32C287.005 1442.06 348.789 1501.85 438.26 1540.9C523.404 1578.17 632.589 1596.43 753.196 1594.33C789.661 1593.69 827.205 1591.19 865.407 1586.79C1004.83 1571.1 1129.56 1515.34 1216.64 1429.79C1257.79 1389.64 1288.86 1343.64 1306.49 1296.77C1324.93 1247.78 1328.84 1199.4 1318.11 1152.98C1303.33 1090.38 1265.87 1040.58 1203.64 1000.73ZM1301.22 1296C1283.72 1342.49 1252.92 1388.1 1212.11 1427.92C1125.89 1512.64 1002.46 1567.84 864.564 1583.37C701.42 1602.16 551.154 1586.05 441.431 1538.03C394.898 1517.71 330.837 1482.81 247.916 1392.52C197.099 1337.43 142.934 1259.45 103.027 1183.89C73.0404 1127.15 36.4606 1043.03 32.47 964.578C29.421 904.608 44.9638 859.667 78.6831 830.995C109.013 805.204 151.865 791.912 209.684 790.369C272.506 788.668 353.493 801.564 450.473 828.651C487.787 839.069 528.501 848.254 574.955 856.723C586.204 858.78 598.18 860.859 610.575 862.907C655.281 870.315 701.937 876.806 747.061 883.092C827.144 894.238 909.946 905.766 985.2 922.849C1077.65 943.675 1147.84 969.953 1199.78 1003.2C1261.19 1042.52 1298.16 1091.7 1312.79 1153.54C1323.36 1199.53 1319.49 1247.46 1301.22 1296Z" fill="#F0F757"/>
<path d="M1147.38 1031.16C1099.55 1000.4 1035.08 976.265 950.255 957.374C882.203 942.057 807.618 932.012 735.46 922.307C693.789 916.705 650.676 910.907 609.44 904.159C598.25 902.333 587.387 900.467 577.18 898.612C536.169 891.186 498.359 882.625 464.775 873.176C293.307 824.914 181.046 825.399 121.566 874.66C89.9328 900.857 74.9817 942.152 77.1296 997.423C79.9383 1069.7 113.283 1146.76 140.764 1198.69C177.206 1267.61 226.979 1339.03 273.934 1389.76C313.733 1433.03 369.795 1487.24 450.813 1522.73C528.329 1556.8 628.131 1573.51 738.547 1571.58C770.792 1571.02 803.973 1568.86 837.744 1565.09C964.492 1550.92 1078.1 1500.11 1157.62 1422.02C1194.95 1385.37 1223.24 1343.49 1239.46 1300.91C1256.51 1256.11 1260.26 1211.99 1250.6 1169.8C1237.56 1112.78 1203.78 1067.44 1147.38 1031.16ZM1234.15 1300.13C1218.08 1342.33 1190.05 1383.83 1153.06 1420.14C1074.39 1497.38 962.087 1547.64 836.883 1561.65C803.366 1565.39 770.476 1567.53 738.468 1568.09C629.217 1570 530.51 1553.49 453.947 1519.84C411.834 1501.4 353.872 1469.74 278.635 1387.95C231.866 1337.41 182.242 1266.23 145.931 1197.52C96.3701 1103.85 84.1171 1036.93 82.5877 997.281C80.4726 942.846 95.0364 902.301 125.88 876.768C153.655 853.775 193.564 841.812 246.315 840.891C303.179 839.899 374.956 851.735 462.52 876.374C496.323 885.889 534.37 894.505 575.619 901.973C585.881 903.838 596.78 905.704 608.024 907.54C649.37 914.298 692.537 920.107 734.263 925.72C806.239 935.404 880.66 945.418 948.383 960.659C1032.44 979.377 1096.25 1003.25 1143.49 1033.63C1199.07 1069.37 1232.34 1114.09 1245.22 1170.35C1254.74 1212.1 1251.03 1255.76 1234.15 1300.13Z" fill="#F0F757"/>
<path d="M1091.01 1061.64C1047.99 1033.81 989.925 1012.06 913.491 995.147C852.918 981.744 786.713 973.19 722.68 964.912C684.406 959.97 644.836 954.853 606.961 948.755C596.867 947.142 587.1 945.478 577.933 943.826C541.47 937.273 507.479 929.539 476.93 920.862C396.552 898.025 332.202 887.255 280.21 887.942C231.676 888.557 195.294 899.18 168.888 920.338C139.7 943.728 126.111 979.622 127.319 1030.04C128.188 1066.28 138.7 1127.3 183.74 1212.28C216.604 1274.32 261.835 1338.94 304.743 1385.14C340.495 1423.93 390.835 1472.55 463.418 1504.47C533.453 1535.41 623.709 1550.6 723.499 1548.86C751.685 1548.37 780.667 1546.53 810.134 1543.3C924.334 1530.8 1026.79 1484.94 1098.66 1414.16C1132.17 1381.15 1157.69 1343.41 1172.44 1305C1188.02 1264.45 1191.6 1224.59 1183.13 1186.52C1171.67 1135.18 1141.55 1094.31 1091.01 1061.64ZM1167.13 1304.25C1152.52 1342.28 1127.27 1379.64 1094.07 1412.32C1023.07 1482.25 921.929 1527.56 809.292 1539.89C676.925 1554.37 555.207 1540.78 466.553 1501.6C428.877 1485.04 376.979 1456.63 309.444 1383.34C266.704 1337.32 221.658 1272.94 188.908 1211.12C144.074 1126.56 133.642 1065.91 132.777 1029.94C131.596 981.048 145.181 944.887 173.13 922.483C198.172 902.406 232.742 892.255 278.816 891.451C279.289 891.443 279.762 891.434 280.235 891.426C331.407 890.753 395.009 901.42 474.638 924.049C505.424 932.792 539.652 940.58 576.372 947.175C585.575 948.838 595.396 950.501 605.545 952.125C643.548 958.232 683.172 963.36 721.501 968.312C785.353 976.57 851.393 985.104 911.619 998.432C987.25 1015.17 1044.63 1036.64 1087.09 1064.09C1136.77 1096.23 1166.42 1136.47 1177.69 1187.09C1186.09 1224.73 1182.53 1264.15 1167.13 1304.25Z" fill="#F0F757"/>
<path d="M876.764 1032.93C823.558 1021.33 765.551 1014.24 709.442 1007.38C674.73 1003.15 638.85 998.756 604.499 993.351C595.556 991.951 586.866 990.5 578.705 989.039C546.733 983.349 516.58 976.453 489.102 968.559C351.935 929.129 265.243 928.331 216.228 966.028C189.934 986.267 177.271 1017.88 177.525 1062.69C177.711 1095.24 186.402 1149.98 226.734 1225.89C255.775 1280.6 296.465 1338.43 335.57 1380.57C367.534 1415.02 412.39 1458.16 476.006 1486.27C538.56 1514.09 619.288 1527.78 708.451 1526.22C732.58 1525.8 757.344 1524.27 782.507 1521.58C884.159 1510.77 975.492 1469.86 1039.67 1406.39C1069.38 1377.01 1092.11 1343.39 1105.4 1309.18C1119.49 1272.89 1122.95 1237.28 1115.64 1203.34C1097.43 1118.64 1021.51 1064.48 876.764 1032.93ZM1035.13 1404.54C971.805 1467.15 881.808 1507.5 781.719 1518.15C664.951 1530.57 557.508 1518.23 479.195 1483.41C446.214 1468.82 400.635 1443.77 340.307 1378.76C301.369 1336.81 260.866 1279.22 231.938 1224.73C191.832 1149.25 183.202 1094.91 183.003 1062.63C182.745 1018.68 194.984 987.804 220.435 968.231C267.6 931.937 352.241 933.061 486.81 971.746C514.525 979.718 544.935 986.667 577.162 992.411C585.378 993.882 594.122 995.344 603.12 996.743C637.617 1002.17 673.57 1006.56 708.337 1010.82C764.264 1017.65 822.088 1024.72 874.929 1036.24C1017.54 1067.33 1092.31 1120.6 1110.26 1203.87C1124.3 1269.11 1096.22 1344.13 1035.13 1404.54Z" fill="#F0F757"/>
<path d="M840.072 1070.73C794.122 1060.9 744.187 1055.26 695.893 1049.8C664.87 1046.29 632.789 1042.67 602.073 1037.97C594.244 1036.78 586.65 1035.53 579.511 1034.28C551.959 1029.42 525.661 1023.37 501.328 1016.27C382.446 981.582 306.919 980.136 263.64 1011.72C240.203 1028.82 228.485 1056.16 227.785 1095.33C227.059 1136.11 241.986 1187.31 269.8 1239.51C295.244 1287.31 331.373 1338.33 366.469 1375.99C396.166 1407.84 433.906 1443.68 488.683 1468.07C543.756 1492.77 614.957 1504.95 693.493 1503.58C713.545 1503.23 734.11 1502 754.969 1499.86C844.072 1490.73 924.262 1454.78 980.781 1398.6C1034.94 1344.78 1060.15 1278.07 1048.24 1220.14C1032.84 1145.27 966.703 1097.8 840.072 1070.73ZM976.198 1396.75C920.537 1452.07 841.685 1487.46 754.181 1496.42C733.54 1498.54 713.248 1499.76 693.414 1500.11C616.061 1501.46 545.974 1489.49 491.855 1465.22C437.885 1441.2 400.571 1405.73 371.17 1374.19C336.26 1336.72 300.298 1285.96 274.968 1238.36C247.342 1186.52 232.531 1135.72 233.246 1095.33C233.924 1057.04 245.2 1030.44 267.72 1014C293.781 994.976 346.125 974.841 498.981 1019.46C523.588 1026.63 550.161 1032.75 577.968 1037.65C585.162 1038.92 592.81 1040.18 600.713 1041.37C631.593 1046.1 663.747 1049.73 694.842 1053.25C742.936 1058.68 792.689 1064.31 838.255 1074.04C962.712 1100.65 1027.72 1147.24 1042.82 1220.66C1054.57 1277.79 1029.68 1343.61 976.198 1396.75Z" fill="#F0F757"/>
<path d="M922.217 1152.98C893.394 1133.71 854.534 1119.19 803.419 1108.54C764.599 1100.46 722.588 1096.23 681.944 1092.14C654.739 1089.4 626.622 1086.57 599.686 1082.61C593.008 1081.64 586.509 1080.6 580.375 1079.53C557.207 1075.52 534.745 1070.31 513.594 1064.01C411.551 1033.63 349.101 1031.61 311.109 1057.44C290.53 1071.43 279.739 1094.51 278.085 1128C276.338 1163.51 288.709 1207.96 312.887 1253.17C334.734 1294.08 366.322 1338.29 397.389 1371.45C421.241 1396.89 454.598 1428.79 501.381 1449.91C549.192 1471.48 610.92 1482.16 678.738 1480.98C694.678 1480.7 710.935 1479.77 727.452 1478.17C803.99 1470.74 873.053 1439.72 921.928 1390.85C968.459 1344.31 990.499 1286.79 980.892 1236.98C974.209 1202.37 955.017 1174.9 922.217 1152.98ZM917.326 1388.99C893.641 1412.69 865.456 1432.08 833.565 1446.6C800.789 1461.54 764.823 1471 726.7 1474.71C641.35 1482.99 562.473 1473.16 504.571 1447.04C480.427 1436.15 446.956 1417.5 402.071 1369.62C371.171 1336.66 339.77 1292.69 318.036 1251.99C294.064 1207.16 281.81 1163.13 283.528 1128.04C285.125 1095.44 295.438 1073.11 315.045 1059.79C330.785 1049.08 351.165 1043.49 377.404 1043.03C411.341 1042.44 455.056 1050.45 511.21 1067.16C532.636 1073.54 555.39 1078.83 578.85 1082.89C585.058 1083.97 591.629 1085.02 598.381 1086C625.498 1089.99 653.725 1092.83 681.003 1095.58C721.428 1099.65 763.22 1103.87 801.639 1111.86C907.961 1133.99 963.173 1173.9 975.44 1237.45C984.923 1286.47 963.178 1343.12 917.326 1388.99Z" fill="#F0F757"/>
<path d="M766.837 1146.38C734.981 1139.99 700.711 1137.14 667.572 1134.39C644.367 1132.46 620.378 1130.46 597.37 1127.26C591.823 1126.5 586.421 1125.68 581.291 1124.8C562.396 1121.61 543.771 1117.22 525.947 1111.76C441.128 1085.8 391.1 1083.21 358.684 1103.14C340.927 1114.05 331.045 1132.86 328.472 1160.66C325.685 1190.82 335.481 1228.52 356.063 1266.83C374.313 1300.87 401.359 1338.28 428.397 1366.92C449.427 1389.19 476.076 1414.31 514.15 1431.74C554.535 1450.22 606.735 1459.43 663.872 1458.43C675.718 1458.22 687.775 1457.58 699.987 1456.49C764.904 1450.68 821.306 1425.31 863.125 1383.09C902.011 1343.84 920.88 1295.52 913.582 1253.84C904.041 1199.41 856.047 1164.27 766.837 1146.38ZM858.524 1381.25C817.599 1422.55 762.552 1447.37 699.308 1453.02C629.594 1459.26 564.991 1450.69 517.358 1428.89C480.056 1411.82 453.813 1387.05 433.061 1365.08C406.208 1336.64 379.349 1299.48 361.212 1265.66C340.856 1227.77 331.159 1190.54 333.917 1160.82C336.397 1133.96 345.729 1115.91 362.441 1105.64C392.912 1086.91 441.086 1089.68 523.527 1114.92C541.662 1120.47 560.615 1124.93 579.821 1128.18C585.024 1129.07 590.517 1129.91 596.137 1130.68C619.364 1133.89 643.463 1135.91 666.777 1137.85C699.697 1140.59 733.73 1143.43 765.129 1149.72C806.958 1158.11 838.672 1169.94 862.067 1185.9C888.134 1203.67 903.213 1226.04 908.166 1254.28C915.323 1295.19 896.766 1342.65 858.524 1381.25Z" fill="#F0F757"/>
<path d="M730.349 1184.28C705.275 1179.54 678.51 1178.02 652.637 1176.55C633.634 1175.48 613.993 1174.36 595.13 1171.98C590.697 1171.43 586.391 1170.81 582.302 1170.14C567.388 1167.71 553.022 1164.26 538.397 1159.59C470.178 1137.81 433.175 1134.81 406.409 1148.89C391.385 1156.79 382.41 1171.34 378.936 1193.38C375.036 1218.12 382.275 1249.09 399.297 1280.57C413.969 1307.77 436.473 1338.38 459.464 1362.46C476.188 1379.97 497.302 1399.76 526.977 1413.64C559.937 1429.06 602.629 1436.8 649.03 1435.99C656.781 1435.86 664.638 1435.49 672.581 1434.86C724.75 1430.8 770.333 1410.24 804.418 1375.39C835.677 1343.43 851.358 1304.31 846.367 1270.75C839.726 1226.06 801.773 1197.78 730.349 1184.28ZM799.818 1373.58C766.663 1407.48 722.472 1427.47 672.03 1431.4C617.97 1435.61 567.641 1428.28 530.259 1410.81C501.336 1397.28 480.61 1377.83 464.146 1360.6C441.341 1336.72 419.023 1306.36 404.464 1279.38C387.686 1248.36 380.547 1217.91 384.365 1193.65C387.674 1172.6 396.007 1158.83 409.841 1151.55C434.605 1138.51 469.953 1141.65 535.884 1162.7C550.857 1167.48 565.553 1171.01 580.85 1173.51C585.03 1174.2 589.446 1174.83 593.97 1175.39C613.106 1177.81 632.893 1178.93 652.043 1180.03C677.66 1181.48 704.134 1182.98 728.696 1187.62C797.801 1200.69 834.5 1228 840.932 1271.13C845.837 1303.95 830.469 1342.26 799.818 1373.58Z" fill="#F0F757"/>
<path d="M693.971 1222.29C675.368 1219.12 655.797 1218.88 636.863 1218.65C622.371 1218.48 607.406 1218.3 593.018 1216.81C589.59 1216.45 586.47 1216.05 583.459 1215.58C572.6 1213.92 561.997 1211.28 551.046 1207.53C504.095 1191.44 477.67 1185.4 454.442 1194.68C442.024 1199.64 433.885 1209.93 429.599 1226.13C424.511 1245.35 429.175 1269.6 442.732 1294.4C458.79 1323.85 481.65 1348.75 490.732 1358.09C503.132 1370.85 518.691 1385.28 539.986 1395.62C565.577 1408.04 598.687 1414.37 634.207 1413.75C637.883 1413.69 641.593 1413.55 645.339 1413.34C684.762 1411.07 719.526 1395.32 745.911 1367.8C764.163 1348.76 782.516 1317.74 779.354 1287.79C775.695 1253.37 746.97 1231.33 693.971 1222.29ZM741.257 1366.03C715.48 1392.94 683.064 1407.69 644.933 1409.88C606.565 1412.09 570.493 1406.04 543.323 1392.84C522.726 1382.84 507.517 1368.72 495.377 1356.22C486.388 1346.98 463.769 1322.34 447.88 1293.21C434.606 1268.94 430.025 1245.31 434.96 1226.66C438.922 1211.73 446.415 1201.97 457.261 1197.64C463.497 1195.15 470.009 1193.89 477.288 1193.76C494.52 1193.46 516.032 1199.53 548.388 1210.62C559.759 1214.51 570.765 1217.24 582.08 1218.97C585.201 1219.45 588.467 1219.87 592.041 1220.25C606.811 1221.79 621.977 1221.97 636.651 1222.14C655.257 1222.36 674.5 1222.6 692.465 1225.66C743.017 1234.28 770.395 1255.29 773.88 1288.1C776.991 1317.22 759.062 1347.45 741.257 1366.03Z" fill="#F0F757"/>
<path d="M657.744 1260.58C645.356 1258.9 632.687 1259.92 620.436 1260.91C610.712 1261.7 600.642 1262.51 591.003 1261.92C588.78 1261.78 586.756 1261.58 584.767 1261.32C577.67 1260.36 571.05 1258.62 563.957 1255.8C559.558 1254.06 555.58 1252.43 551.73 1250.85C532.149 1242.8 519.224 1237.49 503.009 1240.75C493.232 1242.71 485.246 1249.23 480.503 1259.09C472.214 1276.41 479.119 1295.54 486.354 1308.54C497.01 1327.74 513.388 1345.29 522.205 1354.05C530.226 1362 540.158 1371.06 553.146 1377.9C570.415 1386.98 592.268 1391.77 618.067 1392.13C619.068 1392.15 620.051 1392.14 621.052 1392.12C646.272 1391.68 668.639 1381.05 687.592 1360.5C699.954 1347.1 712.974 1325.53 712.51 1305.18C711.957 1280.78 693.012 1265.35 657.744 1260.58ZM682.921 1358.77C664.324 1378.94 642.621 1388.98 618.297 1388.64C593.736 1388.29 572.998 1383.76 556.685 1375.19C544.266 1368.66 534.63 1359.87 526.85 1352.13C518.162 1343.5 502.025 1326.2 491.538 1307.32C484.567 1294.81 477.912 1276.45 485.762 1260.06C489.942 1251.35 496.633 1245.67 504.595 1244.06C518.381 1241.29 529.803 1246 548.759 1253.78C552.628 1255.37 556.624 1257.01 561.06 1258.77C568.703 1261.79 575.853 1263.68 583.589 1264.72C585.76 1265.02 587.984 1265.23 590.426 1265.38C600.667 1266.01 611.045 1265.17 621.06 1264.36C633.402 1263.37 645.071 1262.42 656.548 1263.98C689.553 1268.44 706.542 1282.35 707.088 1305.29C707.521 1324.91 694.889 1345.78 682.921 1358.77Z" fill="#F0F757"/>
<path d="M621.388 1299.84C614.63 1299.57 608.41 1301.93 602.407 1304.22C597.633 1306.03 593.131 1307.75 588.767 1308.03C587.84 1308.09 586.966 1308.09 586.109 1308.02C578.107 1307.36 574.745 1303.5 570.863 1299.04C566.963 1294.58 562.561 1289.51 552.576 1287.93C545.093 1286.75 536.59 1288.71 531.928 1292.72C523.194 1300.22 522.594 1310.64 530.157 1323.68C534.961 1331.95 542.949 1341.16 553.896 1351.03C567.766 1363.52 579.458 1370.13 590.7 1371.85C592.817 1372.18 594.913 1372.31 596.969 1372.28C608.779 1372.07 619.685 1365.99 629.489 1354.13C631.717 1351.43 642.974 1337.28 645.813 1323.72C647.51 1315.59 645.727 1309.41 640.523 1305.33C636.243 1302.03 629.821 1300.18 621.388 1299.84ZM640.382 1323.33C638.283 1333.39 630.592 1345.36 624.656 1352.56C614.353 1365.04 603.669 1370.26 592.043 1368.47C582.279 1366.98 571.265 1360.61 558.375 1349C547.686 1339.37 539.922 1330.44 535.286 1322.44C528.399 1310.57 528.746 1301.26 536.296 1294.78C538.896 1292.55 543.332 1291.17 547.681 1291.09C548.864 1291.07 550.048 1291.15 551.18 1291.32C558.9 1292.55 562.392 1296.55 566.088 1300.78C570.1 1305.38 574.651 1310.61 585.333 1311.48C586.609 1311.59 587.919 1311.6 589.265 1311.51C594.828 1311.13 600.072 1309.13 605.153 1307.21C610.686 1305.1 615.912 1303.12 620.975 1303.32C627.861 1303.6 633 1305.03 636.267 1307.58C640.492 1310.88 641.877 1316.19 640.382 1323.33Z" fill="#F0F757"/>
</svg>
