<svg width="2717" height="2457" viewBox="0 0 2717 2457" fill="none" xmlns="http://www.w3.org/2000/svg">
<path d="M594.471 1527.26C636.959 1591.95 702.182 1632.93 793.861 1652.56C869.605 1668.77 965.43 1670.26 1086.79 1657.1C1188.78 1646.04 1298.73 1625.98 1405.05 1606.58C1530.01 1583.78 1659.24 1560.2 1773.12 1551.92C1978.71 1536.96 2120.19 1496.37 2193.61 1431.27C2257.33 1374.78 2269.63 1300.81 2230.14 1211.41C2190.42 1121.47 2107.13 1036.48 2044.26 981.013C1970.53 915.967 1882.34 854.311 1808.34 816.085C1736.65 779.052 1638.4 735.543 1513.79 727.753C1433.29 722.716 1342.75 732.433 1244.71 756.633C1202.1 767.15 1158.88 780.163 1115.32 795.587C1068.42 812.195 1021.15 831.583 973.852 853.637C889.86 892.8 814.674 942.124 750.418 1000.23C689.643 1055.17 641.309 1115.4 606.771 1179.24C537.625 1307.04 533.139 1433.88 594.471 1527.26ZM611.072 1179.4C645.396 1115.97 693.424 1056.12 753.803 1001.54C817.584 943.874 892.191 894.928 975.543 856.063C1066.28 813.759 1156.92 781.295 1244.93 759.568C1342.26 735.55 1432.11 725.904 1511.97 730.893C1576.98 734.96 1669.03 748.629 1804.87 818.808C1878.69 856.947 1966.7 918.465 2040.28 983.389C2103 1038.73 2186.08 1123.51 2225.67 1213.14C2264.72 1301.55 2252.82 1374.49 2190.29 1429.92C2161.34 1455.58 2121.54 1477.37 2071.08 1495.24C1995.61 1521.97 1896.33 1539.9 1774.13 1548.79C1659.87 1557.1 1530.45 1580.71 1405.3 1603.54C1299.1 1622.92 1189.3 1642.94 1087.56 1653.98C965.164 1667.26 872.654 1665.84 796.414 1649.52C705.579 1630.07 640.936 1589.44 598.807 1525.28C537.86 1432.51 542.333 1306.44 611.072 1179.4Z" fill="#37C1FF"/>
<path d="M832.894 1612.97C904.008 1628.28 993.861 1629.67 1107.57 1617.21C1202.55 1606.84 1304.84 1587.97 1403.76 1569.73C1454.36 1560.4 1506.66 1550.76 1557.04 1542.43C1571.82 1539.99 1586.14 1537.71 1599.62 1535.65C1657.07 1526.9 1706.44 1521.11 1750.6 1517.94C1984.41 1501.07 2128.87 1449.22 2179.99 1363.79C2207.36 1317.86 2207.31 1262.72 2179.87 1199.87C2152.59 1136.77 2097.06 1066.02 2019.32 995.243C1947.08 929.466 1859.08 867.068 1783.94 828.317C1716.8 793.659 1624.77 752.925 1508.12 745.575C1399.31 738.699 1270.07 760.891 1134.69 808.832C1091.15 824.249 1046.95 842.346 1002.61 862.976C924.992 899.067 855.388 944.459 795.707 997.896C739.196 1048.5 693.92 1104.1 661.123 1163.17C593.442 1284.95 588.052 1405.99 646.333 1495.25C686.07 1556.01 747.092 1594.51 832.894 1612.97ZM665.422 1163.38C697.986 1104.7 742.953 1049.48 799.067 999.242C858.271 946.229 927.312 901.209 1004.29 865.417C1089.17 825.906 1173.99 795.595 1256.37 775.345C1347.44 752.954 1431.53 744.003 1506.29 748.73C1567.12 752.568 1653.26 765.384 1780.47 831.055C1855.41 869.715 1943.2 931.971 2015.3 997.611C2092.84 1068.19 2148.19 1138.73 2175.38 1201.59C2202.58 1263.81 2202.7 1318.29 2175.76 1363.49C2150.58 1405.59 2101.98 1439.38 2030.46 1464.71C1959.75 1489.75 1866.62 1506.5 1751.61 1514.8C1707.28 1517.98 1657.72 1523.8 1600.07 1532.58C1586.57 1534.64 1572.21 1536.93 1557.4 1539.37C1506.97 1547.71 1454.62 1557.35 1403.99 1566.7C1305.21 1584.92 1203.06 1603.76 1108.33 1614.1C995.28 1626.49 906.028 1625.12 835.466 1609.93C750.505 1591.65 690.066 1553.49 650.694 1493.29C592.798 1404.63 598.164 1284.39 665.422 1163.38Z" fill="#37C1FF"/>
<path d="M794.774 1593.14C865.888 1608.45 955.741 1609.84 1069.45 1597.39C1164.43 1587.01 1266.72 1568.14 1365.64 1549.9C1416.24 1540.57 1468.54 1530.93 1518.92 1522.6C1533.7 1520.16 1548.02 1517.88 1561.5 1515.82C1618.95 1507.07 1668.32 1501.28 1712.48 1498.11C1946.29 1481.25 2090.75 1429.39 2141.87 1343.96C2169.24 1298.03 2169.19 1242.89 2141.75 1180.04C2114.47 1116.94 2058.94 1046.19 1981.2 975.413C1908.96 909.637 1820.96 847.239 1745.82 808.488C1678.68 773.83 1586.65 733.096 1470 725.746C1361.19 718.87 1231.95 741.062 1096.57 789.003C1053.03 804.42 1008.83 822.517 964.488 843.147C886.873 879.238 817.268 924.63 757.587 978.067C701.076 1028.67 655.8 1084.27 623.003 1143.34C555.322 1265.12 549.932 1386.16 608.213 1475.42C647.951 1536.18 708.972 1574.68 794.774 1593.14ZM627.302 1143.55C659.866 1084.87 704.833 1029.65 760.947 979.413C820.151 926.4 889.192 881.38 966.166 845.588C1051.05 806.077 1135.87 775.766 1218.25 755.516C1309.32 733.125 1393.41 724.174 1468.17 728.901C1529 732.739 1615.14 745.555 1742.35 811.226C1817.29 849.886 1905.08 912.142 1977.18 977.782C2054.72 1048.36 2110.07 1118.9 2137.26 1181.76C2164.46 1243.98 2164.58 1298.46 2137.64 1343.67C2112.46 1385.76 2063.86 1419.55 1992.34 1444.88C1921.63 1469.92 1828.5 1486.67 1713.49 1494.97C1669.16 1498.15 1619.6 1503.97 1561.95 1512.75C1548.45 1514.81 1534.09 1517.1 1519.28 1519.54C1468.85 1527.88 1416.5 1537.53 1365.87 1546.87C1267.09 1565.09 1164.94 1583.93 1070.21 1594.27C957.16 1606.66 867.908 1605.29 797.346 1590.1C712.385 1571.82 651.946 1533.66 612.574 1473.46C554.678 1384.8 560.044 1264.56 627.302 1143.55Z" fill="#37C1FF"/>
<path d="M871.963 1573.38C938.446 1587.78 1022.32 1589.07 1128.38 1577.33C1216.41 1567.63 1311.08 1549.95 1402.63 1532.86C1450.46 1523.93 1499.9 1514.7 1547.52 1506.78C1561.33 1504.48 1574.69 1502.34 1587.24 1500.42C1640.61 1492.26 1686.68 1486.87 1728.08 1483.95C1841.65 1475.85 1933.44 1458.81 2000.93 1433.32C2062.71 1409.98 2105.69 1378.99 2128.7 1341.21C2154.41 1298.63 2154.7 1247.2 2129.58 1188.33C2097.5 1113.15 2030.55 1042.59 1980.02 996.631C1912.55 935.248 1830.13 876.904 1759.54 840.573C1696.94 808.28 1611.14 770.34 1502.47 763.424C1400.69 756.918 1279.82 777.611 1153.31 822.421C1113.1 836.659 1072.3 853.338 1031.38 872.351C958.891 905.964 893.885 948.292 838.168 998.166C785.349 1045.45 743.024 1097.49 712.385 1152.83C649.225 1266.59 644.076 1379.73 698.258 1463.27C735.229 1520.05 792.047 1556.07 871.963 1573.38ZM716.659 1153.02C747.096 1098.07 789.104 1046.42 841.519 999.485C896.743 950.039 961.183 908.075 1033.03 874.77C1073.74 855.854 1114.29 839.275 1154.28 825.112C1279.83 780.653 1399.75 760.094 1500.64 766.547C1557.28 770.157 1637.51 782.133 1756.09 843.282C1826.47 879.522 1908.7 937.718 1976.02 998.976C2026.4 1044.8 2093.15 1115.15 2125.11 1190.02C2149.96 1248.28 2149.76 1299.03 2124.51 1340.87C2102.1 1377.64 2060.15 1407.85 1999.83 1430.64C1996.71 1431.82 1993.54 1432.98 1990.31 1434.13C1924.49 1457.43 1836.7 1473.12 1729.11 1480.82C1687.53 1483.75 1641.27 1489.15 1587.7 1497.35C1575.11 1499.27 1561.7 1501.42 1547.88 1503.72C1500.2 1511.65 1450.7 1520.89 1402.85 1529.82C1311.42 1546.89 1216.89 1564.54 1129.13 1574.21C1023.72 1585.88 940.445 1584.61 874.531 1570.33C795.459 1553.2 739.21 1517.54 702.592 1461.27C648.797 1378.35 653.937 1266 716.659 1153.02Z" fill="#37C1FF"/>
<path d="M910.991 1533.78C972.826 1547.27 1050.73 1548.46 1149.15 1537.44C1230.26 1528.42 1317.36 1511.92 1401.6 1495.97C1446.6 1487.45 1493.12 1478.65 1537.95 1471.13C1550.74 1468.99 1563.15 1466.99 1574.82 1465.2C1624.15 1457.61 1666.91 1452.64 1705.53 1449.97C1810.82 1442.54 1895.89 1426.93 1958.37 1403.58C2015.77 1382.13 2055.8 1353.55 2077.38 1318.61C2101.57 1279.42 2102.2 1231.71 2079.26 1176.77C2049.87 1106.4 1987.67 1040.71 1940.68 997.985C1878 940.985 1801.14 886.71 1735.1 852.795C1677.03 822.876 1597.46 787.711 1496.76 781.23C1402.02 775.084 1289.53 794.296 1171.88 835.958C1135.01 849.016 1097.59 864.291 1060.09 881.674C928.082 942.669 822.773 1035.28 763.578 1142.46C735.371 1193.31 719.035 1246.12 716.332 1295.16C713.512 1346.27 724.873 1392.06 750.096 1431.23C784.335 1484.08 836.963 1517.62 910.991 1533.78ZM720.983 1294.26C723.659 1245.57 739.875 1193.14 767.889 1142.65C826.599 1036.36 930.967 944.54 1061.77 884.115C1217.79 811.799 1371.63 776.374 1494.96 784.374C1547.41 787.747 1621.72 798.885 1731.67 855.526C1797.51 889.34 1874.16 943.482 1936.7 1000.34C1983.56 1042.93 2045.54 1108.39 2074.8 1178.46C2097.47 1232.77 2096.94 1279.8 2073.2 1318.26C2052.25 1352.19 2013.27 1380 1957.3 1400.9C1895.52 1424.01 1811.16 1439.44 1706.57 1446.82C1667.75 1449.5 1624.81 1454.5 1575.29 1462.11C1563.59 1463.9 1551.15 1465.9 1538.3 1468.06C1493.4 1475.6 1446.83 1484.41 1401.8 1492.93C1317.7 1508.85 1230.74 1525.32 1149.89 1534.31C1052.15 1545.27 974.842 1544.1 913.574 1530.72C840.375 1514.75 788.327 1481.56 754.466 1429.25C729.462 1390.4 718.195 1344.98 720.983 1294.26Z" fill="#37C1FF"/>
<path d="M876.782 1510.99C938.617 1524.49 1016.52 1525.68 1114.94 1514.65C1196.05 1505.64 1283.15 1489.14 1367.39 1473.19C1412.39 1464.67 1458.91 1455.86 1503.74 1448.35C1516.54 1446.2 1528.95 1444.21 1540.61 1442.41C1589.94 1434.83 1632.7 1429.85 1671.32 1427.19C1776.61 1419.76 1861.68 1404.15 1924.16 1380.8C1981.57 1359.35 2021.6 1330.77 2043.17 1295.82C2067.37 1256.63 2068 1208.92 2045.05 1153.99C2015.67 1083.62 1953.47 1017.92 1906.47 975.203C1843.79 918.202 1766.94 863.927 1700.89 830.012C1642.82 800.094 1563.25 764.928 1462.55 758.448C1367.81 752.302 1255.32 771.513 1137.67 813.175C1100.8 826.234 1063.38 841.509 1025.89 858.892C893.874 919.887 788.564 1012.5 729.37 1119.67C701.163 1170.53 684.826 1223.33 682.123 1272.38C679.304 1323.49 690.665 1369.28 715.888 1408.45C750.126 1461.3 802.754 1494.83 876.782 1510.99ZM686.774 1271.47C689.451 1222.79 705.667 1170.36 733.68 1119.87C792.39 1013.58 896.759 921.757 1027.56 861.332C1183.58 789.017 1337.42 753.592 1460.75 761.592C1513.2 764.965 1587.52 776.102 1697.46 832.743C1763.3 866.558 1839.96 920.7 1902.49 977.561C1949.35 1020.15 2011.33 1085.61 2040.59 1155.68C2063.27 1209.99 2062.73 1257.02 2038.99 1295.48C2018.04 1329.41 1979.06 1357.21 1923.1 1378.12C1861.31 1401.22 1776.95 1416.65 1672.36 1424.04C1633.54 1426.72 1590.6 1431.72 1541.08 1439.33C1529.38 1441.12 1516.94 1443.12 1504.1 1445.28C1459.19 1452.81 1412.62 1461.63 1367.59 1470.15C1283.49 1486.07 1196.53 1502.53 1115.69 1511.53C1017.94 1522.49 940.634 1521.32 879.366 1507.94C806.167 1491.97 754.119 1458.78 720.258 1406.47C695.253 1367.62 683.987 1322.2 686.774 1271.47Z" fill="#37C1FF"/>
<path d="M950.037 1494.17C1007.22 1506.76 1079.16 1507.86 1169.94 1497.54C1244.19 1489.19 1323.79 1473.87 1400.74 1459.06C1442.87 1450.95 1486.42 1442.57 1528.41 1435.47C1540.2 1433.47 1551.65 1431.62 1562.44 1429.95C1607.74 1422.96 1647.16 1418.39 1683.01 1415.98C1779.99 1409.23 1858.34 1395.04 1915.78 1373.85C1968.75 1354.3 2005.86 1328.12 2026.08 1296.02C2048.7 1260.1 2049.68 1216.1 2028.97 1165.23C2002.29 1099.67 1944.85 1038.84 1901.38 999.356C1843.47 946.743 1772.18 896.528 1710.7 865.027C1657.18 837.483 1583.83 805.093 1491.11 799.047C1403.4 793.271 1299.29 810.983 1190.51 849.506C1156.95 861.39 1122.95 875.251 1088.87 891.008C966.827 947.157 869.509 1032.77 814.841 1132.08C788.855 1179.01 773.742 1227.79 771.18 1273.16C768.502 1320.51 778.871 1362.92 802.022 1399.21C833.455 1448.11 881.882 1479.17 950.037 1494.17ZM775.77 1272.28C778.321 1227.26 793.299 1178.86 819.088 1132.29C873.275 1033.87 969.652 949.049 1090.48 893.461C1233.99 827.122 1375.61 794.71 1489.24 802.194C1537.5 805.339 1605.91 815.637 1707.23 867.756C1768.53 899.164 1839.61 949.233 1897.37 1001.72C1940.7 1041.06 1997.92 1101.66 2024.47 1166.91C2044.93 1217.15 2044.05 1260.47 2021.88 1295.65C2002.28 1326.75 1966.22 1352.15 1914.69 1371.17C1857.93 1392.12 1780.3 1406.15 1684.02 1412.85C1647.99 1415.27 1608.36 1419.87 1562.87 1426.89C1552.04 1428.56 1540.57 1430.42 1528.74 1432.42C1486.67 1439.54 1443.07 1447.93 1400.91 1456.03C1324.08 1470.82 1244.63 1486.11 1170.65 1494.43C1080.55 1504.68 1009.23 1503.6 952.612 1491.14C885.289 1476.34 837.442 1445.62 806.338 1397.26C783.4 1361.28 773.125 1319.24 775.77 1272.28Z" fill="#37C1FF"/>
<path d="M989.035 1454.53C1041.58 1466.21 1107.54 1467.21 1190.68 1457.6C1258.12 1449.93 1330.27 1435.77 1400.04 1422.08C1439.22 1414.4 1479.75 1406.44 1518.84 1399.77C1529.65 1397.92 1540.14 1396.21 1550.02 1394.68C1590.72 1388.36 1626.84 1384.19 1660.45 1381.95C1749.01 1376.02 1820.61 1363.3 1873.12 1344.17C1921.66 1326.5 1955.85 1302.69 1974.75 1273.39C1995.82 1240.73 1997.14 1200.44 1978.67 1153.64C1954.7 1092.91 1902.02 1036.94 1862.05 1000.69C1808.91 952.466 1743.19 906.306 1686.27 877.224C1637.26 852.051 1570.16 822.44 1485.42 816.837C1404.74 811.422 1309.01 827.643 1209.09 863.027C1178.88 873.726 1148.26 886.189 1117.58 900.321C1005.53 951.628 916.203 1030.24 866.029 1121.69C842.249 1164.68 828.393 1209.45 825.953 1251.14C823.399 1294.71 832.795 1333.75 853.87 1367.15C882.55 1412.11 926.772 1440.69 989.035 1454.53ZM830.547 1250.26C832.972 1208.91 846.707 1164.53 870.291 1121.89C919.966 1031.33 1008.36 953.52 1119.18 902.769C1250.17 842.4 1379.56 813.006 1483.53 819.981C1527.6 822.897 1590.09 832.348 1682.78 879.967C1739.51 908.952 1805.02 954.962 1858.02 1003.05C1897.84 1039.17 1950.3 1094.9 1974.14 1155.31C1992.35 1201.49 1991.16 1241.08 1970.56 1273C1952.04 1301.71 1919.82 1324.11 1872.05 1341.5C1820.16 1360.4 1749.32 1372.94 1661.45 1378.82C1627.64 1381.09 1591.33 1385.27 1550.41 1391.62C1540.5 1393.16 1529.98 1394.88 1519.12 1396.74C1479.94 1403.43 1439.38 1411.39 1400.14 1419.08C1330.52 1432.74 1258.52 1446.86 1191.37 1454.51C1108.91 1464.04 1043.57 1463.06 991.598 1451.51C930.163 1437.86 886.506 1409.63 858.156 1365.22C837.323 1332.11 828.022 1293.44 830.547 1250.26Z" fill="#37C1FF"/>
<path d="M1027.95 1414.93C1075.83 1425.68 1135.85 1426.57 1211.45 1417.66C1272.15 1410.64 1336.91 1397.66 1399.56 1385.08C1435.74 1377.82 1473.17 1370.31 1509.28 1364.07C1519.08 1362.37 1528.62 1360.8 1537.61 1359.4C1573.71 1353.75 1607.45 1349.89 1637.9 1347.91C1793.36 1337.79 1886.75 1306.02 1923.42 1250.75C1942.93 1221.35 1944.58 1184.79 1928.34 1142.04C1907.11 1086.15 1859.19 1035.04 1822.71 1002C1774.34 958.149 1714.2 916.061 1661.82 889.405C1617.36 866.606 1556.48 839.77 1479.71 834.602C1406.23 829.564 1318.72 844.371 1227.24 876.765C1200.52 886.225 1173.45 897.199 1146.3 909.602C1044.42 956.17 963.061 1027.79 917.226 1111.28C895.709 1150.45 883.096 1191.21 880.715 1229.14C878.221 1269.05 886.636 1304.69 905.71 1335.08C931.484 1376.15 971.472 1402.25 1027.95 1414.93ZM885.343 1228.26C887.693 1190.68 900.198 1150.29 921.519 1111.47C966.86 1028.89 1047.28 958.069 1147.92 912.064C1174.86 899.753 1201.7 888.874 1228.22 879.484C1318.73 847.431 1405.28 832.772 1477.85 837.744C1517.76 840.427 1574.32 849.044 1658.38 892.141C1710.56 918.697 1770.5 960.638 1818.71 1004.36C1884.49 1063.96 1912.2 1113.02 1923.83 1143.68C1939.83 1185.78 1938.3 1221.65 1919.28 1250.3C1902.15 1276.1 1872.03 1296.64 1828.33 1312.12C1781.22 1328.8 1718.33 1339.6 1638.94 1344.77C1608.29 1346.76 1574.34 1350.64 1538.03 1356.32C1528.99 1357.73 1519.43 1359.32 1509.58 1361.02C1473.37 1367.29 1435.89 1374.8 1399.66 1382.07C1337.17 1394.61 1272.55 1407.57 1212.15 1414.56C1137.24 1423.39 1077.83 1422.52 1030.54 1411.91C974.897 1399.42 935.49 1373.66 910.047 1333.14C891.201 1303.07 882.88 1267.78 885.343 1228.26Z" fill="#37C1FF"/>
<path d="M1066.93 1375.26C1110.05 1385.05 1164.11 1385.87 1232.2 1377.76C1286.17 1371.32 1343.56 1359.52 1399.06 1348.1C1432.24 1341.27 1466.54 1334.21 1499.69 1328.4C1508.52 1326.84 1517.09 1325.42 1525.16 1324.15C1557.25 1319.09 1587.59 1315.65 1615.3 1313.91C1688.23 1309.34 1744.66 1299.78 1787.79 1284.7C1828.06 1270.65 1855.59 1252.14 1872.06 1228.16C1890.26 1201.65 1892.19 1169.7 1878.01 1130.5C1867.81 1102.33 1843.1 1057.41 1783.36 1003.37C1739.76 963.906 1685.19 925.877 1637.37 901.65C1597.44 881.225 1542.79 857.174 1473.98 852.446C1407.55 847.772 1328.39 861.099 1245.71 890.376C1222.36 898.645 1198.7 908.195 1175 918.972C1083.13 960.71 1009.76 1025.34 968.402 1100.94C949.112 1136.21 937.723 1172.94 935.48 1207.19C933.1 1243.35 940.536 1275.6 957.549 1303.09C980.511 1340.15 1016.29 1363.77 1066.93 1375.26ZM940.098 1206.29C942.326 1172.38 953.591 1136.02 972.7 1101.1C1013.57 1026.4 1085.98 962.583 1176.59 921.412C1283.07 873.032 1388.02 849.645 1472.12 855.57C1507.84 858.024 1558.5 865.787 1633.92 904.377C1681.56 928.508 1735.91 966.4 1779.36 1005.72C1838.81 1059.5 1863.36 1104.14 1873.49 1132.11C1887.25 1170.12 1885.39 1202.28 1867.96 1227.67C1852.35 1250.41 1826.21 1268.04 1788.03 1281.56C1787.64 1281.7 1787.25 1281.84 1786.86 1281.98C1744.4 1296.82 1688.63 1306.24 1616.38 1310.77C1588.45 1312.52 1557.9 1315.99 1525.58 1321.09C1517.48 1322.36 1508.87 1323.8 1499.99 1325.36C1466.73 1331.2 1432.38 1338.27 1399.16 1345.1C1343.81 1356.48 1286.56 1368.26 1232.9 1374.66C1165.52 1382.68 1112.1 1381.89 1069.56 1372.24C1019.77 1360.93 984.553 1337.67 961.925 1301.13C945.091 1273.95 937.747 1242.05 940.098 1206.29Z" fill="#37C1FF"/>
<path d="M1252.92 1337.85C1300.28 1332.07 1350.45 1321.4 1398.99 1311.09C1429.01 1304.7 1460.05 1298.11 1490.08 1292.74C1497.9 1291.34 1505.52 1290.04 1512.7 1288.91C1540.82 1284.43 1567.74 1281.4 1592.69 1279.91C1717.27 1272.46 1789.7 1248.84 1820.68 1205.57C1837.29 1182.34 1839.57 1154.01 1827.65 1118.94C1818.98 1093.47 1797.43 1052.97 1743.98 1004.71C1705.49 969.933 1656.47 935.964 1612.88 913.854C1577.25 895.779 1528.6 874.491 1468.25 870.238C1408.87 865.92 1338.04 877.763 1264.17 903.922C1244.18 911.001 1223.95 919.132 1203.69 928.273C1121.83 965.182 1056.44 1022.81 1019.57 1090.54C1002.51 1121.89 992.36 1154.61 990.234 1185.16C987.981 1217.56 994.412 1246.45 1009.37 1271.02C1046.68 1332.36 1124.09 1353.59 1252.92 1337.85ZM1023.84 1090.72C1060.22 1023.9 1124.65 967.088 1205.24 930.747C1299.27 888.346 1392 867.972 1466.35 873.378C1497.63 875.589 1542.15 882.492 1609.41 916.601C1652.81 938.605 1701.61 972.438 1739.95 1007.08C1793.1 1055.05 1814.49 1095.26 1823.1 1120.52C1834.8 1154.91 1832.68 1182.55 1816.6 1205.02C1786.79 1246.67 1715.99 1269.47 1593.77 1276.77C1568.6 1278.27 1541.45 1281.32 1513.1 1285.83C1505.87 1286.98 1498.2 1288.28 1490.34 1289.69C1460.19 1295.09 1429.09 1301.7 1399.01 1308.08C1350.64 1318.37 1300.62 1329 1253.58 1334.75C1126.65 1350.25 1050.44 1329.39 1013.71 1269.1C984.96 1221.87 988.744 1155.18 1023.84 1090.72Z" fill="#37C1FF"/>
<path d="M1273.61 1297.95C1314.45 1292.8 1357.53 1283.26 1399.19 1274.03C1425.95 1268.11 1453.62 1261.97 1480.44 1257.07C1487.27 1255.81 1493.92 1254.67 1500.2 1253.66C1524.42 1249.75 1547.91 1247.15 1570.04 1245.91C1678.14 1239.86 1741.44 1219.87 1769.23 1183C1784.29 1163.04 1786.9 1138.31 1777.24 1107.4C1767.19 1075.22 1741.37 1039.24 1704.55 1006.08C1670.86 975.71 1627.42 945.805 1588.34 926.089C1555.27 909.417 1514.46 891.861 1462.45 888.057C1410.12 884.095 1347.62 894.455 1282.55 917.496C1265.94 923.379 1249.13 930.096 1232.31 937.609C1160.47 969.689 1103.06 1020.31 1070.67 1080.18C1039.62 1137.53 1036.06 1196.9 1061.13 1239C1093.53 1293.41 1161.04 1312.14 1273.61 1297.95ZM1074.97 1080.35C1106.88 1021.4 1163.31 971.585 1233.86 940.083C1250.51 932.652 1267.09 926.015 1283.52 920.196C1347.61 897.502 1409.13 887.287 1460.56 891.183C1511.79 894.923 1552.15 912.303 1584.89 928.817C1623.77 948.432 1667 978.186 1700.54 1008.43C1737.11 1041.36 1762.73 1077.05 1772.7 1108.93C1782.14 1139.14 1779.7 1163.16 1765.24 1182.35C1748.5 1204.56 1710.16 1234.99 1571.16 1242.76C1548.78 1244.01 1525.05 1246.64 1500.6 1250.58C1494.28 1251.6 1487.58 1252.75 1480.68 1254.02C1453.72 1258.95 1425.99 1265.1 1399.16 1271.03C1357.67 1280.23 1314.76 1289.73 1274.25 1294.84C1163.62 1308.78 1097.28 1290.43 1065.51 1237.07C1040.78 1195.56 1044.31 1136.98 1074.97 1080.35Z" fill="#37C1FF"/>
<path d="M1183.67 1256.42C1212.72 1263.47 1248.89 1263.99 1294.25 1258.04C1328.7 1253.52 1364.81 1245.09 1399.74 1236.93C1423.12 1231.47 1447.28 1225.83 1470.75 1221.39C1476.57 1220.29 1482.26 1219.29 1487.65 1218.41C1507.99 1215.07 1528.07 1212.88 1547.34 1211.9C1640.29 1207.19 1692.84 1191.3 1717.74 1160.42C1731.22 1143.69 1734.18 1122.57 1726.8 1095.84C1718.97 1067.51 1697.04 1036.11 1665.08 1007.42C1636.19 981.449 1598.32 955.612 1563.76 938.294C1537.24 925.016 1501.11 909.326 1456.62 905.855C1411.15 902.312 1356.94 911.195 1300.75 931.092C1287.54 935.769 1274.25 941.048 1260.9 946.924C1199.08 974.151 1149.66 1017.79 1121.72 1069.8C1095.13 1119.31 1091.8 1170.58 1112.83 1206.95C1127.45 1232.23 1150.61 1248.4 1183.67 1256.42ZM1126.04 1069.97C1139.58 1044.76 1157.99 1021.67 1180.76 1001.35C1204.16 980.472 1231.65 962.997 1262.43 949.426C1331.37 919.057 1399.65 904.706 1454.71 908.996C1477.67 910.784 1510.43 916.047 1560.34 941.043C1594.7 958.246 1632.36 983.946 1661.1 1009.79C1692.79 1038.24 1714.51 1069.34 1722.26 1097.34C1729.45 1123.35 1726.69 1143.75 1713.84 1159.68C1703.53 1172.48 1688.01 1182.57 1666.28 1190.26C1638.16 1200.22 1599.65 1206.16 1548.5 1208.76C1528.98 1209.76 1508.64 1211.97 1488.04 1215.34C1482.59 1216.24 1476.84 1217.25 1470.95 1218.37C1447.32 1222.83 1423.07 1228.49 1399.62 1233.97C1364.88 1242.08 1328.96 1250.46 1294.87 1254.94C1200.51 1267.32 1144.08 1251.47 1117.25 1205.06C1096.53 1169.27 1099.84 1118.76 1126.04 1069.97Z" fill="#37C1FF"/>
<path d="M1314.84 1218.13C1343.04 1214.23 1372.34 1206.88 1400.66 1199.78C1420.5 1194.8 1441.01 1189.66 1461.01 1185.73C1465.83 1184.78 1470.55 1183.91 1475.05 1183.16C1491.62 1180.38 1508.29 1178.61 1524.56 1177.91C1602.01 1174.55 1644.36 1162.58 1666.16 1137.89C1678.1 1124.36 1681.41 1106.85 1676.29 1084.33C1670.72 1059.9 1652.7 1033.07 1625.54 1008.78C1601.44 987.195 1569.13 965.418 1539.12 950.525C1515.78 938.942 1487.01 926.695 1450.73 923.674C1412.26 920.475 1366.37 927.857 1319.03 944.62C1309.22 948.095 1299.34 951.969 1289.45 956.245C1236.89 978.952 1196.54 1014.63 1172.74 1059.43C1150.6 1101.09 1147.52 1144.26 1164.5 1174.91C1186.67 1214.92 1235.84 1229.06 1314.84 1218.13ZM1177.05 1059.58C1200.35 1015.75 1239.71 980.894 1290.92 958.769C1347.37 934.381 1403.43 923.033 1448.81 926.801C1484.34 929.757 1512.68 941.841 1535.71 953.268C1565.52 968.061 1597.61 989.692 1621.56 1011.14C1648.42 1035.16 1666.24 1061.65 1671.71 1085.73C1676.67 1107.49 1673.61 1124.25 1662.37 1136.98C1641.89 1160.19 1601.03 1171.49 1525.75 1174.76C1509.19 1175.48 1492.24 1177.28 1475.39 1180.1C1470.82 1180.86 1466.02 1181.73 1461.14 1182.71C1440.95 1186.68 1420.35 1191.84 1400.42 1196.84C1372.28 1203.9 1343.19 1211.19 1315.38 1215.04C1278.35 1220.16 1248.83 1219.75 1225.17 1213.78C1198.81 1207.13 1180.4 1193.81 1168.89 1173.05C1152.23 1142.97 1155.28 1100.55 1177.05 1059.58Z" fill="#37C1FF"/>
<path d="M1335.32 1178.21C1357.45 1174.91 1380.15 1168.62 1402.08 1162.53C1418.19 1158.06 1434.85 1153.44 1451.18 1150.03C1455.02 1149.22 1458.77 1148.51 1462.35 1147.89C1475.41 1145.63 1488.28 1144.31 1501.69 1143.88C1564.21 1141.88 1595.82 1133.89 1614.44 1115.36C1624.89 1104.96 1628.56 1091.04 1625.69 1072.79C1622.47 1052.29 1608.35 1030.03 1585.93 1010.1C1566.6 992.872 1539.85 975.164 1514.4 962.709C1495.89 953.652 1473.13 944.044 1444.78 941.455C1413.29 938.583 1375.7 944.45 1337.26 958.063C1330.84 960.337 1324.39 962.824 1317.94 965.538C1275.54 983.311 1242.94 1012.19 1223.66 1049.05C1205.97 1082.86 1203.14 1117.93 1216.07 1142.85C1233.28 1176.03 1272.29 1187.59 1335.32 1178.21ZM1227.96 1049.18C1246.72 1013.32 1278.31 985.284 1319.3 968.099C1363.24 949.679 1407.08 941.344 1442.79 944.595C1470.42 947.112 1492.77 956.571 1510.99 965.476C1536.23 977.822 1562.76 995.393 1581.94 1012.48C1604.03 1032.12 1617.94 1053.99 1621.1 1074.09C1623.85 1091.53 1620.5 1104.65 1610.88 1114.23C1593.66 1131.38 1563.39 1138.81 1502.96 1140.74C1489.24 1141.18 1476.08 1142.52 1462.68 1144.84C1459.02 1145.47 1455.17 1146.21 1451.26 1147.03C1434.68 1150.49 1417.91 1155.14 1401.67 1159.64C1379.95 1165.66 1357.5 1171.89 1335.83 1175.13C1274.84 1184.21 1237.13 1173.05 1220.5 1141.03C1207.83 1116.66 1210.62 1082.32 1227.96 1049.18Z" fill="#37C1FF"/>
<path d="M1355.69 1138.22C1372.02 1135.51 1388.38 1130.22 1404.22 1125.1C1416.34 1121.19 1428.85 1117.14 1441.22 1114.29C1444.17 1113.61 1446.88 1113.05 1449.51 1112.58C1458.99 1110.84 1468.51 1109.94 1478.62 1109.83C1521.94 1109.31 1545.53 1106.65 1562.45 1092.88C1571.5 1085.52 1575.59 1075.17 1574.92 1061.27C1574.14 1044.78 1563.91 1027.06 1546.14 1011.4C1525.06 992.797 1499.51 979.665 1489.5 974.879C1475.83 968.343 1459.1 961.377 1438.65 959.226C1414.09 956.642 1384.85 960.937 1355.42 971.358C1352.38 972.436 1349.32 973.579 1346.26 974.797C1314.01 987.601 1289.17 1009.68 1274.38 1038.64C1264.15 1058.68 1256.97 1088.14 1267.44 1110.74C1279.48 1136.71 1309.18 1145.96 1355.69 1138.22ZM1278.72 1038.72C1293.16 1010.41 1316.31 989.781 1347.5 977.392C1378.88 964.933 1410.52 959.587 1436.6 962.337C1456.37 964.418 1472.74 971.242 1486.12 977.645C1496.02 982.376 1521.31 995.378 1542.16 1013.78C1559.56 1029.09 1569.56 1046.35 1570.32 1062.35C1570.92 1075.17 1567.23 1084.92 1559.33 1091.35C1554.78 1095.04 1549.69 1097.86 1543.66 1099.99C1529.38 1105.05 1509.88 1106.3 1480.02 1106.66C1469.53 1106.79 1459.65 1107.72 1449.77 1109.53C1447.05 1110.03 1444.22 1110.61 1441.14 1111.32C1428.43 1114.24 1415.75 1118.34 1403.48 1122.31C1387.92 1127.34 1371.83 1132.54 1356.06 1135.16C1311.7 1142.54 1283.4 1133.72 1271.92 1108.97C1261.71 1087 1268.74 1058.28 1278.72 1038.72Z" fill="#37C1FF"/>
<path d="M1375.86 1098.07C1386.62 1095.92 1396.91 1091.57 1406.85 1087.37C1414.75 1084.03 1422.92 1080.58 1431.11 1078.35C1433 1077.83 1434.73 1077.42 1436.46 1077.07C1442.62 1075.84 1448.59 1075.35 1455.24 1075.58C1459.36 1075.72 1463.1 1075.88 1466.72 1076.04C1485.13 1076.88 1497.29 1077.43 1509.95 1070.34C1517.58 1066.07 1522.53 1058.72 1523.9 1049.66C1526.28 1033.76 1515.52 1020.69 1506.1 1012.52C1492.2 1000.44 1473.97 991.254 1464.34 986.855C1455.57 982.859 1444.93 978.532 1432.32 976.805C1415.56 974.511 1396.11 976.869 1374.52 983.801C1373.68 984.067 1372.86 984.346 1372.04 984.64C1351.14 992.039 1335.29 1006.64 1324.87 1028.05C1318.08 1042.02 1312.87 1062.58 1318.58 1078.4C1325.42 1097.38 1345.23 1104.19 1375.86 1098.07ZM1329.22 1028.1C1339.43 1007.08 1354.89 993.136 1375.24 986.601C1395.79 980.005 1414.25 977.756 1430.08 979.919C1442.14 981.568 1452.46 985.763 1460.97 989.656C1470.46 993.994 1488.43 1003.05 1502.1 1014.92C1511.18 1022.78 1521.52 1035.32 1519.27 1050.37C1518.06 1058.37 1513.97 1064.7 1507.76 1068.18C1497 1074.21 1486.25 1073.71 1468.43 1072.91C1464.79 1072.75 1461.03 1072.58 1456.88 1072.44C1449.72 1072.21 1443.27 1072.73 1436.55 1074.08C1434.67 1074.45 1432.76 1074.9 1430.69 1075.47C1421.99 1077.84 1413.56 1081.41 1405.43 1084.84C1395.41 1089.07 1385.93 1093.07 1375.97 1095.06C1347.31 1100.79 1329.52 1094.64 1323.06 1076.8C1317.57 1061.54 1322.64 1041.63 1329.22 1028.1Z" fill="#37C1FF"/>
<path d="M1395.88 1057.1C1401.58 1055.43 1406.15 1051.84 1410.55 1048.37C1414.05 1045.61 1417.36 1043 1420.92 1041.56C1421.67 1041.25 1422.4 1041.01 1423.13 1040.83C1429.97 1039.11 1433.78 1041.19 1438.18 1043.6C1442.6 1046.01 1447.59 1048.75 1456.32 1047.2C1462.86 1046.03 1469.43 1042.12 1472.27 1037.67C1477.58 1029.34 1475.36 1021.01 1465.65 1012.9C1459.49 1007.75 1450.42 1002.76 1438.72 998.083C1423.9 992.169 1412.44 990.253 1402.62 992.048C1400.77 992.387 1398.99 992.865 1397.29 993.468C1387.5 996.933 1380.01 1004.75 1374.94 1016.8C1373.79 1019.54 1368.11 1033.78 1369.29 1045.21C1370 1052.06 1373.11 1056.41 1378.51 1058.16C1382.93 1059.54 1388.77 1059.2 1395.88 1057.1ZM1373.92 1044C1373.04 1035.52 1376.31 1023.98 1379.38 1016.68C1384.7 1004.01 1392.23 996.928 1402.39 995.074C1410.91 993.512 1421.75 995.427 1435.52 1000.93C1446.94 1005.49 1455.75 1010.32 1461.7 1015.3C1470.54 1022.68 1472.69 1030.08 1468.09 1037.28C1466.51 1039.75 1463.17 1042.07 1459.57 1043.35C1458.59 1043.7 1457.59 1043.97 1456.6 1044.15C1449.85 1045.35 1445.89 1043.18 1441.7 1040.9C1437.16 1038.41 1432 1035.59 1422.88 1037.89C1421.78 1038.17 1420.69 1038.52 1419.59 1038.97C1415.06 1040.82 1411.21 1043.86 1407.48 1046.79C1403.42 1049.98 1399.59 1053 1395.32 1054.26C1389.51 1055.97 1384.85 1056.29 1381.46 1055.19C1377.08 1053.79 1374.54 1050.02 1373.92 1044Z" fill="#37C1FF"/>
</svg>
