<svg width="1440" height="1024" viewBox="0 0 1440 1024" fill="none" xmlns="http://www.w3.org/2000/svg">
<g opacity="0.8">
<path d="M-816.837 395.843C-830.479 600.473 -764.292 787.762 -614.534 968.438C-490.806 1117.71 -305.855 1265.19 -49.1436 1419.26C166.583 1548.72 411.294 1670.62 647.959 1788.48C926.084 1927.01 1213.72 2070.26 1448.52 2223.68C1872.44 2500.62 2209.42 2625.31 2450.05 2594.27C2658.9 2567.37 2793.42 2425.03 2849.81 2171.18C2906.56 1915.81 2870.84 1605.63 2830.88 1390.37C2784.03 1137.95 2703.87 871.128 2616.42 676.608C2531.73 488.181 2404.8 245.67 2173.05 41.1579C2023.32 -90.979 1831.97 -206.13 1604.32 -301.094C1505.38 -342.367 1401.52 -379.127 1293.41 -411.15C1177 -445.634 1055.7 -474.634 930.377 -497.872C707.822 -539.145 487.291 -545.066 274.997 -515.447C74.2154 -487.455 -110.162 -429.233 -272.968 -342.422C-598.922 -168.607 -797.157 100.471 -816.837 395.843ZM-264.818 -335.583C-103.03 -421.843 80.1789 -479.692 279.64 -507.489C490.361 -536.881 709.197 -531.009 930.056 -490.053C1170.47 -445.461 1396.01 -379.614 1600.37 -294.374C1826.36 -200.092 2016.26 -85.8223 2164.8 45.2427C2285.71 151.948 2445.08 320.228 2605.59 677.316C2692.81 871.369 2772.82 1137.61 2819.57 1389.55C2859.43 1604.3 2895.06 1913.71 2838.52 2168.21C2782.72 2419.25 2650.52 2559.93 2445.6 2586.35C2350.73 2598.56 2240.42 2586.04 2115.18 2548.94C1927.85 2493.45 1707.14 2383.01 1455.18 2218.38C1219.59 2064.46 931.535 1920.98 652.983 1782.24C416.602 1664.51 172.214 1542.77 -42.9951 1413.62C-301.89 1258.26 -480.467 1115.92 -605.002 965.665C-753.379 786.65 -818.948 600.984 -805.404 398.057C-785.879 104.585 -588.832 -162.82 -264.818 -335.583Z" fill="#E54651"/>
<path d="M-479.16 941.113C-363.122 1081.45 -189.694 1219.72 51.0095 1363.81C252.035 1484.22 480.022 1597.17 700.474 1706.41C813.242 1762.28 929.803 1820.05 1040.64 1877.77C1073.15 1894.7 1104.54 1911.3 1133.93 1927.12C1259.22 1994.57 1364.31 2056.29 1455.3 2115.89C1937.18 2431.16 2296.81 2535.85 2524.26 2427.04C2646.32 2368.37 2728.6 2248.38 2768.86 2070.4C2809.82 1892.14 2807.05 1654.69 2760.91 1383.77C2718.06 1132 2639.39 863.86 2550.51 666.49C2471.13 490.058 2352.22 262.954 2135.36 71.3805C1933.09 -107.367 1647.49 -253.66 1311.45 -353.199C1203.38 -385.211 1090.02 -412.396 972.594 -434.279C767.084 -472.634 563.327 -478.703 366.936 -452.342C180.97 -427.371 9.49169 -374.629 -142.802 -295.55C-456.904 -132.616 -648.225 122.467 -667.721 404.301C-680.859 596.236 -619.183 771.821 -479.16 941.113ZM-134.718 -288.625C16.5272 -367.188 186.845 -419.581 371.491 -444.357C566.315 -470.516 768.415 -464.485 972.228 -426.446C1197.05 -384.582 1408 -322.815 1599.15 -242.849C1810.47 -154.454 1988.09 -47.3425 2127.06 75.4791C2240.13 175.386 2389.25 332.927 2539.63 667.212C2628.26 864.079 2706.74 1131.6 2749.54 1382.88C2795.56 1653.07 2798.31 1889.77 2757.54 2067.39C2717.71 2243.64 2636.57 2362.29 2516.44 2420.03C2404.37 2473.66 2258.96 2473.98 2081.44 2421.39C1905.94 2369.41 1699 2265.65 1461.96 2110.58C1370.63 2050.75 1265.12 1988.8 1139.41 1921.13C1109.95 1905.28 1078.49 1888.64 1045.91 1871.66C934.969 1813.88 818.303 1756.05 705.46 1700.16C485.285 1591.08 257.621 1478.28 57.1505 1358.19C-182.172 1214.94 -354.458 1077.62 -469.597 938.375C-608.233 770.721 -669.298 596.782 -656.272 406.6C-636.931 126.665 -446.843 -126.731 -134.718 -288.625Z" fill="#E54651"/>
<path d="M-524 840.614C-407.962 980.947 -234.533 1119.23 6.16965 1263.31C207.195 1383.72 435.182 1496.67 655.635 1605.91C768.402 1661.78 884.963 1719.55 995.798 1777.27C1028.31 1794.2 1059.7 1810.81 1089.09 1826.62C1214.38 1894.07 1319.47 1955.79 1410.46 2015.39C1892.34 2330.66 2251.97 2435.35 2479.42 2326.54C2601.48 2267.87 2683.76 2147.88 2724.02 1969.9C2764.98 1791.64 2762.21 1554.19 2716.07 1283.27C2673.22 1031.5 2594.55 763.361 2505.67 565.991C2426.29 389.56 2307.38 162.455 2090.52 -29.1181C1888.25 -207.866 1602.65 -354.158 1266.61 -453.697C1158.54 -485.709 1045.18 -512.895 927.755 -534.778C722.245 -573.133 518.487 -579.202 322.097 -552.841C136.131 -527.87 -35.3483 -475.128 -187.642 -396.049C-501.743 -233.115 -693.065 21.968 -712.561 303.802C-725.699 495.737 -664.023 671.322 -524 840.614ZM-179.558 -389.124C-28.3124 -467.687 142.005 -520.08 326.651 -544.856C521.476 -571.015 723.576 -564.984 927.388 -526.944C1152.21 -485.08 1363.16 -423.314 1554.31 -343.347C1765.63 -254.952 1943.25 -147.841 2082.22 -25.0197C2195.29 74.887 2344.41 232.429 2494.79 566.713C2583.42 763.58 2661.9 1031.1 2704.7 1282.38C2750.72 1552.58 2753.47 1789.27 2712.7 1966.89C2672.87 2143.14 2591.73 2261.79 2471.6 2319.53C2359.53 2373.16 2214.12 2373.48 2036.6 2320.89C1861.1 2268.91 1654.16 2165.15 1417.12 2010.09C1325.79 1950.25 1220.28 1888.3 1094.57 1820.63C1065.11 1804.78 1033.65 1788.14 1001.07 1771.16C890.129 1713.38 773.463 1655.55 660.621 1599.66C440.446 1490.58 212.781 1377.78 12.3109 1257.69C-227.012 1114.44 -399.297 977.117 -514.437 837.876C-653.073 670.222 -714.137 496.283 -701.112 306.101C-681.771 26.1661 -491.683 -227.23 -179.558 -389.124Z" fill="#E54651"/>
<path d="M-343.714 913.835C-235.367 1045.23 -73.4538 1174.29 151.234 1308.4C337.663 1419.83 548.986 1523.89 753.345 1624.53C860.09 1677.1 970.456 1731.46 1075.3 1785.91C1105.71 1801.69 1135 1817.16 1162.38 1831.88C1278.82 1894.46 1376.86 1952.1 1462.08 2008.07C1696.01 2161.42 1900.76 2262.52 2070.66 2308.69C2226.18 2350.92 2356.41 2348.24 2457.8 2300.72C2571.61 2246.84 2649.01 2135.45 2687.88 1969.63C2737.5 1757.85 2712.14 1503.64 2682.09 1327.64C2641.98 1092.59 2568.14 841.663 2484.54 656.412C2410.49 491.952 2299.58 280.303 2097.65 101.679C1908.57 -65.6724 1641.57 -202.618 1327.53 -295.614C1227.73 -325.177 1123.12 -350.327 1014.79 -370.585C822.995 -406.609 632.796 -412.42 449.47 -387.839C275.681 -364.537 115.268 -315.073 -27.2426 -240.852C-320.524 -88.5666 -499.581 149.708 -518.526 412.917C-531.123 592.033 -473.951 755.891 -343.714 913.835ZM-19.1744 -234.011C122.362 -307.695 281.562 -356.772 454.046 -379.927C635.769 -404.317 824.318 -398.569 1014.4 -362.837C1122.17 -342.696 1226.13 -317.71 1325.41 -288.302C1637.05 -195.99 1901.98 -60.1891 2089.41 105.715C2194.65 198.823 2333.47 345.64 2473.75 657.107C2557.1 841.855 2630.78 1092.18 2670.77 1326.71C2700.72 1502.2 2726.02 1755.65 2676.61 1966.56C2638.14 2130.66 2561.94 2240.72 2450.12 2293.68C2351.43 2339.92 2224.37 2342.45 2072.51 2301.22C2064.64 2299.07 2056.71 2296.83 2048.7 2294.46C1885.32 2246.07 1690.41 2148.03 1468.77 2002.8C1383.17 1946.59 1284.76 1888.71 1167.86 1825.89C1140.41 1811.12 1111.01 1795.61 1080.57 1779.8C975.585 1725.28 865.114 1670.86 758.301 1618.25C554.227 1517.74 343.226 1413.83 157.345 1302.75C-65.9621 1169.47 -226.725 1041.34 -334.145 911.073C-463.001 754.79 -519.599 592.568 -507.086 415.107C-488.303 153.822 -310.442 -82.755 -19.1744 -234.011Z" fill="#E54651"/>
<path d="M-208.325 886.461C-107.699 1008.88 42.6918 1128.74 251.394 1252.92C423.294 1355.41 618.059 1450.65 806.422 1542.77C907.039 1591.98 1011.07 1642.86 1109.85 1694C1138.05 1708.59 1165.26 1722.94 1190.73 1736.59C1298.42 1794.36 1389.37 1847.9 1468.79 1900.23C1685.54 2042.58 1875.03 2136.68 2031.94 2179.96C2176.1 2219.73 2296.98 2217.83 2391.32 2174.32C2497.11 2125.53 2569.61 2022.73 2606.84 1868.74C2654.56 1671.49 2631.2 1435 2603.22 1271.37C2565.93 1053.06 2496.88 819.355 2418.53 646.187C2349.81 493.723 2246.91 297.48 2059.9 131.807C1884.02 -24.1735 1635.61 -151.722 1343.58 -238.226C1252.05 -265.338 1156.16 -288.44 1056.95 -307.087C707.99 -373.17 363.964 -330.311 88.2517 -186.36C-42.8062 -118.234 -153.587 -28.0044 -232.125 74.574C-313.979 181.474 -360.177 298.136 -369.426 421.291C-381.488 587.747 -328.783 739.888 -208.325 886.461ZM-221.691 79.6103C-143.736 -22.2348 -33.756 -111.822 96.3805 -179.448C369.825 -322.205 710.831 -364.76 1056.58 -299.254C1469.34 -221.657 1822.74 -67.1106 2051.68 135.927C2149.09 222.212 2277.62 358.304 2407.76 646.966C2485.86 819.608 2554.71 1052.72 2591.92 1270.5C2619.84 1433.63 2643.12 1669.3 2595.61 1865.71C2558.78 2017.92 2487.49 2119.4 2383.67 2167.29C2292.07 2209.53 2174.4 2211.31 2033.86 2172.54C1878.66 2129.76 1690.85 2036.34 1475.52 1894.95C1395.69 1842.34 1304.36 1788.58 1196.26 1730.57C1170.73 1716.86 1143.44 1702.48 1115.13 1687.86C1016.17 1636.64 912.033 1585.7 811.348 1536.45C623.307 1444.48 428.864 1349.38 257.512 1247.24C50.2209 1123.93 -99.0272 1005.02 -198.719 883.71C-317.833 738.788 -369.92 588.269 -357.925 423.552C-348.742 301.443 -302.901 185.714 -221.691 79.6103Z" fill="#E54651"/>
<path d="M-241.113 785.428C-140.486 907.844 9.90447 1027.71 218.607 1151.89C390.507 1254.38 585.272 1349.62 773.635 1441.74C874.253 1490.94 978.281 1541.83 1077.06 1592.97C1105.26 1607.56 1132.48 1621.91 1157.95 1635.55C1265.63 1693.33 1356.58 1746.87 1436 1799.2C1652.75 1941.54 1842.24 2035.65 1999.15 2078.93C2143.31 2118.7 2264.2 2116.8 2358.53 2073.29C2464.33 2024.49 2536.82 1921.7 2574.05 1767.71C2621.78 1570.45 2598.41 1333.97 2570.44 1170.34C2533.14 952.03 2464.1 718.323 2385.75 545.154C2317.02 392.691 2214.12 196.447 2027.11 30.7738C1851.24 -125.206 1602.83 -252.755 1310.8 -339.259C1219.27 -366.371 1123.37 -389.473 1024.16 -408.12C675.203 -474.203 331.176 -431.344 55.4645 -287.393C-75.5934 -219.267 -186.375 -129.037 -264.913 -26.4589C-346.766 80.4407 -392.964 197.103 -402.214 320.258C-414.276 486.714 -361.571 638.855 -241.113 785.428ZM-254.478 -21.4227C-176.524 -123.268 -66.5433 -212.855 63.593 -280.481C337.038 -423.238 678.044 -465.793 1023.8 -400.287C1436.55 -322.69 1789.96 -168.144 2018.89 34.8944C2116.3 121.179 2244.83 257.271 2374.97 545.934C2453.07 718.575 2521.92 951.692 2559.14 1169.47C2587.05 1332.6 2610.34 1568.26 2562.82 1764.67C2526 1916.89 2454.7 2018.36 2350.89 2066.26C2259.29 2108.49 2141.61 2110.28 2001.07 2071.5C1845.88 2028.73 1658.06 1935.31 1442.73 1793.92C1362.91 1741.3 1271.58 1687.55 1163.47 1629.54C1137.94 1615.82 1110.65 1601.45 1082.34 1586.83C983.379 1535.61 879.246 1484.67 778.561 1435.41C590.52 1343.44 396.078 1248.35 224.725 1146.21C17.4336 1022.9 -131.814 903.991 -231.506 782.677C-350.621 637.755 -402.708 487.236 -390.713 322.519C-381.529 200.41 -335.689 84.6814 -254.478 -21.4227Z" fill="#E54651"/>
<path d="M-72.9051 859.123C20.0005 972.563 158.862 1083.25 351.593 1197.45C509.107 1291.07 687.449 1377.58 859.891 1461.2C954.276 1506.99 1051.87 1554.31 1144.49 1602.08C1170.51 1615.49 1195.62 1628.69 1219.2 1641.32C1318.13 1694.29 1401.95 1743.72 1475.57 1792.42C1675.07 1923.73 1849.3 2010.81 1993.16 2051.19C2125.81 2088.43 2237.41 2087.35 2324.87 2047.99C2422.7 2003.94 2490.33 1909.73 2525.86 1767.95C2571.68 1585.21 2550.34 1366.49 2524.41 1215.19C2489.89 1013.62 2425.65 797.109 2352.62 636.07C2289.21 495.603 2194.33 314.765 2022.25 162.042C1859.56 17.4579 1629.75 -100.743 1359.73 -180.729C1276.43 -205.403 1189.32 -226.435 1099.21 -243.481C776.965 -305.087 458.996 -265.41 203.875 -131.749C83.0304 -68.8327 -19.3585 14.5015 -92.1321 109.3C-168.081 208.221 -211.174 316.049 -220.167 429.82C-231.815 583.473 -183.621 723.91 -72.9051 859.123ZM-81.8473 114.292C-9.61987 20.2377 91.9308 -62.4652 211.861 -124.906C464.708 -257.349 779.657 -296.722 1098.7 -235.717C1478.09 -163.951 1803.13 -21.2441 2013.89 166.069C2103.46 245.555 2221.7 370.922 2341.75 636.767C2414.58 797.35 2478.62 1013.21 2513.04 1214.28C2538.92 1365.05 2560.17 1582.98 2514.57 1764.82C2479.48 1904.86 2413.06 1997.73 2317.21 2040.87C2232.48 2078.99 2124.09 2079.95 1995.03 2043.75C1852.87 2003.85 1680.3 1917.5 1482.22 1787.14C1408.23 1738.17 1323.95 1688.5 1224.6 1635.3C1200.96 1622.62 1175.78 1609.4 1149.68 1595.95C1056.88 1548.1 959.187 1500.72 864.735 1454.88C692.585 1371.38 514.558 1285.04 357.629 1191.78C166.316 1078.43 28.6278 968.722 -63.3503 856.41C-172.731 722.872 -220.306 584.057 -208.83 432.085C-199.889 319.312 -157.153 212.417 -81.8473 114.292Z" fill="#E54651"/>
<path d="M62.4869 831.615C147.665 936.104 275.011 1037.57 451.756 1141.84C594.944 1226.66 757.013 1304.48 913.737 1379.74C1001.75 1422.02 1092.81 1465.73 1179.12 1510.05C1203 1522.3 1226.05 1534.38 1247.62 1545.91C1336.56 1593.44 1413.34 1638.76 1482.35 1684.46C1664.17 1804.87 1823.03 1885 1954.16 1922.45C2075.37 1957.08 2177.71 1956.77 2258.41 1921.51C2348.33 1882.21 2411.09 1796.6 2444.92 1667.03C2488.82 1498.89 2469.52 1297.88 2445.61 1158.88C2413.82 974.028 2354.41 774.727 2286.67 625.807C2228.55 497.3 2141.71 331.904 1984.55 192.155C1835.07 58.9427 1623.85 -49.8868 1375.83 -123.355C1300.84 -145.568 1222.41 -164.562 1141.38 -180.008C845.89 -237.102 553.985 -200.631 319.388 -77.3073C208.719 -19.6113 114.79 56.8748 47.7509 143.858C-22.3235 234.765 -62.2811 333.794 -71.0106 438.156C-82.1473 579.088 -38.4575 707.798 62.4869 831.615ZM58.0284 148.874C124.529 62.6109 217.657 -13.2328 327.412 -70.4533C559.704 -192.594 848.582 -228.737 1140.84 -172.28C1486.88 -106.369 1783.52 24.4872 1976.17 196.147C2057.9 268.835 2165.85 383.452 2275.75 626.518C2343.27 774.946 2402.51 973.608 2434.2 1157.95C2458.02 1296.42 2477.25 1496.58 2433.57 1663.83C2400.18 1791.67 2338.7 1875.95 2250.8 1914.36C2171.74 1948.9 2075.33 1949.12 1956.07 1915.03C1826.48 1878.02 1669.39 1798.66 1488.97 1679.18C1419.54 1633.21 1342.35 1587.64 1252.95 1539.87C1231.31 1528.29 1208.19 1516.19 1184.2 1503.88C1097.67 1459.47 1006.55 1415.71 918.431 1373.38C762.029 1298.27 600.32 1220.6 457.717 1136.15C282.427 1032.73 156.254 932.252 71.9971 828.915C-27.6044 706.749 -70.7128 579.65 -59.7487 440.399C-50.9955 337.057 -11.3959 238.961 58.0284 148.874Z" fill="#E54651"/>
<path d="M197.634 804.09C275.113 899.529 391.012 991.824 551.989 1086.25C681.031 1162.35 826.917 1231.6 968.065 1298.56C1049.58 1337.23 1133.91 1377.24 1213.78 1418.04C1235.45 1429.1 1256.43 1440.03 1276.08 1450.51C1355.04 1492.58 1426.7 1534.97 1489.14 1576.49C1807.89 1788.52 2037.78 1860 2191.96 1795.02C2273.96 1760.46 2331.82 1683.45 2363.95 1566.05C2405.96 1412.55 2388.69 1229.27 2366.81 1102.52C2337.82 934.351 2283.22 752.309 2220.73 615.496C2167.93 498.986 2089.11 348.995 1946.88 222.197C1810.87 100.627 1617.82 1.09706 1390.75 -66.1638C1324.45 -85.8056 1255.17 -102.703 1183.61 -116.596C915.052 -168.697 649.166 -135.419 434.94 -22.877C334.39 29.9278 248.883 99.5542 187.576 178.454C123.093 261.477 86.2858 351.659 78.1541 446.444C67.1552 574.545 106.266 691.505 197.634 804.09ZM197.921 183.518C258.652 105.326 343.403 36.3286 443.039 -16.0008C654.946 -127.31 917.804 -160.26 1183.1 -108.807C1254.11 -95.0202 1322.78 -78.2759 1388.61 -58.7783C1613.28 7.77317 1804.22 106.173 1938.56 226.235C2012.49 292.136 2110.1 396.016 2209.92 616.265C2272.16 752.55 2326.61 933.99 2355.47 1101.64C2394.92 1330.26 2375.76 1478.62 2352.69 1562.83C2321.05 1678.44 2264.48 1754.14 2184.53 1787.81C2112.54 1818.13 2023.03 1817.46 1914.54 1785.33C1797.6 1750.69 1658.65 1679.49 1495.86 1571.23C1433.02 1529.43 1360.91 1486.78 1281.5 1444.47C1261.74 1433.93 1240.69 1422.97 1218.91 1411.86C1138.82 1370.97 1054.38 1330.9 972.766 1292.17C831.978 1225.37 686.407 1156.29 557.988 1080.57C398.466 986.996 283.74 895.688 207.219 801.412C117.187 690.502 78.6944 575.164 89.5139 448.769C97.6315 354.993 134.081 265.745 197.921 183.518Z" fill="#E54651"/>
<path d="M333.044 776.508C402.636 862.708 506.998 945.856 652.127 1030.71C767.141 1097.96 896.874 1158.67 1022.35 1217.4C1097.35 1252.49 1174.89 1288.78 1248.31 1326.04C1267.89 1335.94 1286.76 1345.74 1304.42 1355.13C1374.65 1392.43 1439.05 1430.61 1495.79 1468.55C1645.07 1568.39 1769.55 1632.55 1876.32 1664.69C1975.97 1694.74 2057.39 1695.94 2125.37 1668.58C2200.52 1638.34 2252.02 1571.78 2282.87 1465.18C2305.03 1388.57 2323.86 1253.7 2287.9 1046.26C2261.68 894.823 2211.89 729.979 2154.67 605.309C2107.19 500.795 2036.37 366.235 1909.03 252.375C1786.26 142.213 1611.73 52.0323 1406.51 -8.75522C1348.55 -25.9251 1288.07 -40.7763 1225.67 -53.0223C983.885 -100.551 744.055 -70.4543 550.331 31.6903C459.98 79.3344 382.866 142.066 327.33 213.162C268.67 288.209 235.012 369.543 227.181 454.929C216.684 570.067 251.291 675.299 333.044 776.508ZM337.696 218.151C392.693 147.776 469.014 85.6617 558.489 38.5041C749.894 -62.4085 986.658 -92.1875 1225.14 -45.3179C1505.39 9.76732 1745.32 116.895 1900.73 256.365C1966.83 315.467 2054.19 408.608 2143.86 606.053C2200.86 730.231 2250.44 894.45 2276.56 1045.35C2312.37 1251.79 2293.64 1385.8 2271.63 1461.88C2241.75 1565.25 2190.07 1632.37 2118.11 1661.34C2053.64 1687.31 1976.24 1686.29 1881.49 1658.22C1880.52 1657.94 1879.54 1657.65 1878.57 1657.36C1773.48 1625.72 1650.47 1562.26 1502.58 1463.34C1445.4 1425.11 1380.55 1386.66 1309.82 1349.11C1292.1 1339.68 1273.12 1329.84 1253.43 1319.88C1179.76 1282.52 1102.11 1246.17 1027.01 1211.02C901.89 1152.45 772.48 1091.89 658.126 1025.03C514.527 941.051 411.368 858.926 342.689 773.902C262.317 674.354 228.284 570.758 238.668 457.239C246.379 372.803 279.686 292.378 337.696 218.151Z" fill="#E54651"/>
<path d="M752.198 975.128C853.337 1033.84 967.276 1086.17 1077.48 1136.8C1145.67 1168.11 1216.14 1200.5 1282.81 1234.03C1300.18 1242.74 1316.99 1251.4 1332.71 1259.74C1394.33 1292.33 1451.44 1326.27 1502.41 1360.58C1756.86 1531.92 1933.61 1589.58 2058.75 1542.12C2125.9 1516.62 2172.68 1458.44 2201.77 1364.24C2222.89 1295.8 2241.29 1175.3 2208.97 989.915C2185.73 856.336 2140.73 708.689 2088.61 594.99C2046.01 502.046 1982.78 382.528 1871.27 282.443C1761.73 183.663 1605.69 102.797 1422.33 48.4828C1372.71 33.7847 1321.05 21.0152 1267.82 10.3917C1052.81 -32.5647 839.004 -5.68502 665.811 86.098C585.658 128.582 516.966 184.454 467.179 247.685C414.386 314.742 383.789 387.256 376.311 463.206C357.577 652.736 477.044 815.432 752.198 975.128ZM673.887 92.9142C844.754 2.38767 1055.45 -24.1854 1267.16 18.1118C1514.15 67.4486 1725.72 162.736 1862.85 286.399C1920.66 338.303 1997.31 420.33 2077.72 595.736C2129.64 708.919 2174.41 855.941 2197.57 988.988C2229.71 1173.31 2211.45 1292.94 2190.52 1360.83C2162.01 1453.23 2116.59 1510.13 2051.61 1534.78C1931.18 1580.49 1758.83 1523.47 1509.21 1355.37C1457.8 1320.75 1400.2 1286.52 1338.1 1253.65C1322.27 1245.26 1305.35 1236.55 1287.87 1227.8C1220.92 1194.13 1150.3 1161.7 1082.01 1130.31C972.157 1079.86 858.585 1027.67 758.137 969.372C487.049 812.026 369.336 651.928 387.664 465.556C402.05 319.563 509.055 180.245 673.887 92.9142Z" fill="#E54651"/>
<path d="M852.205 919.497C939.678 969.793 1038.06 1013.89 1133.22 1056.52C1194.34 1083.92 1257.55 1112.24 1317.26 1141.95C1332.48 1149.49 1347.19 1157.02 1360.95 1164.27C1414.09 1192.24 1463.87 1221.94 1508.93 1252.56C1729.12 1402.13 1882.62 1453.94 1991.99 1415.61C2051.21 1394.85 2093.25 1345.02 2120.55 1263.27C2148.98 1178.15 2152.29 1061.04 2129.9 933.527C2109.46 816.765 2069.28 686.352 2022.4 584.651C1982.71 498.622 1929.22 399.015 1833.32 312.457C1737.01 225.06 1599.46 153.507 1437.95 105.667C1396.72 93.4515 1353.85 82.7523 1309.78 73.7758C1121.54 35.3917 933.799 59.0656 781.1 140.476C634.792 218.449 539.159 342.188 525.244 471.477C507.259 638.55 611.138 780.905 852.205 919.497ZM789.251 147.314C939.624 67.1602 1124.26 43.7932 1309.12 81.4959C1352.73 90.3884 1395.03 100.921 1435.82 113.003C1594.9 160.124 1730.31 230.51 1824.95 316.4C1919.44 401.662 1972.31 500.205 2011.59 585.395C2058.23 686.569 2098.23 816.343 2118.58 932.597C2140.82 1059.24 2137.54 1175.43 2109.39 1259.75C2082.7 1339.66 2042.06 1388.23 1985.15 1408.17C1919.29 1431.28 1798.95 1439.73 1515.84 1247.38C1470.26 1216.42 1419.97 1186.42 1366.34 1158.19C1352.46 1150.88 1337.66 1143.3 1322.29 1135.68C1262.26 1105.83 1198.91 1077.44 1137.64 1049.97C1042.88 1007.51 944.858 963.572 858.113 913.706C621.187 777.486 519.025 637.718 536.663 473.874C550.37 346.388 644.778 224.312 789.251 147.314Z" fill="#E54651"/>
<path d="M738.568 693.821C784.78 752.868 854.649 808.45 952.146 863.793C1026.19 905.821 1109.3 941.846 1189.72 976.672C1243.54 999.997 1299.17 1024.1 1351.63 1049.79C1364.65 1056.15 1377.25 1062.52 1389.09 1068.72C1433.82 1092.1 1476.31 1117.56 1515.4 1144.43C1704 1274.09 1830.37 1318.67 1925.13 1288.99C1976.46 1272.9 2013.77 1231.43 2039.29 1162.21C2066.31 1088.82 2070.39 987.533 2050.82 877.027C2033.17 777.059 1997.79 663.868 1956.17 574.201C1924.2 505.408 1877.07 416.906 1795.35 342.383C1711.83 266.236 1592.66 203.94 1453.19 162.628C1420.41 152.918 1386.55 144.38 1351.72 137.073C1190.3 103.223 1028.57 123.729 896.33 194.756C770.427 262.383 687.353 368.868 674.086 479.614C664.885 556.573 685.98 626.622 738.568 693.821ZM904.511 201.629C968.607 167.182 1039.05 144.689 1113.87 134.79C1190.76 124.601 1270.56 127.984 1350.97 144.82C1530.98 182.551 1685.78 254.124 1786.93 346.339C1829.11 384.79 1885.23 445.548 1945.38 575.029C1986.8 664.156 2021.96 776.722 2039.51 876.182C2058.91 985.758 2054.88 1086.07 2028.18 1158.62C2003.37 1226 1967.53 1266.21 1918.63 1281.52C1879.37 1293.82 1834 1292.4 1780.04 1276.42C1710.25 1255.74 1626.15 1210.68 1522.36 1139.35C1482.75 1112.14 1439.72 1086.33 1394.43 1062.66C1382.45 1056.39 1369.7 1049.95 1356.54 1043.52C1303.72 1017.64 1247.88 993.448 1193.92 970.054C1113.94 935.41 1031.26 899.567 957.979 857.979C755.177 742.874 668.641 623.458 685.545 482.156C698.542 373.142 780.443 268.282 904.511 201.629Z" fill="#E54651"/>
<path d="M1051.96 807.999C1112.88 841.982 1181.07 870.097 1247.02 897.28C1293.2 916.316 1340.94 935.999 1385.87 957.572C1396.71 962.754 1407.22 967.971 1417.13 973.119C1453.66 992.015 1488.85 1013.26 1521.69 1036.23C1677.98 1145.5 1778.58 1183.24 1858.03 1162.35C1901.55 1150.91 1934.2 1117.81 1957.82 1061.14C1983.45 999.625 1988.33 914.164 1971.55 820.476C1956.72 737.251 1926.13 641.258 1889.76 563.698C1861.47 503.377 1823.57 433.441 1757.23 372.269C1686.86 307.397 1586.19 254.366 1468.69 219.561C1444.33 212.345 1419.25 205.902 1393.56 200.316C1256.97 170.571 1124.87 187.405 1011.45 249.005C906 306.274 835.485 395.505 822.868 487.708C806.421 608.093 881.343 712.848 1051.96 807.999ZM1019.65 255.83C1130.63 195.587 1259.59 179.048 1392.66 208.018C1539.34 239.954 1665.79 299.662 1748.79 376.165C1813.79 436.087 1851.09 505.02 1879.01 564.538C1915.13 641.57 1945.51 736.914 1960.25 819.606C1976.84 912.28 1972.07 996.68 1946.79 1057.28C1923.97 1112.06 1892.96 1143.92 1852 1154.68C1777.31 1174.31 1680.63 1137.39 1528.72 1031.17C1495.3 1007.81 1459.49 986.201 1422.37 966.97C1412.31 961.752 1401.64 956.431 1390.65 951.204C1345.28 929.45 1297.33 909.651 1250.94 890.525C1185.42 863.523 1117.71 835.576 1057.66 802.091C977.659 757.475 920.62 712.17 883.322 663.572C841.765 609.421 825.704 552.749 834.237 490.277C846.63 399.792 915.941 312.15 1019.65 255.83Z" fill="#E54651"/>
<path d="M1151.61 752.023C1199.75 778.17 1253.48 798.642 1305.42 818.425C1343.58 832.951 1383 847.987 1420 865.157C1428.7 869.173 1437.1 873.259 1445.02 877.31C1473.91 892.051 1501.01 908.554 1527.83 927.799C1652.94 1017.57 1726.63 1047.77 1790.67 1035.5C1826.61 1028.61 1854.58 1003.88 1876.24 959.873C1900.57 910.448 1906.23 840.781 1892.22 763.716C1880.19 697.151 1854.39 618.38 1823.29 552.988C1800.66 505.431 1770.55 450.275 1719.04 401.97C1661.83 348.325 1579.65 304.5 1484.22 276.234C1468.28 271.512 1451.97 267.214 1435.31 263.399C1325.95 238.226 1219.15 251.949 1126.42 303.074C1041.38 349.972 983.461 421.961 971.492 495.621C955.55 593.689 1014.48 677.556 1151.61 752.023ZM1134.63 309.849C1224.83 260.108 1328.41 246.683 1434.15 271.024C1547.48 297.105 1645.56 344.973 1710.46 405.798C1760.67 452.863 1790.2 507.076 1812.49 553.866C1843.34 618.706 1868.92 696.851 1880.86 762.884C1894.68 838.825 1889.16 907.334 1865.32 955.786C1844.64 997.844 1818.51 1021.36 1785.41 1027.71C1726.15 1039.07 1655.94 1009.67 1535.03 922.894C1507.56 903.193 1479.84 886.294 1450.21 871.174C1442.12 867.019 1433.51 862.842 1424.63 858.745C1387.09 841.311 1347.37 826.186 1308.93 811.523C1257.51 791.92 1204.36 771.674 1157.2 746.083C1024.52 674.028 967.518 592.997 982.862 498.323C994.516 426.275 1051.25 355.801 1134.63 309.849Z" fill="#E54651"/>
<path d="M1251.12 695.738C1287.06 714.408 1326.93 727.549 1365.5 740.253C1395.02 749.983 1425.5 760.025 1453.94 772.446C1460.71 775.412 1466.83 778.263 1472.67 781.194C1493.79 791.685 1513.73 804.068 1533.64 819.026C1619.02 883.12 1669.07 912.844 1722.7 908.369C1751.37 905.988 1774.81 889.64 1794.28 858.416C1817.38 821.366 1823.87 767.455 1812.54 706.64C1799.16 634.453 1768.86 567.434 1756.46 541.962C1739.53 507.179 1717.25 466.839 1680.53 431.392C1636.41 388.794 1572.89 354.119 1499.84 332.482C1492.28 330.243 1484.6 328.129 1476.8 326.164C1394.69 305.465 1313.19 316.076 1241.04 356.801C1191.14 384.979 1133.11 438.228 1119.8 503.12C1104.53 577.724 1148.71 642.538 1251.12 695.738ZM1249.4 363.512C1319.89 323.684 1395.92 313.666 1475.35 333.676C1555.26 353.83 1625.03 389.821 1671.88 435.063C1707.39 469.354 1729.16 508.822 1745.73 542.886C1758 568.083 1787.97 634.418 1801.22 705.82C1812.33 765.317 1806.08 817.885 1783.67 853.834C1765.7 882.623 1743.93 898.267 1718.89 900.338C1704.49 901.537 1690.34 899.983 1675.37 895.549C1639.94 885.052 1599.96 858.419 1541.11 814.259C1520.43 798.751 1499.73 785.904 1477.74 774.965C1471.67 771.942 1465.27 768.953 1458.21 765.85C1429.03 753.074 1398.13 742.909 1368.24 733.069C1330.33 720.589 1291.14 707.672 1256.43 689.635C1158.74 638.901 1116.64 577.126 1131.19 506.016C1144.07 442.885 1200.71 391.012 1249.4 363.512Z" fill="#E54651"/>
<path d="M1350.5 638.776C1374.72 650.296 1401.31 656.331 1427.01 662.161C1447.42 666.792 1468.55 671.586 1487.87 679.067C1492.32 680.786 1496.33 682.507 1500.22 684.352C1514.1 690.942 1526.49 698.875 1539.13 709.363C1546.97 715.87 1554.04 721.853 1560.86 727.66C1595.59 757.187 1618.51 776.688 1653.82 780.326C1675.11 782.527 1695.75 773.985 1711.97 756.348C1740.36 725.368 1738.88 680.745 1732.67 648.792C1723.57 601.616 1701.67 554.195 1689.43 530.127C1678.28 508.251 1663.96 482.82 1641.91 460.087C1612.6 429.871 1571.08 405.711 1518.56 388.29C1516.52 387.606 1514.51 386.983 1512.45 386.374C1460.59 371.011 1407.82 378.886 1355.48 409.781C1321.35 429.919 1280.47 466.792 1267.98 509.784C1252.99 561.361 1281.53 605.981 1350.5 638.776ZM1363.89 416.43C1415.25 386.097 1466.27 379.037 1515.78 395.462C1565.78 412.057 1605.19 434.953 1632.89 463.49C1653.97 485.218 1667.87 509.882 1678.66 531.149C1690.73 554.87 1712.3 601.608 1721.27 647.998C1727.25 678.767 1728.73 721.605 1701.85 750.926C1687.54 766.517 1670.11 774.118 1652.77 772.339C1622.75 769.256 1602.5 751.986 1568.88 723.423C1562.02 717.581 1554.93 711.563 1547.02 705.01C1533.39 693.723 1520.01 685.15 1504.88 677.976C1500.63 675.947 1496.23 674.055 1491.33 672.178C1470.81 664.233 1449.03 659.301 1428.02 654.516C1402.12 648.631 1377.63 643.083 1355.19 632.411C1290.65 601.726 1265.1 561.564 1279.14 513.063C1291.21 471.601 1330.84 435.954 1363.89 416.43Z" fill="#E54651"/>
<path d="M1450.79 579.844C1464.42 584.79 1478.71 583.85 1492.49 582.924C1503.45 582.2 1513.79 581.505 1522.91 583.724C1524.84 584.192 1526.63 584.773 1528.33 585.465C1544.26 592.022 1548.59 602.285 1553.58 614.157C1558.61 626.04 1564.26 639.52 1583.63 649.283C1598.16 656.596 1616.84 657.973 1629.02 652.574C1651.84 642.463 1659.95 620.987 1653.1 588.736C1648.75 568.258 1638.5 543.769 1622.63 515.99C1602.52 480.824 1582.98 459.392 1561.12 448.522C1557.01 446.476 1552.81 444.834 1548.58 443.582C1524.3 436.388 1497.98 442.103 1470.09 460.679C1463.75 464.904 1431.38 487.324 1416.62 513.944C1407.78 529.926 1407.34 544.054 1415.28 555.975C1421.86 565.652 1433.77 573.683 1450.79 579.844ZM1427.47 518.277C1438.41 498.518 1462.04 478.363 1478.94 467.084C1508.25 447.545 1533.55 443.498 1556.14 454.749C1575.13 464.183 1593.44 484.665 1612.13 517.357C1627.63 544.467 1637.6 568.235 1641.79 588.025C1648.03 617.378 1641.17 636.692 1621.45 645.427C1614.66 648.426 1604.68 648.455 1595.74 645.805C1593.3 645.085 1590.93 644.168 1588.73 643.065C1573.75 635.509 1569.26 624.85 1564.5 613.579C1559.33 601.336 1553.48 587.423 1532.21 578.698C1529.67 577.653 1527 576.781 1524.19 576.108C1512.56 573.304 1500.52 574.108 1488.86 574.864C1476.15 575.711 1464.15 576.501 1453.93 572.807C1440.03 567.784 1430.47 561.46 1425.48 553.985C1419.01 544.342 1419.69 532.309 1427.47 518.277Z" fill="#E54651"/>
</g>
</svg>
