<svg width="1440" height="1024" viewBox="0 0 1440 1024" fill="none" xmlns="http://www.w3.org/2000/svg">
<path d="M2751.65 -246.985C2676.3 -370.104 2540.64 -450.313 2336.94 -492.227C2168.65 -526.856 1949.22 -535.18 1666.15 -517.668C1428.28 -502.945 1169.05 -471.913 918.359 -441.885C623.738 -406.614 319.051 -370.12 54.8333 -361.278C-422.171 -345.289 -760.798 -277.769 -951.614 -160.617C-1117.23 -58.9546 -1170.81 78.2966 -1110.79 247.321C-1050.44 417.369 -888.402 580.712 -763.102 687.808C-616.166 813.396 -434.881 933.5 -278.123 1009.08C-126.288 1082.31 84.3163 1169.15 367.654 1190.9C550.708 1204.95 761.835 1192.08 995.163 1152.62C1096.57 1135.48 1200.22 1113.71 1305.47 1087.47C1418.81 1059.21 1533.96 1025.79 1650.07 987.398C1856.27 919.223 2045.74 831.586 2213.13 726.944C2371.45 627.989 2503.02 518.449 2604.17 401.399C2806.67 167.049 2860.43 -69.2742 2751.65 -246.985ZM2594.36 400.838C2493.84 517.151 2363.1 625.994 2205.81 724.292C2039.66 828.154 1851.65 915.119 1647.02 982.776C1424.27 1056.42 1205.11 1111.72 995.653 1147.14C764.03 1186.29 554.506 1199.08 372.914 1185.14C225.09 1173.79 18.5062 1142.97 -269.24 1004.2C-425.606 928.796 -606.515 808.96 -753.16 683.607C-878.164 576.764 -1039.79 413.826 -1099.96 244.367C-1159.28 77.1983 -1106.97 -58.1426 -944.475 -157.902C-869.233 -204.083 -770.405 -242.425 -648.47 -272.827C-466.095 -318.298 -232.08 -345.998 51.4408 -355.484C316.539 -364.365 621.68 -400.9 916.751 -436.229C1167.14 -466.218 1426.03 -497.202 1663.33 -511.892C1948.8 -529.566 2160.64 -521.562 2330.04 -486.7C2531.86 -445.17 2666.31 -365.637 2741.02 -243.536C2849.12 -66.9804 2795.65 167.891 2594.36 400.838Z" fill="#F0F757"/>
<path d="M2233.78 -420.655C2075.81 -453.326 1870.05 -461.126 1604.8 -444.486C1383.23 -430.638 1141.99 -401.37 908.697 -373.09C789.368 -358.617 666.018 -343.666 547.541 -331.053C512.786 -327.354 479.124 -323.927 447.495 -320.88C312.63 -307.879 197.324 -299.935 94.877 -296.594C-447.548 -278.683 -796.885 -190.333 -943.485 -33.9675C-1022.05 50.1042 -1040.83 152.961 -999.364 271.771C-958.37 391.024 -855.166 526.211 -700.981 662.714C-557.712 789.579 -377.13 911.055 -217.945 987.682C-75.7153 1056.21 121.552 1137.52 386.769 1157.99C634.163 1177.12 938.412 1143.21 1265.57 1061.65C1370.78 1035.41 1478.43 1004.22 1587.27 968.314C1777.78 905.5 1953.09 824.872 2108.38 728.666C2255.43 637.561 2378.4 536.492 2473.91 428.221C2670.98 205.01 2724.83 -20.4232 2621.65 -190.286C2551.26 -305.907 2424.39 -381.259 2233.78 -420.655ZM2464.12 427.582C2369.27 535.124 2247.14 635.513 2101.13 725.961C1947.08 821.405 1773.19 901.37 1584.25 963.665C1375.88 1032.44 1170.81 1084.06 974.803 1117.05C758.108 1153.53 562.043 1165.36 392.062 1152.21C253.769 1141.52 60.4368 1112.63 -209.029 982.777C-367.782 906.332 -547.947 785.132 -690.957 658.529C-844.74 522.397 -947.607 387.633 -988.49 268.824C-1029.58 151.19 -1011.19 49.5721 -933.883 -33.1716C-861.656 -110.226 -738.523 -170.432 -565.693 -213.523C-394.83 -256.124 -175.331 -281.981 91.4845 -290.8C194.317 -294.147 310.078 -302.131 445.396 -315.173C477.098 -318.238 510.838 -321.666 545.67 -325.367C664.26 -337.99 787.724 -352.951 907.125 -367.443C1140.11 -395.701 1381.02 -424.921 1601.98 -438.726C1865.7 -455.276 2070.09 -447.55 2226.84 -415.136C2415.58 -376.107 2541.23 -301.449 2610.96 -186.879C2713.47 -18.1715 2659.95 205.784 2464.12 427.582Z" fill="#F0F757"/>
<path d="M2314.48 -381.463C2156.51 -414.134 1950.75 -421.934 1685.5 -405.294C1463.93 -391.446 1222.69 -362.179 989.396 -333.899C870.067 -319.425 746.717 -304.474 628.241 -291.862C593.485 -288.162 559.823 -284.735 528.194 -281.688C393.33 -268.687 278.023 -260.743 175.576 -257.402C-366.849 -239.492 -716.186 -151.141 -862.786 5.22419C-941.35 89.2959 -960.128 192.153 -918.665 310.962C-877.671 430.216 -774.467 565.402 -620.282 701.905C-477.013 828.77 -296.431 950.246 -137.246 1026.87C4.98373 1095.4 202.251 1176.71 467.468 1197.18C714.862 1216.31 1019.11 1182.4 1346.26 1100.84C1451.48 1074.6 1559.13 1043.41 1667.97 1007.51C1858.48 944.691 2033.79 864.064 2189.08 767.857C2336.13 676.752 2459.1 575.683 2554.61 467.413C2751.68 244.202 2805.53 18.7683 2702.35 -151.094C2631.96 -266.716 2505.09 -342.068 2314.48 -381.463ZM2544.82 466.774C2449.97 574.316 2327.84 674.705 2181.83 765.153C2027.78 860.596 1853.89 940.562 1664.95 1002.86C1456.58 1071.63 1251.51 1123.25 1055.5 1156.24C838.807 1192.73 642.742 1204.55 472.761 1191.4C334.468 1180.72 141.136 1151.82 -128.33 1021.97C-287.083 945.523 -467.248 824.324 -610.258 697.721C-764.041 561.589 -866.907 426.825 -907.791 308.016C-948.884 190.382 -930.493 88.7637 -853.184 6.01999C-780.957 -71.0344 -657.824 -131.24 -484.994 -174.331C-314.131 -216.932 -94.632 -242.789 172.184 -251.608C275.016 -254.955 390.777 -262.94 526.096 -275.981C557.797 -279.047 591.537 -282.475 626.369 -286.176C744.959 -298.798 868.423 -313.759 987.824 -328.251C1220.81 -356.51 1461.72 -385.729 1682.68 -399.535C1946.4 -416.084 2150.79 -408.359 2307.54 -375.944C2496.28 -336.916 2621.93 -262.257 2691.66 -147.688C2794.17 21.02 2740.65 244.976 2544.82 466.774Z" fill="#F0F757"/>
<path d="M2130.55 -349.081C1982.89 -379.793 1790.81 -387.052 1543.37 -371.301C1337.99 -358.318 1114.65 -330.831 898.654 -304.254C785.834 -290.37 669.183 -276.02 557.174 -264.006C524.69 -260.51 493.294 -257.304 463.823 -254.45C338.533 -242.314 230.941 -234.935 134.921 -231.891C-128.525 -223.368 -345.045 -196.894 -508.687 -153.267C-658.462 -113.314 -767.728 -58.0155 -833.493 11.1209C-907.091 89.0425 -925.396 184.949 -887.907 296.195C-840.024 438.27 -710.548 573.757 -610.32 662.401C-476.476 780.796 -307.301 894.387 -157.743 966.238C-25.1148 1030.09 158.806 1105.83 405.868 1125.02C637.238 1143.06 921.749 1111.47 1227.48 1035.22C1324.64 1011 1424 982.252 1524.45 949.161C1702.34 890.672 1866.05 815.493 2011.02 725.702C2148.45 640.582 2263.43 545.963 2352.72 444.52C2536.66 236.018 2587.25 25.2976 2491.51 -133.644C2426.11 -241.682 2308.04 -312.16 2130.55 -349.081ZM2342.97 443.923C2254.28 544.656 2140.17 638.552 2003.78 723.049C1860.08 812.068 1697.8 886.602 1521.48 944.555C1421.57 977.475 1322.82 1006.05 1226.17 1030.15C922.772 1105.79 640.496 1137.19 411.136 1119.31C282.374 1109.29 102.327 1082.3 -148.892 961.385C-298.018 889.717 -466.812 776.411 -600.324 658.26C-700.257 569.868 -829.359 434.795 -877.057 293.309C-914.143 183.212 -896.298 88.5627 -823.988 11.9951C-759.968 -55.2927 -653.333 -109.192 -507.078 -148.213C-499.494 -150.23 -491.824 -152.215 -484.028 -154.159C-324.969 -193.817 -118.092 -217.995 131.488 -226.105C227.929 -229.164 335.944 -236.558 461.724 -248.744C491.273 -251.598 522.778 -254.832 555.303 -258.32C667.462 -270.353 784.226 -284.713 897.123 -298.599C1112.81 -325.137 1335.83 -352.577 1540.59 -365.534C1786.5 -381.194 1977.21 -373.993 2123.61 -343.545C2299.23 -307.008 2416.11 -237.233 2480.88 -130.178C2575.94 27.5914 2525.64 236.843 2342.97 443.923Z" fill="#F0F757"/>
<path d="M2027.4 -277.475C1890.1 -306.221 1711.69 -312.956 1482.02 -298.102C1292.76 -285.983 1087.2 -260.266 888.387 -235.399C782.19 -222.115 672.389 -208.385 566.925 -196.97C536.821 -193.705 507.655 -190.71 480.269 -188.032C364.439 -176.751 264.598 -169.945 175.042 -167.207C-69.1708 -159.456 -269.776 -135.266 -421.184 -95.3406C-560.284 -58.6654 -661.955 -7.6713 -723.448 56.2497C-792.407 127.94 -810.203 216.887 -776.356 320.669C-733.031 453.622 -612.775 579.754 -519.559 662.155C-395.214 772.098 -237.415 877.778 -97.4425 944.86C25.5803 1004.02 196.164 1074.22 425.069 1092.14C640.421 1109.1 905.184 1079.78 1189.49 1008.9C1278.6 986.679 1369.71 960.357 1461.73 930.11C1785.63 823.998 2059.07 657.375 2231.66 460.911C2313.83 367.695 2369.42 270.159 2392.43 178.843C2416.41 83.6773 2406.02 -2.37462 2361.55 -76.9024C2301.08 -177.452 2191.77 -243.046 2027.4 -277.475ZM2381.44 180.259C2358.61 270.913 2303.43 367.749 2221.83 460.298C2050.66 655.141 1779.65 820.343 1458.72 925.461C1075.85 1051.3 710.609 1108.45 430.288 1086.38C311.062 1077.05 144.298 1051.98 -88.6407 939.965C-228.176 873.082 -385.562 767.662 -509.608 657.988C-602.565 575.849 -722.402 450.156 -765.547 317.774C-798.982 215.177 -781.647 127.487 -713.98 57.1331C-654.267 -4.93024 -555.268 -54.5334 -419.652 -90.2853C-269.92 -129.793 -71.0209 -153.685 171.576 -161.395C261.596 -164.14 361.855 -170.977 478.138 -182.3C505.606 -184.962 534.844 -187.974 565.058 -191.266C670.708 -202.711 780.623 -216.45 886.897 -229.736C1085.37 -254.555 1290.6 -280.224 1479.25 -292.317C1707.35 -307.089 1884.38 -300.428 2020.42 -271.929C2182.96 -237.894 2291.05 -172.976 2350.84 -73.4527C2394.92 0.446951 2405.22 85.8152 2381.44 180.259Z" fill="#F0F757"/>
<path d="M2098.11 -233.002C1960.81 -261.748 1782.4 -268.484 1552.73 -253.629C1363.47 -241.51 1157.91 -215.793 959.096 -190.926C852.899 -177.642 743.097 -163.912 637.633 -152.497C607.529 -149.232 578.364 -146.237 550.977 -143.559C435.148 -132.278 335.307 -125.472 245.75 -122.734C1.53739 -114.983 -199.068 -90.7925 -350.476 -50.8675C-489.576 -14.1923 -591.247 36.8018 -652.74 100.723C-721.7 172.414 -739.496 261.36 -705.649 365.142C-662.323 498.095 -542.067 624.227 -448.851 706.628C-324.506 816.571 -166.707 922.251 -26.7344 989.333C96.2885 1048.5 266.872 1118.7 495.777 1136.62C711.129 1153.57 975.892 1124.26 1260.2 1053.37C1349.31 1031.15 1440.42 1004.83 1532.44 974.583C1856.34 868.472 2129.78 701.848 2302.37 505.384C2384.54 412.168 2440.13 314.632 2463.13 223.316C2487.12 128.15 2476.73 42.0982 2432.26 -32.4295C2371.79 -132.979 2262.48 -198.573 2098.11 -233.002ZM2452.15 224.732C2429.32 315.386 2374.14 412.222 2292.54 504.771C2121.37 699.614 1850.36 864.816 1529.43 969.934C1146.56 1095.77 781.318 1152.92 500.997 1130.86C381.77 1121.53 215.006 1096.45 -17.9326 984.438C-157.468 917.556 -314.854 812.135 -438.9 702.461C-531.858 620.323 -651.694 494.629 -694.839 362.247C-728.275 259.65 -710.939 171.96 -643.272 101.606C-583.56 39.5429 -484.56 -10.0603 -348.945 -45.8122C-199.212 -85.3195 -0.312724 -109.212 242.285 -116.922C332.304 -119.667 432.563 -126.504 548.846 -137.827C576.315 -140.489 605.553 -143.501 635.766 -146.794C741.417 -158.238 851.331 -171.977 957.606 -185.263C1156.08 -210.082 1361.31 -235.751 1549.96 -247.844C1778.06 -262.616 1955.09 -255.955 2091.13 -227.457C2253.67 -193.421 2361.76 -128.503 2421.55 -28.9799C2465.63 44.9199 2475.93 130.288 2452.15 224.732Z" fill="#F0F757"/>
<path d="M1924.21 -205.877C1797.27 -232.656 1632.53 -238.885 1420.64 -224.893C1247.34 -213.619 1059.41 -189.67 877.706 -166.495C778.244 -153.821 675.41 -140.705 576.605 -129.898C548.845 -126.855 521.95 -124.064 496.603 -121.587C390.235 -111.16 298.181 -104.936 215.088 -102.505C-9.81927 -95.5441 -194.505 -73.6192 -333.606 -37.4149C-461.881 -4.03692 -556.035 42.6543 -613.451 101.354C-677.681 167.027 -695 249.04 -664.894 345.11C-626.126 468.941 -515.131 585.711 -428.887 661.875C-314.004 763.358 -167.576 861.144 -37.2667 923.458C76.1508 977.932 233.397 1042.59 444.146 1059.24C643.475 1075.1 888.499 1048.09 1151.39 982.549C1232.48 962.33 1315.26 938.447 1398.89 911.034C1698.24 813.382 1950.94 659.342 2110.45 477.286C2186.17 391.277 2237.57 301.164 2259 216.695C2281.37 128.547 2272.1 48.8495 2231.4 -20.1841C2176.01 -113.212 2075.5 -173.949 1924.21 -205.877ZM2248.16 218.074C2226.88 301.891 2175.92 391.296 2100.77 476.654C1942.68 657.072 1692.4 809.69 1396.03 906.366C1043.92 1021.78 707.752 1074.02 449.52 1053.48C339.824 1044.82 186.344 1021.65 -28.347 918.57C-158.301 856.439 -304.271 758.938 -418.859 657.708C-504.84 581.822 -615.42 465.474 -653.999 342.248C-683.734 247.355 -666.871 166.615 -603.933 102.28C-548.302 45.4204 -456.82 0.120182 -332.039 -32.3688C-194.572 -68.1472 -11.6008 -89.8079 211.691 -96.7287C295.211 -99.1571 387.755 -105.431 494.577 -115.898C520.002 -118.377 546.969 -121.186 574.806 -124.23C673.798 -135.065 776.746 -148.192 876.285 -160.867C1057.69 -183.986 1245.29 -207.905 1417.93 -219.144C1628.26 -233.036 1791.58 -226.89 1917.26 -200.375C2066.71 -168.857 2166 -108.796 2220.82 -16.805C2261.14 51.6348 2270.32 130.649 2248.16 218.074Z" fill="#F0F757"/>
<path d="M1821.12 -134.193C1704.53 -159.022 1553.47 -164.711 1359.35 -151.616C1201.94 -141.203 1031.49 -118.985 866.658 -97.4985C774.086 -85.4369 678.333 -72.9444 586.336 -62.766C560.883 -59.9358 536.219 -57.3567 513.029 -55.0726C417.44 -45.6476 333.105 -39.9711 255.189 -37.7256C49.914 -31.7991 -118.796 -12.2262 -245.866 20.3982C-363.334 50.5564 -449.962 92.9788 -503.398 146.536C-562.93 206.217 -579.776 281.28 -553.412 369.637C-519.214 484.296 -417.472 591.737 -338.16 661.674C-232.701 754.687 -97.6807 844.588 23.0015 902.126C126.854 951.916 270.722 1011.03 463.31 1026.39C646.621 1041.16 871.901 1016.46 1113.37 956.254C1186.38 938.051 1260.93 916.581 1336.18 892.002C1610.93 802.801 1842.9 661.361 1989.4 493.713C2058.71 414.902 2105.85 332.213 2125.73 254.598C2146.53 173.477 2138.34 100.125 2101.41 36.6022C2050.99 -48.9108 1959.28 -104.774 1821.12 -134.193ZM2114.89 255.96C2095.16 332.94 2048.42 414.929 1979.68 493.09C1834.64 659.108 1605.1 799.109 1333.35 887.342C1012.01 992.346 704.95 1039.67 468.725 1020.64C368.56 1012.64 228.369 991.397 31.9533 897.212C-88.333 839.865 -222.932 750.258 -328.095 657.497C-407.108 587.83 -508.427 480.845 -542.436 366.792C-568.429 279.61 -552.112 205.839 -493.908 147.505C-441.555 95.0332 -359.917 55.1052 -244.334 25.4534C-118.759 -6.79856 48.1282 -26.08 251.829 -31.9582C330.203 -34.2274 414.996 -39.9276 511.076 -49.4025C534.343 -51.6876 559.081 -54.2849 584.647 -57.1252C676.866 -67.3411 772.697 -79.8347 865.382 -91.9065C1029.87 -113.345 1199.95 -135.507 1356.71 -145.884C1549.24 -158.872 1698.88 -153.265 1814.2 -128.717C1950.53 -99.6914 2041.06 -44.5134 2090.91 39.9632C2127.38 102.91 2135.48 175.578 2114.89 255.96Z" fill="#F0F757"/>
<path d="M1718.24 -62.5993C1612.02 -85.4115 1474.56 -90.5587 1297.99 -78.3219C1156.27 -68.7417 1003.18 -48.2794 855.083 -28.4621C769.556 -17.0149 681.069 -5.17437 596.035 4.37354C572.963 6.97269 550.533 9.35715 529.424 11.4487C444.617 19.8889 365.863 25.1345 295.299 27.0693C-64.9815 36.9185 -290.23 90.7776 -393.336 191.733C-448.171 245.422 -464.508 313.525 -441.881 394.188C-412.294 499.666 -319.808 597.762 -247.419 661.504C-151.414 746.091 -27.8097 828.073 83.2823 880.825C177.53 925.924 308.06 979.502 482.492 993.589C649.426 1007.24 855.356 984.698 1076.42 929.58C1140.98 913.485 1206.89 894.587 1273.45 873.026C1523.24 792.077 1734.51 663.211 1868.32 510.162C1931.13 438.337 1974.04 363.063 1992.5 292.455C2011.9 218.169 2004.8 151.197 1971.44 93.4201C1926.35 15.3309 1843.52 -35.6763 1718.24 -62.5993ZM1981.58 293.819C1963.31 363.782 1920.77 438.382 1858.53 509.557C1726.17 660.942 1517.33 788.369 1270.57 868.341C1204.52 889.741 1139.19 908.476 1075.1 924.454C856.37 978.99 652.707 1001.32 487.83 987.836C397.16 980.521 270.288 961.172 92.1206 875.921C-18.5348 823.368 -141.758 741.672 -237.432 657.329C-367.985 542.354 -414.761 449.263 -430.969 391.395C-453.253 311.952 -437.445 245.14 -383.975 192.807C-335.824 145.678 -259.656 109.107 -154.042 82.7749C-40.1939 54.3895 107.848 37.9035 291.83 32.864C362.856 30.9225 442.105 25.6442 527.402 17.1542C548.625 15.0524 571.128 12.6497 594.314 10.0404C679.57 0.455064 768.171 -11.3957 853.812 -22.853C1001.54 -42.6136 1154.29 -63.0454 1295.32 -72.5815C1470.29 -84.7098 1606.34 -79.645 1711.25 -57.1052C1834.68 -30.5925 1916.3 19.7386 1960.82 96.7742C1993.77 153.967 2000.78 220.255 1981.58 293.819Z" fill="#F0F757"/>
<path d="M1615.16 9.13459C1519.55 -11.6291 1395.76 -16.287 1236.69 -5.0971C1110.62 3.77102 974.855 22.4699 843.54 40.5486C765.052 51.3642 683.906 62.5345 605.835 71.4519C585.033 73.8473 564.87 76.011 545.918 77.909C470.531 85.4866 399.719 90.1475 335.505 91.7859C166.548 96.0881 33.7713 110.635 -70.3936 136.261C-167.641 160.145 -237.173 193.068 -283.182 236.835C-334.038 285.218 -349.431 344.695 -330.299 418.635C-316.548 471.77 -275.22 556.977 -156.627 661.232C-70.0834 737.358 42.1493 811.446 143.61 859.404C228.252 899.812 345.44 947.836 501.753 960.641C652.628 973.208 838.887 952.938 1038.68 903.125C1095.11 889.055 1152.69 872.614 1210.79 853.888C1435.95 781.366 1626.48 665.083 1747.32 526.467C1803.68 461.814 1842.4 393.964 1859.29 330.219C1877.14 262.916 1871.13 202.324 1841.5 150.067C1801.49 79.6283 1727.45 33.4952 1615.16 9.13459ZM1848.38 331.634C1831.65 394.743 1793.33 461.911 1737.51 525.922C1618.11 662.874 1430.04 777.709 1207.96 849.245C946.985 933.308 698.087 970.845 507.099 954.922C425.96 948.275 312.341 930.86 152.453 854.517C51.3878 806.751 -60.3913 732.929 -146.635 657.073C-264.675 553.332 -305.716 468.653 -319.374 415.893C-337.944 344.205 -322.649 284.336 -273.954 237.996C-230.326 196.472 -164.276 165.106 -72.0318 142.107C-71.0846 141.871 -70.1374 141.635 -69.1902 141.398C33.3353 116.18 164.576 101.836 331.958 97.5817C396.671 95.9276 467.979 91.2339 543.892 83.5974C562.922 81.6983 583.194 79.5073 604.109 77.1017C682.439 68.1378 763.699 56.9572 842.3 46.1315C973.243 28.1095 1108.67 9.45825 1234.02 0.643314C1391.42 -10.42 1513.75 -5.85254 1608.09 14.6127C1718.51 38.5891 1791.36 84.02 1830.78 153.483C1860.1 205.145 1866.03 265.07 1848.38 331.634Z" fill="#F0F757"/>
<path d="M1175.46 68.1266C1064.78 76.1665 945.967 93.1589 831.033 109.582C759.93 119.752 686.432 130.248 615.669 138.521C597.248 140.686 579.319 142.655 562.448 144.36C496.368 151.086 433.538 155.17 375.751 156.511C87.2693 163.175 -87.0631 203.034 -172.99 281.946C-219.08 324.302 -234.03 377.017 -218.674 443.108C-207.514 491.126 -171.925 567.904 -65.788 661.002C10.65 728.103 111.511 794.297 203.994 838.06C279.587 873.837 383.95 916.359 520.997 927.788C655.817 939.283 822.446 921.298 1000.96 876.79C1049.27 864.745 1098.48 850.753 1148.12 834.879C1348.64 770.783 1518.47 667.091 1626.31 542.899C1676.22 485.42 1710.72 424.985 1726.07 368.128C1742.34 307.834 1737.48 253.57 1711.56 206.877C1646.94 90.3252 1476.55 46.2305 1175.46 68.1266ZM1616.57 542.319C1510.17 664.83 1342.84 767.065 1145.4 830.175C915.058 903.808 695.234 936.433 526.452 922.042C455.397 916.107 355.578 900.652 212.905 833.138C120.823 789.583 20.415 723.656 -55.7237 656.825C-161.262 564.267 -196.597 488.042 -207.695 440.425C-222.773 375.606 -208.429 324.183 -163.813 283.21C-81.1369 207.247 89.1851 168.841 372.204 162.307C430.494 160.967 493.856 156.841 560.467 150.074C577.452 148.358 595.494 146.379 614.025 144.187C685.088 135.875 758.732 125.343 829.952 115.18C944.509 98.7963 1062.96 81.8778 1172.87 73.883C1469.52 52.316 1637.31 95.6429 1700.93 210.214C1750.75 299.974 1719.21 424.135 1616.57 542.319Z" fill="#F0F757"/>
<path d="M1114.31 141.35C1018.79 148.582 916.659 163.88 817.883 178.685C754.428 188.181 688.814 198.016 625.582 205.608C609.468 207.559 593.806 209.307 579.055 210.828C522.128 216.703 467.317 220.202 416.106 221.226C165.911 226.246 13.7821 259.863 -62.6536 327.02C-104.047 363.384 -118.513 409.345 -106.941 467.554C-94.887 528.162 -47.948 596.764 25.1946 660.736C92.1217 719.334 181.571 777.627 264.517 816.663C334.7 849.674 422.354 884.782 540.421 894.89C659.185 905.314 806.185 889.613 963.422 850.409C1003.57 840.4 1044.45 828.847 1085.63 815.808C1261.51 760.139 1410.61 669.047 1505.48 559.27C1596.39 454.105 1624.91 343.584 1581.79 263.608C1526.07 160.26 1377.54 121.409 1114.31 141.35ZM1495.67 558.709C1402.23 666.804 1255.64 756.439 1082.91 811.104C1042.16 823.999 1001.82 835.416 962.113 845.317C807.244 883.93 662.552 899.418 545.844 889.17C429.521 879.225 342.845 844.472 273.359 811.776C190.85 772.939 101.822 714.94 35.1903 656.594C-37.4561 593.061 -84.0275 525.002 -95.9778 464.966C-107.3 408.072 -93.4755 363.412 -53.7022 328.467C-7.67943 288.013 90.7483 233.478 412.45 227.049C464.237 226.008 519.62 222.476 577.075 216.542C591.939 215.011 607.714 213.252 623.978 211.281C687.547 203.642 753.311 193.787 816.915 184.272C915.282 169.534 1017.04 154.292 1111.76 147.114C1370.47 127.52 1516.45 165.594 1571.09 266.946C1613.62 345.8 1585.44 454.862 1495.67 558.709Z" fill="#F0F757"/>
<path d="M1306.5 224.012C1242.25 209.186 1159.41 206.117 1053.25 214.589C972.624 221.025 886.865 234.651 803.903 247.85C748.369 256.676 690.975 265.803 635.582 272.709C621.848 274.43 608.458 275.974 595.787 277.303C547.939 282.346 501.11 285.268 456.554 285.974C241.597 289.385 115.534 315.959 47.8097 372.118C11.1268 402.541 -2.89327 441.758 4.88211 492.033C13.1385 545.324 52.7069 605.161 116.236 660.528C173.656 710.641 251.73 761.023 325.098 795.324C381.419 821.625 458.967 852.981 559.899 862.033C663.045 871.276 790.529 857.85 926.308 823.996C958.222 816.039 990.553 806.963 1023.19 796.778C1174.41 749.578 1302.8 671.044 1384.74 575.673C1462.75 484.872 1487.94 389.44 1452.15 320.379C1427.26 272.395 1379.63 240.885 1306.5 224.012ZM1374.88 575.104C1335.18 621.341 1285.01 663.336 1225.79 699.903C1164.93 737.496 1095.85 768.494 1020.53 792.022C851.903 844.668 690.269 867.479 565.354 856.287C513.267 851.622 439.881 839.906 333.892 790.395C260.928 756.319 183.308 706.205 126.182 656.345C63.1946 601.44 24.0021 542.18 15.8218 489.505C8.22829 440.58 21.5371 402.7 56.4909 373.723C84.548 350.453 123.614 332.539 176.148 319.441C244.093 302.5 334.525 293.654 452.812 291.764C497.945 291.041 545.386 288.093 593.838 282.99C606.659 281.642 620.2 280.078 634.083 278.338C689.854 271.393 747.47 262.229 803.154 253.383C885.671 240.259 970.984 226.708 1050.77 220.335C1271.59 202.704 1395.67 235.544 1441.36 323.65C1476.64 391.606 1451.75 485.62 1374.88 575.104Z" fill="#F0F757"/>
<path d="M992.332 287.826C926.252 293.463 856.498 305.472 789.045 317.089C741.812 325.222 692.984 333.627 645.725 339.792C634.336 341.29 623.216 342.631 612.626 343.767C573.63 347.998 534.78 350.327 497.181 350.694C318.27 352.476 216.962 372.334 158.477 417.127C126.44 441.662 112.83 474.143 116.873 516.432C121.274 562.329 153.435 613.411 207.453 660.276C255.376 701.937 322.078 744.425 385.856 773.941C435.461 796.896 497.294 821.405 579.517 829.141C666.73 837.336 774.592 826.229 888.986 797.707C912.703 791.794 936.7 785.14 960.858 777.739C1089.28 738.434 1194.12 674.235 1264.1 592.05C1329.17 515.638 1351.05 435.297 1322.58 377.15C1285.39 301.242 1177.38 272.026 992.332 287.826ZM1254.26 591.515C1185.76 671.915 1083.46 734.648 958.347 772.946C820.435 815.161 687.88 833.078 585.017 823.42C504.46 815.848 443.561 791.668 394.613 769.021C331.272 739.704 265.027 697.501 217.404 656.11C163.976 609.75 132.171 559.322 127.859 514.092C123.938 473.222 136.695 442.132 166.849 419.045C221.825 376.939 319.472 358.229 493.367 356.502C531.618 356.117 571.155 353.745 610.795 349.461C621.535 348.306 632.845 346.954 644.381 345.419C692.085 339.179 741.141 330.754 788.596 322.583C855.603 311.042 924.88 299.134 990.011 293.57C1076.78 286.163 1144.38 288.629 1196.64 301.134C1254.87 315.07 1292.55 340.978 1311.86 380.369C1339.78 437.436 1318.25 516.368 1254.26 591.515Z" fill="#F0F757"/>
<path d="M931.626 361.102C879.709 365.963 825.464 376.389 773.03 386.472C734.517 393.881 694.708 401.523 656.047 406.94C646.964 408.225 638.111 409.345 629.678 410.288C598.927 413.75 568.939 415.464 538.027 415.487C393.833 415.59 318.541 428.672 269.463 462.149C241.915 480.943 228.716 506.689 229.041 540.897C229.411 579.318 254.206 621.652 298.816 660.115C337.289 693.367 392.617 727.944 446.759 752.649C486.142 770.613 535.091 789.853 599.276 796.323C670.564 803.504 758.851 794.74 851.75 771.578C867.27 767.708 882.923 763.443 898.665 758.757C1002.07 728.064 1086.78 676.097 1143.67 608.466C1195.85 546.433 1214.37 481.192 1193.23 433.96C1165.09 371.073 1079.51 347.247 931.626 361.102ZM1133.84 607.964C1078.5 673.758 996.391 724.224 896.409 753.901C789.258 785.709 685.777 798.715 604.926 790.582C542.371 784.286 494.31 765.35 455.544 747.685C401.842 723.197 346.969 688.887 308.795 655.906C264.829 618.007 240.407 576.395 240.034 538.737C239.702 506.052 251.87 481.759 277.235 464.452C322.639 433.468 394.654 421.366 534.013 421.272C565.66 421.247 596.338 419.507 627.88 415.956C636.503 415.002 645.579 413.845 654.848 412.53C694.073 407.046 734.173 399.331 772.986 391.883C824.906 381.911 878.559 371.596 929.414 366.818C1072.5 353.417 1155.24 376.412 1182.44 437.102C1203.16 483.279 1185 547.162 1133.84 607.964Z" fill="#F0F757"/>
<path d="M871.178 434.494C832.774 438.614 793.398 447.525 755.305 456.153C726.148 462.752 696.04 469.57 666.658 474.178C659.656 475.271 653.26 476.159 647.057 476.89C624.704 479.581 602.54 480.703 579.308 480.334C479.704 478.78 424.647 482.377 381.083 507.085C357.79 520.286 344.859 539.35 341.62 565.313C337.77 596.123 355.171 629.753 390.61 659.991C432.613 695.914 486.762 721.886 508.093 731.393C537.218 744.375 573.242 758.338 619.425 763.533C674.924 769.776 743.505 763.46 814.619 745.73C821.978 743.895 829.384 741.94 836.834 739.847C915.238 717.833 979.821 678.098 1023.68 624.935C1054.02 588.156 1080.59 533.63 1064.32 490.874C1045.57 441.741 980.588 422.765 871.178 434.494ZM1013.75 624.529C970.908 676.496 910.709 713.634 834.874 734.935C758.566 756.353 684.131 764.49 625.206 757.851C580.535 752.822 545.318 739.148 516.801 726.431C495.69 717.033 442.108 691.318 400.552 655.79C365.86 626.218 348.83 593.456 352.56 563.564C355.567 539.617 367.378 521.648 387.722 510.123C399.419 503.492 412.076 498.541 426.649 494.908C461.149 486.306 506.353 485.094 574.994 486.158C599.116 486.523 622.119 485.355 645.413 482.556C651.838 481.787 658.534 480.861 665.836 479.729C696.005 475.016 726.514 468.098 756.035 461.408C793.468 452.927 832.184 444.162 869.27 440.189C973.628 428.995 1035.56 447.081 1053.43 493.916C1069.33 535.478 1043.34 588.642 1013.75 624.529Z" fill="#F0F757"/>
<path d="M811.125 508.223C785.694 511.61 760.595 519.118 736.326 526.384C717.06 532.148 697.111 538.118 677.558 541.797C673.05 542.649 668.921 543.316 664.839 543.863C650.272 545.809 636.403 546.367 621.228 545.566C611.817 545.067 603.29 544.547 595.035 544.032C553.055 541.413 525.342 539.678 493.861 552.167C474.88 559.69 461.008 573.117 454.753 589.936C443.845 619.442 464.051 644.453 482.884 660.237C510.641 683.565 549.344 701.752 569.948 710.516C588.688 718.475 611.634 727.163 639.978 731.115C677.66 736.363 723.125 733.093 775.046 721.416C777.063 720.967 779.034 720.494 781.038 719.994C831.532 707.405 872.918 681.101 904.165 641.758C924.547 616.106 943.541 578.059 935.869 548.219C926.672 512.417 883.52 498.582 811.125 508.223ZM894.211 641.412C863.557 680.028 823.306 705.142 774.353 716.152C724.922 727.262 681.782 730.388 646.185 725.435C619.085 721.662 596.825 713.239 578.639 705.486C558.337 696.846 520.201 678.916 492.891 655.984C474.746 640.79 455.3 616.804 465.633 588.873C471.138 574.016 482.689 562.455 498.147 556.318C524.907 545.695 549.403 547.253 590.043 549.771C598.338 550.294 606.905 550.822 616.394 551.32C632.743 552.173 647.724 551.574 663.6 549.446C668.059 548.86 672.597 548.127 677.547 547.183C698.319 543.272 718.879 537.113 738.723 531.187C763.175 523.876 786.291 516.952 809.849 513.815C877.599 504.789 916.319 517.3 925.017 550.943C932.389 579.734 913.941 616.557 894.211 641.412Z" fill="#F0F757"/>
<path d="M751.135 583.46C737.474 586.249 725.767 592.684 714.472 598.908C705.488 603.848 697.016 608.516 688.349 611.003C686.508 611.534 684.751 611.936 683.009 612.244C666.722 615.054 658.695 610.948 649.421 606.192C640.112 601.445 629.593 596.039 609.022 598.431C593.605 600.227 577.182 607.149 569.148 615.278C554.099 630.502 556.344 646.181 575.85 661.869C588.24 671.829 607.33 681.659 632.581 691.058C664.567 702.946 690.235 707.185 713.378 704.405C717.736 703.88 721.99 703.092 726.107 702.065C749.75 696.17 769.634 682.024 785.388 659.846C788.967 654.803 806.883 628.57 808.092 607.191C808.802 594.364 803.174 586.071 791.373 582.507C781.688 579.666 768.181 579.971 751.135 583.46ZM797.057 609.181C796.174 625.042 784.698 646.371 775.166 659.821C758.614 683.141 738.888 695.906 714.954 698.775C694.855 701.194 670.629 696.995 640.902 685.939C616.249 676.771 597.699 667.242 585.739 657.61C567.978 643.334 565.591 629.413 578.601 616.255C583.084 611.73 591.533 607.594 600.24 605.423C602.608 604.833 605.01 604.379 607.342 604.106C623.25 602.26 631.588 606.524 640.412 611.03C649.991 615.927 660.861 621.499 682.597 617.729C685.194 617.281 687.83 616.678 690.5 615.904C701.546 612.715 711.413 607.282 720.978 602.034C731.39 596.302 741.225 590.896 751.46 588.797C765.375 585.944 776.17 585.627 783.575 587.858C793.152 590.726 797.691 597.913 797.057 609.181Z" fill="#F0F757"/>
</svg>
