<svg width="34" height="34" viewBox="0 0 34 34" fill="none" xmlns="http://www.w3.org/2000/svg">
<g clip-path="url(#clip0)">
<path d="M24.0418 9.89944C24.3096 10.1673 24.4031 10.5634 24.2834 10.9228L17.9194 30.0147C17.7974 30.3806 17.4758 30.6438 17.0929 30.6909C16.71 30.7381 16.3342 30.5608 16.127 30.2353L11.2966 22.6446L3.70591 17.8142C3.38045 17.6071 3.20315 17.2312 3.25028 16.8483C3.29742 16.4654 3.56058 16.1438 3.92656 16.0218L23.0184 9.65786C23.3778 9.53809 23.7739 9.63161 24.0418 9.89944ZM13.2953 22.0601L16.6864 27.389L21.0464 14.309L13.2953 22.0601ZM19.6322 12.8948L6.55217 17.2548L11.8811 20.6459L19.6322 12.8948Z" fill="white"/>
</g>
<defs>
<clipPath id="clip0">
<rect width="24" height="24" fill="white" transform="translate(16.9707) rotate(45)"/>
</clipPath>
</defs>
</svg>
