<svg width="2873" height="2763" viewBox="0 0 2873 2763" fill="none" xmlns="http://www.w3.org/2000/svg">
<path d="M745.299 939.116C717.935 1011.51 723.119 1088.37 761.13 1174.07C792.534 1244.88 847.656 1323.28 929.639 1413.73C998.534 1489.73 1079.38 1566.9 1157.58 1641.51C1249.47 1729.21 1344.51 1819.9 1418.14 1907.16C1551.09 2064.69 1667.09 2155.29 1762.9 2176.42C1846.06 2194.77 1913.14 2161.25 1962.25 2076.75C2011.66 1991.75 2031.47 1874.41 2039.39 1790.94C2048.67 1693.06 2046.72 1585.47 2034.15 1503.13C2021.97 1423.38 1999.42 1318.31 1932.48 1212.92C1889.23 1144.83 1828.16 1077.3 1750.95 1012.2C1717.39 983.912 1681.46 956.596 1643.39 930.426C1602.38 902.245 1558.91 875.396 1513.27 850.095C1432.21 805.164 1348.12 773.329 1263.34 755.497C1183.17 738.624 1106.03 734.926 1034.09 744.503C890.052 763.681 784.792 834.611 745.299 939.116ZM1036.48 748.081C1107.97 738.566 1184.62 742.242 1264.27 759.009C1348.41 776.712 1431.86 808.3 1512.3 852.889C1599.86 901.429 1679.4 955.677 1748.71 1014.11C1825.35 1078.73 1885.96 1145.75 1928.87 1213.29C1963.79 1268.28 2006.83 1350.78 2029.91 1501.93C2042.44 1584.07 2044.4 1691.43 2035.13 1789.12C2027.23 1872.39 2007.47 1989.43 1958.23 2074.15C1909.65 2157.71 1843.65 2190.95 1762.05 2172.95C1724.28 2164.61 1683.25 2145.22 1639.13 2114.9C1573.15 2069.55 1500.29 1999.77 1421.27 1906.13C1347.39 1818.58 1252.22 1727.75 1160.18 1639.93C1082.08 1565.4 1001.34 1488.33 932.611 1412.51C849.929 1321.3 796.7 1245.62 765.092 1174.35C727.432 1089.43 722.31 1013.25 749.452 941.458C788.681 837.622 893.303 767.139 1036.48 748.081Z" fill="#37C1FF"/>
<path d="M816.1 1182.38C845.516 1248.91 897.205 1322.42 974.117 1407.09C1038.34 1477.84 1113.73 1549.5 1186.63 1618.81C1223.92 1654.26 1262.46 1690.91 1298.81 1726.77C1309.47 1737.29 1319.74 1747.53 1329.32 1757.23C1370.17 1798.56 1403.88 1835.1 1432.4 1868.97C1583.47 2048.21 1710.34 2134.6 1809.5 2125.74C1862.74 2120.89 1907.33 2088.44 1942.04 2029.29C1977.05 1970.13 2001.65 1883.62 2013.21 1779.13C2023.97 1682.02 2022.73 1574.16 2009.91 1490.59C1998.49 1415.9 1977.35 1317.5 1914.73 1218.81C1856.33 1126.74 1762.41 1035.22 1644.05 953.878C1605.99 927.717 1565.37 902.594 1522.61 878.849C1447.79 837.27 1370.16 807.639 1291.85 790.766C1217.69 774.791 1146.1 770.842 1079.04 779.029C940.73 795.855 839.64 862.639 801.68 962.257C775.883 1030.12 780.599 1102.12 816.1 1182.38ZM1081.39 782.629C1148 774.488 1219.11 778.408 1292.73 794.276C1370.42 811.012 1447.43 840.405 1521.63 881.641C1603.49 927.092 1677.86 977.897 1742.67 1032.64C1814.31 1093.15 1870.98 1155.92 1911.1 1219.18C1943.74 1270.65 1984.01 1347.87 2005.65 1489.39C2018.42 1572.74 2019.66 1680.35 2008.94 1777.27C1997.41 1881.49 1972.88 1967.73 1938.01 2026.67C1903.66 2085.25 1859.65 2117.37 1807.25 2122.15C1758.39 2126.52 1702.49 2107.06 1639.96 2064.09C1578.14 2021.6 1509.84 1956.11 1435.53 1867.94C1406.91 1833.94 1373.06 1797.26 1332.07 1755.79C1322.47 1746.08 1312.18 1735.8 1301.5 1725.26C1265.11 1689.36 1226.54 1652.68 1189.22 1617.21C1116.41 1548 1041.13 1476.44 977.084 1405.88C900.612 1321.7 849.259 1248.69 820.07 1182.68C784.926 1103.19 780.266 1031.87 805.831 964.633C843.526 865.682 943.96 799.345 1081.39 782.629Z" fill="#37C1FF"/>
<path d="M809.736 1139.89C839.151 1206.42 890.841 1279.93 967.752 1364.6C1031.98 1435.34 1107.37 1507.01 1180.26 1576.32C1217.56 1611.76 1256.1 1648.41 1292.44 1684.27C1303.11 1694.79 1313.37 1705.04 1322.95 1714.73C1363.81 1756.07 1397.51 1792.6 1426.03 1826.47C1577.11 2005.72 1703.97 2092.1 1803.13 2083.25C1856.38 2078.4 1900.96 2045.94 1935.67 1986.79C1970.68 1927.64 1995.29 1841.13 2006.85 1736.63C2017.6 1639.53 2016.36 1531.66 2003.55 1448.1C1992.12 1373.41 1970.98 1275.01 1908.36 1176.32C1849.97 1084.25 1756.05 992.729 1637.69 911.383C1599.62 885.222 1559 860.099 1516.25 836.354C1441.43 794.775 1363.79 765.145 1285.48 748.271C1211.33 732.297 1139.74 728.347 1072.67 736.534C934.366 753.361 833.276 820.144 795.316 919.763C769.519 987.624 774.235 1059.62 809.736 1139.89ZM1075.03 740.135C1141.64 731.993 1212.74 735.913 1286.37 751.781C1364.06 768.517 1441.06 797.911 1515.26 839.146C1597.12 884.598 1671.5 935.402 1736.3 990.143C1807.95 1050.66 1864.61 1113.42 1904.73 1176.69C1937.38 1228.15 1977.65 1305.38 1999.29 1446.89C2012.06 1530.24 2013.3 1637.86 2002.57 1734.78C1991.05 1838.99 1966.52 1925.23 1931.65 1984.18C1897.29 2042.75 1853.29 2074.88 1800.89 2079.65C1752.03 2084.02 1696.12 2064.56 1633.59 2021.59C1571.78 1979.11 1503.48 1913.61 1429.16 1825.45C1400.54 1791.45 1366.7 1754.77 1325.71 1713.29C1316.1 1703.58 1305.81 1693.31 1295.13 1682.76C1258.75 1646.87 1220.17 1610.19 1182.86 1574.72C1110.05 1505.51 1034.77 1433.94 970.719 1363.39C894.248 1279.21 842.895 1206.2 813.706 1140.18C778.561 1060.7 773.902 989.378 799.467 922.138C837.161 823.187 937.595 756.85 1075.03 740.135Z" fill="#37C1FF"/>
<path d="M871.093 1190.72C898.52 1252.97 946.782 1321.59 1018.62 1400.49C1078.2 1466.01 1148.15 1532.2 1215.8 1596.22C1251.13 1629.66 1287.66 1664.24 1322.06 1698.11C1332.04 1707.93 1341.62 1717.48 1350.55 1726.51C1388.52 1764.88 1419.96 1798.99 1446.66 1830.77C1519.97 1917.89 1587.71 1982.13 1648 2021.75C1703.19 2058 1753.52 2074.56 1797.62 2070.97C1847.17 2066.74 1888.96 2036.75 1921.81 1981.83C1963.78 1911.68 1981.51 1816.05 1989 1748.15C1998.99 1657.48 1997.75 1556.51 1985.65 1478.05C1974.98 1408.42 1955.25 1316.71 1896.96 1224.73C1842.4 1138.57 1754.62 1052.94 1644.01 976.932C1608.85 952.773 1571.38 929.568 1531.94 907.635C1462.14 868.748 1389.69 841.037 1316.59 825.276C1247.29 810.335 1180.31 806.686 1117.52 814.428C988.371 830.194 893.811 892.531 858.076 985.467C833.872 1048.75 838.126 1115.89 871.093 1190.72ZM1119.89 817.996C1182.24 810.318 1248.71 813.944 1317.49 828.762C1389.95 844.377 1461.78 871.843 1530.96 910.394C1570.18 932.207 1607.43 955.267 1642.4 979.299C1752.16 1054.74 1839.28 1139.67 1893.36 1225.08C1923.73 1273.03 1961.2 1344.98 1981.43 1476.85C1993.48 1555.1 1994.74 1655.83 1984.74 1746.29C1977.28 1813.99 1959.6 1909.34 1917.82 1979.2C1885.3 2033.55 1844.12 2063.23 1795.43 2067.38C1752.51 2070.87 1703.41 2054.69 1649.52 2019.29C1646.73 2017.45 1643.92 2015.57 1641.1 2013.63C1583.56 1974.08 1519.26 1912.28 1449.8 1829.76C1422.99 1797.84 1391.43 1763.6 1353.3 1725.07C1344.35 1716.02 1334.73 1706.43 1324.74 1696.6C1290.3 1662.69 1253.73 1628.08 1218.38 1594.61C1150.83 1530.68 1080.99 1464.58 1021.58 1399.26C950.181 1320.85 902.261 1252.72 875.069 1191.01C842.452 1116.96 838.242 1050.5 862.235 987.801C897.699 895.541 991.617 833.659 1119.89 817.996Z" fill="#37C1FF"/>
<path d="M926.074 1199.01C951.505 1256.97 996.334 1320.7 1063.1 1393.84C1118.07 1454.16 1182.61 1514.93 1245.03 1573.71C1278.37 1605.1 1312.84 1637.56 1345.27 1669.41C1354.53 1678.5 1363.43 1687.37 1371.74 1695.75C1406.88 1731.21 1436.03 1762.87 1460.89 1792.55C1528.79 1873.37 1591.42 1933.01 1647.04 1969.84C1698.13 2003.67 1744.79 2019.25 1785.74 2016.17C1831.66 2012.71 1870.63 1985.17 1901.58 1934.32C1941.25 1869.19 1957.83 1780.25 1964.78 1717.12C1974.04 1632.91 1972.78 1538.83 1961.4 1465.46C1951.47 1400.9 1933.15 1315.85 1879.2 1230.58C1828.49 1150.32 1746.83 1070.61 1643.97 999.912C1611.73 977.755 1577.38 956.466 1541.28 936.346C1414.34 865.398 1277.51 834.636 1156.01 849.744C1098.29 856.816 1045.97 874.637 1004.7 901.277C961.693 929.04 931.329 965.143 914.461 1008.58C891.832 1067.34 895.635 1129.63 926.074 1199.01ZM1008.17 904.509C1049.13 878.056 1101.07 860.361 1158.39 853.345C1278.89 838.366 1414.52 868.832 1540.29 939.139C1690.5 1022.85 1809.58 1126.49 1875.6 1230.97C1903.7 1275.38 1938.37 1342.05 1957.17 1464.29C1968.52 1537.44 1969.77 1631.27 1960.53 1715.29C1953.62 1778.23 1937.09 1866.85 1897.6 1931.71C1866.99 1981.97 1828.63 2009.19 1783.56 2012.59C1743.8 2015.58 1698.39 2000.39 1648.58 1967.4C1593.57 1930.99 1531.5 1871.82 1464.05 1791.54C1439.07 1761.71 1409.79 1729.91 1374.52 1694.32C1366.19 1685.9 1357.26 1677.01 1347.96 1667.9C1315.47 1636 1280.97 1603.5 1247.61 1572.08C1185.3 1513.4 1120.86 1452.73 1066.06 1392.61C999.746 1319.97 955.254 1256.74 930.063 1199.31C899.962 1130.7 896.22 1069.09 918.636 1010.94C935.366 967.882 965.49 932.069 1008.17 904.509Z" fill="#37C1FF"/>
<path d="M924.398 1157.95C949.829 1215.9 994.657 1279.63 1061.42 1352.78C1116.4 1413.1 1180.94 1473.87 1243.35 1532.64C1276.7 1564.04 1311.17 1596.5 1343.59 1628.35C1352.85 1637.44 1361.76 1646.31 1370.07 1654.69C1405.2 1690.14 1434.36 1721.81 1459.22 1751.48C1527.11 1832.3 1589.75 1891.95 1645.36 1928.77C1696.46 1962.6 1743.11 1978.19 1784.06 1975.1C1829.99 1971.64 1868.96 1944.11 1899.91 1893.26C1939.57 1828.12 1956.16 1739.18 1963.1 1676.06C1972.37 1591.84 1971.1 1497.76 1959.72 1424.39C1949.8 1359.83 1931.47 1274.79 1877.53 1189.51C1826.81 1109.25 1745.15 1029.54 1642.29 958.846C1610.05 936.689 1575.7 915.399 1539.6 895.28C1412.66 824.332 1275.84 793.569 1154.34 808.677C1096.61 815.75 1044.29 833.57 1003.02 860.211C960.016 887.973 929.653 924.076 912.785 967.509C890.155 1026.27 893.959 1088.56 924.398 1157.95ZM1006.49 863.443C1047.45 836.989 1099.4 819.294 1156.71 812.279C1277.21 797.299 1412.84 827.765 1538.61 898.072C1688.82 981.785 1807.91 1085.42 1873.92 1189.9C1902.02 1234.31 1936.7 1300.99 1955.5 1423.23C1966.84 1496.37 1968.1 1590.21 1958.85 1674.22C1951.94 1737.16 1935.41 1825.79 1895.92 1890.64C1865.32 1940.91 1826.95 1968.12 1781.88 1971.52C1742.12 1974.51 1696.71 1959.32 1646.9 1926.33C1591.89 1889.93 1529.83 1830.75 1462.38 1750.47C1437.39 1720.64 1408.11 1688.84 1372.84 1653.25C1364.52 1644.84 1355.58 1635.95 1346.29 1626.83C1313.8 1594.93 1279.29 1562.43 1245.93 1531.01C1183.62 1472.33 1119.19 1411.66 1064.39 1351.54C998.07 1278.9 953.578 1215.67 928.387 1158.24C898.285 1089.63 894.544 1028.02 916.96 969.878C933.689 926.816 963.814 891.003 1006.49 863.443Z" fill="#37C1FF"/>
<path d="M981.063 1207.33C1004.5 1260.99 1045.89 1319.83 1107.6 1387.21C1158 1442.37 1217.17 1497.77 1274.39 1551.31C1305.71 1580.63 1338.09 1610.93 1368.52 1640.73C1377.07 1649.1 1385.29 1657.27 1392.98 1665.02C1425.27 1697.56 1452.13 1726.77 1475.15 1754.35C1537.62 1828.84 1595.15 1883.89 1646.06 1917.9C1693 1949.27 1736 1963.9 1773.86 1961.39C1816.21 1958.58 1852.39 1933.51 1881.36 1886.86C1918.73 1826.73 1934.17 1744.51 1940.57 1686.13C1949.09 1608.36 1947.81 1521.17 1937.16 1452.92C1927.98 1393.42 1911.08 1315.05 1861.47 1236.48C1814.59 1162.13 1739.06 1088.31 1643.96 1022.94C1614.62 1002.78 1583.42 983.424 1550.64 965.109C1433.48 899.382 1307.01 870.973 1194.53 885.119C1141.3 891.677 1092.95 908.125 1054.74 932.72C1014.86 958.382 986.645 991.699 970.89 1031.76C949.804 1085.94 953.139 1143.37 981.063 1207.33ZM1058.15 935.915C1096.07 911.517 1144.03 895.185 1196.86 888.677C1308.34 874.666 1433.61 902.779 1549.6 967.857C1687.62 1044.96 1797.09 1140.49 1857.82 1236.81C1883.65 1277.71 1915.52 1339.1 1932.91 1451.71C1943.54 1519.77 1944.81 1606.69 1936.3 1684.27C1929.94 1742.45 1914.55 1824.37 1877.37 1884.2C1848.74 1930.28 1813.18 1955.03 1771.69 1957.78C1735.01 1960.2 1693.26 1945.96 1647.58 1915.45C1597.27 1881.84 1540.3 1827.29 1478.28 1753.33C1455.15 1725.61 1428.13 1696.24 1395.71 1663.57C1388 1655.79 1379.75 1647.6 1371.18 1639.21C1340.69 1609.36 1308.27 1579.01 1276.94 1549.67C1219.82 1496.2 1160.75 1440.92 1110.53 1385.96C1049.27 1319.09 1008.23 1260.75 985.028 1207.63C957.436 1144.46 954.163 1087.7 975.001 1034.11C990.629 994.402 1018.61 961.376 1058.15 935.915Z" fill="#37C1FF"/>
<path d="M1036.06 1215.57C1057.49 1264.95 1095.46 1318.9 1152.1 1380.52C1197.95 1430.56 1251.81 1480.61 1303.89 1529.01C1333.14 1556.2 1363.4 1584.31 1391.77 1612.01C1399.63 1619.67 1407.17 1627.15 1414.22 1634.24C1443.25 1663.45 1467.86 1690.23 1489.43 1716.1C1546.28 1784.25 1598.66 1834.71 1644.99 1865.95C1687.82 1894.83 1727.18 1908.49 1762 1906.56C1800.8 1904.41 1834.17 1881.8 1861.17 1839.35C1896.22 1784.26 1910.53 1708.74 1916.37 1655.1C1924.15 1583.76 1922.86 1503.46 1912.93 1440.32C1904.49 1385.87 1889.01 1314.18 1843.73 1242.33C1800.69 1173.88 1731.3 1105.97 1643.94 1045.93C1617.53 1027.77 1589.44 1010.32 1559.98 993.813C1452.61 933.324 1336.51 907.26 1233.03 920.419C1184.27 926.453 1139.91 941.556 1104.75 964.087C1068 987.633 1041.94 1018.18 1027.3 1054.86C1007.79 1104.49 1010.66 1157.07 1036.06 1215.57ZM1108.16 967.29C1143.03 944.948 1187.02 929.97 1235.38 923.986C1337.84 910.946 1452.74 936.721 1558.94 996.545C1684.77 1067.04 1784.61 1154.44 1840.07 1242.65C1863.62 1280.02 1892.71 1336.13 1908.66 1439.1C1918.56 1502.04 1919.84 1582.08 1912.09 1653.23C1906.27 1706.67 1892.02 1781.87 1857.16 1836.66C1830.51 1878.54 1797.78 1900.84 1759.85 1902.94C1725.74 1904.83 1688.67 1891.94 1646.53 1863.51C1600.73 1832.64 1548.95 1782.7 1492.54 1715.07C1470.84 1689.05 1446.11 1662.13 1416.92 1632.76C1409.86 1625.65 1402.28 1618.15 1394.39 1610.45C1365.95 1582.69 1335.66 1554.55 1306.38 1527.33C1254.4 1479.03 1200.67 1429.09 1155 1379.25C1098.83 1318.14 1061.21 1264.7 1040.01 1215.87C1014.94 1158.15 1012.12 1106.24 1031.39 1057.19C1045.92 1020.88 1071.74 990.626 1108.16 967.29Z" fill="#37C1FF"/>
<path d="M1090.97 1223.78C1110.42 1268.83 1144.97 1317.92 1196.62 1373.84C1237.98 1418.82 1286.55 1463.58 1333.54 1506.87C1360.68 1531.88 1388.76 1557.74 1415.04 1583.29C1422.17 1590.22 1429.05 1597.01 1435.47 1603.46C1461.26 1629.35 1484.21 1654.38 1503.71 1677.84C1603.27 1797.67 1683.87 1854.55 1750.14 1851.73C1785.38 1850.23 1815.94 1830.08 1840.98 1791.82C1873.72 1741.78 1886.89 1672.97 1892.19 1624.04C1899.23 1559.13 1897.93 1485.74 1888.71 1427.7C1881.02 1378.32 1866.95 1313.3 1826 1248.15C1786.89 1185.74 1723.47 1123.65 1643.49 1068.68C1620.14 1052.63 1595.34 1037.17 1569.35 1022.5C1471.79 967.45 1366.03 943.73 1271.55 955.72C1227.21 961.341 1186.82 975.09 1154.74 995.46C1120.98 1016.9 1097.09 1044.66 1083.72 1077.95C1065.65 1122.94 1068.03 1170.64 1090.97 1223.78ZM1158.16 998.689C1189.95 978.499 1229.98 964.876 1273.92 959.305C1367.37 947.45 1471.94 970.881 1568.31 1025.26C1594.11 1039.82 1618.68 1055.14 1641.87 1071.07C1721 1125.46 1783.73 1186.86 1822.37 1248.5C1843.65 1282.36 1869.93 1333.18 1884.47 1426.52C1893.66 1484.34 1894.96 1557.49 1887.93 1622.2C1878.37 1710.45 1854.97 1761.69 1837 1789.13C1812.34 1826.82 1782.42 1846.66 1748.07 1848.11C1717.13 1849.42 1682.8 1837.13 1644.59 1810.87C1603.41 1782.56 1557.71 1738.03 1506.86 1676.84C1487.24 1653.22 1464.14 1628.04 1438.2 1602C1431.75 1595.51 1424.84 1588.7 1417.68 1581.74C1391.32 1556.13 1363.21 1530.23 1336.04 1505.19C1289.16 1462 1240.7 1417.35 1199.54 1372.59C1148.36 1317.17 1114.15 1268.6 1094.94 1224.1C1072.33 1171.74 1070.01 1124.72 1087.83 1080.32C1101.09 1047.4 1124.74 1019.93 1158.16 998.689Z" fill="#37C1FF"/>
<path d="M1145.98 1232C1163.4 1272.64 1194.51 1316.85 1241.1 1367.17C1278.02 1407.05 1321.31 1446.54 1363.17 1484.74C1388.2 1507.56 1414.07 1531.17 1438.25 1554.57C1444.7 1560.79 1450.9 1566.89 1456.67 1572.67C1479.62 1595.66 1500.24 1618.18 1517.94 1639.58C1564.5 1695.9 1605.4 1735.93 1642.95 1761.96C1677.99 1786.28 1709.15 1797.67 1738.22 1796.9C1770.37 1796.04 1797.35 1778.83 1820.73 1744.31C1837.53 1719.5 1859.34 1673.1 1867.95 1593.01C1874.25 1534.55 1872.94 1468.04 1864.43 1415.11C1857.48 1370.8 1844.82 1312.46 1808.2 1254.01C1772.93 1197.52 1715.62 1141.31 1643.34 1091.63C1622.93 1077.6 1601.29 1064.07 1578.64 1051.23C1490.87 1001.44 1395.47 980.072 1309.99 991.049C1270.12 996.171 1233.71 1008.55 1204.68 1026.86C1174.03 1046.19 1152.31 1071.17 1140.07 1101.09C1123.59 1141.45 1125.51 1184.28 1145.98 1232ZM1208.13 1030.07C1236.87 1011.94 1272.91 999.683 1312.39 994.619C1396.84 983.776 1491.04 1004.84 1577.6 1053.95C1679.33 1111.66 1759.94 1182.82 1804.58 1254.34C1823.59 1284.68 1847.08 1330.23 1860.2 1413.93C1868.67 1466.65 1869.97 1532.9 1863.69 1591.16C1855.14 1670.87 1833.45 1716.96 1816.77 1741.6C1794.11 1775.08 1767 1792.47 1736.22 1793.29C1708.64 1794.04 1679.01 1783.25 1645.63 1760.31C1645.29 1760.07 1644.95 1759.84 1644.61 1759.6C1607.65 1733.98 1567.24 1694.4 1521.11 1638.61C1503.27 1617.04 1482.51 1594.36 1459.39 1571.22C1453.6 1565.41 1447.37 1559.28 1440.89 1553.02C1416.62 1529.55 1390.71 1505.91 1365.65 1483.05C1323.91 1444.96 1280.73 1405.57 1244.02 1365.92C1197.92 1316.12 1167.16 1272.44 1149.97 1232.36C1129.84 1185.42 1127.97 1143.26 1144.23 1103.47C1156.32 1073.88 1177.81 1049.19 1208.13 1030.07Z" fill="#37C1FF"/>
<path d="M1285.56 1360.48C1318.08 1395.4 1356.2 1429.72 1393.07 1462.92C1415.89 1483.46 1439.46 1504.69 1461.46 1525.83C1467.19 1531.33 1472.71 1536.73 1477.85 1541.87C1498 1561.99 1516.28 1581.99 1532.15 1601.3C1611.4 1697.71 1673.08 1742.42 1726.3 1742.05C1754.85 1741.84 1779.12 1727.03 1800.48 1696.77C1816 1674.79 1836.09 1633.55 1843.72 1561.95C1849.23 1510.36 1847.9 1450.74 1840.16 1402.47C1833.84 1363.02 1822.47 1311.15 1790.44 1259.83C1759.03 1209.25 1707.81 1158.91 1643.23 1114.52C1625.75 1102.51 1607.28 1090.93 1587.98 1079.91C1510.01 1035.38 1424.95 1016.35 1348.48 1026.33C1313.09 1030.95 1280.65 1041.98 1254.69 1058.21C1227.15 1075.43 1207.56 1097.62 1196.47 1124.17C1168.78 1190.4 1197.1 1265.51 1285.56 1360.48ZM1350.84 1029.89C1426.29 1020.05 1510.12 1038.77 1586.89 1082.62C1676.46 1133.76 1747.45 1196.81 1786.78 1260.13C1803.38 1286.75 1823.96 1326.82 1835.9 1401.28C1843.61 1449.33 1844.92 1508.69 1839.43 1560.07C1831.86 1631.27 1811.91 1672.21 1796.53 1694.02C1775.58 1723.71 1751.98 1738.23 1724.35 1738.43C1673.13 1738.8 1613.07 1694.91 1535.33 1600.33C1519.32 1580.85 1500.89 1560.68 1480.58 1540.39C1475.4 1535.22 1469.84 1529.78 1464.07 1524.25C1441.99 1503.03 1418.36 1481.75 1395.51 1461.17C1358.76 1428.08 1320.76 1393.86 1288.47 1359.19C1201.31 1265.62 1173.39 1191.69 1200.58 1126.55C1221.89 1075.52 1278.07 1039.38 1350.84 1029.89Z" fill="#37C1FF"/>
<path d="M1330 1353.76C1358.18 1383.78 1391.21 1413.02 1423.17 1441.3C1443.69 1459.47 1464.92 1478.25 1484.65 1497.06C1489.68 1501.85 1494.52 1506.56 1499.02 1511.04C1516.42 1528.34 1532.33 1545.82 1546.34 1562.99C1614.77 1646.89 1668.15 1686.35 1714.32 1687.17C1739.32 1687.61 1760.86 1675.19 1780.19 1649.21C1800.32 1622.16 1814.25 1580.12 1819.43 1530.85C1824.2 1485.74 1822.86 1433.02 1815.84 1389.81C1809.89 1353.26 1800.1 1309.92 1772.61 1265.61C1745.06 1220.94 1699.94 1176.47 1643.05 1137.37C1628.53 1127.39 1613.21 1117.74 1597.25 1108.55C1529.07 1069.28 1454.37 1052.6 1386.9 1061.58C1322.25 1070.17 1272.13 1102.19 1252.8 1147.22C1227.83 1205.41 1252.36 1271.03 1330 1353.76ZM1389.29 1065.16C1455.74 1056.32 1529.21 1072.7 1596.16 1111.26C1611.96 1120.36 1627.07 1129.87 1641.44 1139.75C1697.47 1178.25 1741.89 1222.02 1768.97 1265.92C1796.06 1309.57 1805.72 1352.43 1811.61 1388.63C1818.59 1431.61 1819.93 1484.07 1815.18 1528.98C1810.03 1577.92 1796.21 1619.63 1776.28 1646.43C1757.39 1671.83 1736.52 1683.98 1712.5 1683.55C1684.69 1683.07 1637.54 1669.94 1549.55 1562.04C1535.39 1544.68 1519.3 1527.02 1501.75 1509.56C1497.21 1505.04 1492.34 1500.3 1487.26 1495.47C1467.42 1476.56 1446.14 1457.73 1425.57 1439.52C1393.75 1411.36 1360.84 1382.22 1332.9 1352.46C1256.59 1271.14 1232.44 1206.69 1256.93 1149.62C1275.98 1105.22 1325.45 1073.64 1389.29 1065.16Z" fill="#37C1FF"/>
<path d="M1310.74 1256.59C1322.11 1284.24 1342.95 1313.8 1374.43 1347.01C1398.33 1372.22 1426.37 1396.48 1453.51 1419.94C1471.67 1435.64 1490.43 1451.87 1507.82 1468.26C1512.13 1472.32 1516.28 1476.33 1520.16 1480.17C1534.82 1494.67 1548.4 1509.62 1560.51 1524.64C1618.96 1597.06 1662.7 1630.24 1702.32 1632.23C1723.78 1633.31 1742.6 1623.29 1759.89 1601.61C1778.21 1578.62 1790.72 1542.43 1795.15 1499.7C1799.18 1461.06 1797.82 1415.24 1791.52 1377.1C1786.67 1347.84 1778.13 1309.39 1754.79 1271.36C1730.93 1232.49 1691.87 1193.85 1642.75 1160.09C1631.2 1152.15 1619.12 1144.5 1606.52 1137.16C1548.16 1103.15 1483.8 1088.82 1425.31 1096.78C1369.62 1104.37 1326.19 1131.81 1309.12 1170.2C1297.26 1196.88 1297.79 1225.14 1310.74 1256.59ZM1427.71 1100.38C1456.06 1096.51 1485.56 1097.83 1515.38 1104.31C1546.02 1110.97 1576.32 1122.93 1605.4 1139.87C1670.48 1177.79 1722.23 1224.59 1751.12 1271.66C1763.17 1291.29 1778.17 1320.88 1787.29 1375.95C1793.56 1413.86 1794.9 1459.43 1790.9 1497.87C1786.5 1540.24 1774.11 1576.09 1756.01 1598.81C1739.19 1619.92 1721.07 1629.68 1700.63 1628.65C1684.21 1627.83 1666.93 1621.2 1647.93 1608.14C1623.35 1591.25 1595.9 1563.58 1563.73 1523.73C1551.46 1508.53 1537.71 1493.37 1522.87 1478.69C1518.94 1474.8 1514.74 1470.75 1510.38 1466.64C1492.88 1450.15 1474.04 1433.85 1455.84 1418.1C1428.85 1394.77 1400.96 1370.63 1377.3 1345.68C1311.81 1276.63 1291.47 1221.65 1313.24 1172.67C1330.02 1134.87 1372.83 1107.86 1427.71 1100.38Z" fill="#37C1FF"/>
<path d="M1418.81 1340.2C1438.54 1360.73 1461.71 1380.11 1484.11 1398.85C1499.79 1411.97 1516.01 1425.54 1530.94 1439.41C1534.55 1442.75 1538.02 1446.06 1541.27 1449.26C1553.27 1461.03 1564.49 1473.48 1574.62 1486.23C1622.87 1546.91 1657.44 1574.14 1690.23 1577.26C1708.19 1578.97 1724.31 1571.35 1739.51 1553.98C1756.01 1535.11 1767.12 1504.76 1770.81 1468.52C1774.1 1436.33 1772.73 1397.39 1767.14 1364.35C1762.79 1338.66 1755.79 1308.19 1736.91 1277.07C1716.88 1244.06 1683.94 1211.27 1642.55 1182.83C1633.97 1176.93 1625.03 1171.22 1615.76 1165.73C1566.49 1136.56 1513.91 1124.88 1463.68 1131.96C1416.97 1138.54 1380.23 1161.42 1365.41 1193.17C1346.08 1234.63 1363.54 1282.72 1418.81 1340.2ZM1466.09 1135.54C1515.24 1128.62 1566.58 1139.98 1614.58 1168.41C1667.49 1199.74 1709.62 1238.42 1733.25 1277.35C1751.74 1307.83 1758.62 1337.86 1762.92 1363.21C1768.47 1396.02 1769.83 1434.7 1766.56 1466.68C1762.91 1502.53 1751.96 1532.51 1735.69 1551.09C1721 1567.89 1705.64 1575.28 1688.74 1573.66C1657.92 1570.73 1624.76 1544.32 1577.87 1485.34C1567.56 1472.37 1556.14 1459.71 1543.95 1447.73C1540.65 1444.49 1537.12 1441.12 1533.47 1437.75C1518.38 1423.75 1502.1 1410.11 1486.34 1396.93C1464.09 1378.31 1441.09 1359.06 1421.64 1338.83C1395.72 1311.87 1378.7 1287.76 1369.63 1265.11C1359.51 1239.87 1359.47 1217.15 1369.5 1195.63C1384.04 1164.47 1420.15 1142.01 1466.09 1135.54Z" fill="#37C1FF"/>
<path d="M1463.15 1333.31C1478.82 1349.28 1497.26 1363.94 1515.07 1378.1C1528.16 1388.51 1541.69 1399.27 1554.05 1410.48C1556.96 1413.11 1559.74 1415.72 1562.35 1418.26C1571.85 1427.49 1580.48 1437.13 1588.71 1447.72C1627.08 1497.13 1652.13 1518 1678.06 1522.17C1692.61 1524.52 1706.03 1519.31 1719.11 1506.26C1733.81 1491.6 1743.51 1467.09 1746.46 1437.25C1749.03 1411.48 1747.64 1379.43 1742.75 1351.52C1739.2 1331.22 1733.6 1307.16 1719.03 1282.7C1702.84 1255.54 1676 1228.58 1642.39 1205.48C1636.78 1201.62 1630.97 1197.86 1624.98 1194.24C1585.68 1170.38 1543.16 1160.99 1502.01 1167.05C1464.26 1172.62 1434.22 1190.94 1421.66 1216.05C1404.93 1249.48 1418.51 1287.83 1463.15 1333.31ZM1504.43 1170.61C1544.46 1164.71 1585.72 1173.78 1623.72 1196.85C1664.44 1221.57 1696.95 1252.13 1715.31 1282.94C1729.52 1306.77 1735 1330.41 1738.51 1350.39C1743.36 1378.06 1744.74 1409.85 1742.19 1435.42C1739.28 1464.83 1729.76 1488.94 1715.36 1503.31C1702.87 1515.78 1690.28 1520.79 1676.88 1518.64C1652.88 1514.79 1629.08 1494.67 1592 1446.91C1583.58 1436.07 1574.76 1426.2 1565.01 1416.73C1562.35 1414.13 1559.49 1411.46 1556.52 1408.78C1543.98 1397.4 1530.35 1386.57 1517.17 1376.07C1499.53 1362.04 1481.3 1347.54 1465.94 1331.91C1422.75 1287.91 1409.61 1250.84 1425.74 1218.56C1438 1193.99 1467.42 1176.06 1504.43 1170.61Z" fill="#37C1FF"/>
<path d="M1507.47 1326.29C1519.26 1337.9 1533.16 1348.03 1546.61 1357.83C1556.9 1365.34 1567.53 1373.08 1577.11 1381.42C1579.39 1383.4 1581.43 1385.26 1583.36 1387.11C1590.34 1393.76 1596.66 1400.94 1602.7 1409.04C1628.58 1443.79 1644.59 1461.31 1665.69 1466.9C1676.96 1469.9 1687.73 1467.13 1698.59 1458.42C1711.47 1448.09 1719.79 1429.4 1722.01 1405.82C1724.68 1377.83 1720.28 1349.44 1718.27 1338.53C1715.52 1323.63 1711.32 1305.99 1701.05 1288.19C1688.7 1266.8 1668.04 1245.67 1642.31 1227.99C1639.65 1226.16 1636.93 1224.36 1634.14 1222.59C1604.83 1204.03 1572.36 1196.91 1540.24 1201.97C1518.02 1205.48 1489.97 1216.98 1477.83 1238.73C1463.91 1263.74 1473.87 1293.2 1507.47 1326.29ZM1542.72 1205.53C1574.12 1200.57 1604.41 1207.17 1632.77 1225.12C1661.3 1243.19 1684.22 1265.64 1697.32 1288.36C1707.26 1305.58 1711.36 1322.83 1714.04 1337.42C1716.04 1348.21 1720.38 1376.31 1717.75 1403.99C1715.59 1427.07 1707.51 1445.3 1695.01 1455.33C1684.99 1463.35 1674.93 1466.1 1665.09 1463.48C1659.43 1461.98 1654.16 1459.51 1648.89 1455.88C1636.4 1447.3 1623.92 1432.26 1606.09 1408.32C1599.82 1399.91 1593.25 1392.46 1585.98 1385.53C1583.98 1383.62 1581.84 1381.67 1579.46 1379.6C1569.63 1371.03 1558.86 1363.19 1548.44 1355.59C1535.22 1345.96 1521.56 1336 1510.17 1324.79C1478.12 1293.23 1468.62 1265.15 1481.9 1241.31C1493.67 1220.15 1521.04 1208.95 1542.72 1205.53Z" fill="#37C1FF"/>
<path d="M1551.81 1319C1559.88 1326.44 1569.44 1332.21 1578.69 1337.78C1586.03 1342.21 1593.63 1346.79 1600.24 1352.11C1601.77 1353.33 1603.12 1354.49 1604.42 1355.69C1609.04 1359.95 1612.94 1364.49 1616.67 1370C1618.97 1373.42 1621.04 1376.54 1623.04 1379.56C1633.19 1394.95 1639.89 1405.11 1653.06 1411.18C1661 1414.85 1669.86 1414.53 1678 1410.31C1692.25 1402.89 1696.51 1386.51 1697.58 1374.08C1699.18 1355.74 1695.89 1335.59 1693.79 1325.21C1691.87 1315.77 1689.12 1304.62 1683.11 1293.4C1675.11 1278.5 1661.77 1264.14 1643.47 1250.75C1642.76 1250.23 1642.05 1249.73 1641.33 1249.23C1623.06 1236.68 1601.94 1232.43 1578.49 1236.6C1563.19 1239.31 1543.5 1247.18 1534.05 1261.1C1522.72 1277.79 1528.86 1297.82 1551.81 1319ZM1581 1240.14C1604.01 1236.05 1624.38 1240.36 1641.63 1252.98C1659.04 1265.73 1671.71 1279.34 1679.27 1293.42C1685.02 1304.14 1687.7 1314.96 1689.54 1324.13C1691.62 1334.36 1694.85 1354.22 1693.28 1372.25C1692.26 1384.22 1688.19 1399.96 1674.69 1406.98C1667.51 1410.71 1659.99 1411.12 1653.52 1408.14C1642.32 1402.98 1636.41 1393.99 1626.57 1379.1C1624.57 1376.06 1622.5 1372.92 1620.16 1369.48C1616.15 1363.55 1611.93 1358.64 1606.9 1354C1605.48 1352.69 1604 1351.41 1602.32 1350.07C1595.29 1344.43 1587.45 1339.71 1579.9 1335.14C1570.59 1329.52 1561.78 1324.21 1554.31 1317.32C1532.82 1297.5 1527.35 1279.49 1537.99 1263.79C1547.11 1250.37 1566.19 1242.77 1581 1240.14Z" fill="#37C1FF"/>
<path d="M1596.72 1311.12C1601.43 1314.75 1607.02 1316.33 1612.41 1317.85C1616.7 1319.06 1620.75 1320.2 1624.01 1322.24C1624.71 1322.67 1625.33 1323.12 1625.91 1323.6C1631.32 1328.12 1631.87 1332.43 1632.51 1337.4C1633.16 1342.39 1633.87 1348.04 1640.26 1354.19C1645.05 1358.8 1652.08 1361.82 1657.34 1361.5C1667.2 1360.9 1672.64 1354.2 1673.5 1341.58C1674.04 1333.56 1672.75 1323.3 1669.65 1311.09C1665.73 1295.62 1660.54 1285.22 1653.31 1278.33C1651.95 1277.04 1650.52 1275.88 1649.03 1274.85C1640.48 1268.97 1629.75 1267.5 1617.02 1270.49C1614.13 1271.17 1599.27 1274.94 1590.72 1282.61C1585.59 1287.22 1583.89 1292.29 1585.66 1297.68C1587.14 1302.08 1590.85 1306.59 1596.72 1311.12ZM1594.42 1285.65C1600.76 1279.95 1612.02 1275.82 1619.73 1274C1633.1 1270.86 1643.26 1272.8 1650.73 1279.92C1657 1285.9 1661.82 1295.79 1665.47 1310.17C1668.49 1322.09 1669.76 1332.06 1669.23 1339.8C1668.45 1351.29 1663.73 1357.37 1655.21 1357.89C1652.27 1358.06 1648.44 1356.73 1645.29 1354.56C1644.43 1353.97 1643.62 1353.32 1642.89 1352.62C1637.95 1347.87 1637.38 1343.39 1636.77 1338.67C1636.1 1333.53 1635.36 1327.69 1628.13 1321.67C1627.27 1320.94 1626.34 1320.27 1625.33 1319.65C1621.16 1317.06 1616.45 1315.73 1611.89 1314.44C1606.91 1313.03 1602.22 1311.71 1598.69 1308.99C1593.89 1305.3 1590.9 1301.72 1589.79 1298.33C1588.35 1293.96 1589.91 1289.69 1594.42 1285.65Z" fill="#37C1FF"/>
</svg>
