<svg width="1440" height="1328" viewBox="0 0 1440 1328" fill="none" xmlns="http://www.w3.org/2000/svg">
<g opacity="0.8">
<path d="M1977.63 -1534.34C1862.54 -1558.45 1753.12 -1538.88 1643.11 -1474.52C1552.21 -1421.34 1459.16 -1335.61 1358.64 -1212.44C1274.18 -1108.93 1192.5 -989.449 1113.52 -873.897C1020.68 -738.104 924.689 -597.665 825.681 -486.035C646.956 -284.491 558.906 -116.402 563.971 13.544C568.354 126.321 641.913 209.281 782.632 260.088C924.191 311.215 1101.57 317.911 1225.45 314.532C1370.73 310.569 1525.87 290.164 1640.49 259.93C1751.51 230.651 1895.33 183.483 2023.09 77.6829C2105.64 9.33189 2180.74 -82.4559 2246.29 -195.128C2274.79 -244.095 2300.98 -296.038 2324.71 -350.623C2350.27 -409.403 2372.98 -471.218 2392.64 -535.642C2427.55 -650.048 2442.35 -766.3 2436.61 -881.126C2431.2 -989.724 2407.82 -1092.13 2367.15 -1185.48C2285.72 -1372.38 2143.75 -1499.53 1977.63 -1534.34ZM2362.86 -1181.73C2403.27 -1088.97 2426.49 -987.208 2431.87 -879.325C2437.56 -765.351 2422.87 -649.991 2388.23 -536.458C2350.51 -412.87 2301.54 -298.916 2242.7 -197.771C2177.61 -85.9268 2103.09 5.16709 2021.21 72.9774C1954.55 128.174 1851.05 198.647 1640.65 254.137C1526.31 284.289 1371.5 304.66 1226.5 308.609C1102.91 311.98 925.978 305.297 784.9 254.357C645.741 204.093 572.999 122.499 568.688 11.843C566.7 -39.3905 579.515 -96.7464 607.012 -159.985C648.138 -254.569 722.094 -362.287 828.336 -482.072C927.668 -594.078 1023.81 -734.721 1116.79 -870.722C1195.68 -986.135 1277.26 -1105.45 1361.52 -1208.72C1462.87 -1332.94 1552.69 -1415.72 1644.18 -1469.24C1753.19 -1533.01 1861.65 -1552.39 1975.78 -1528.47C2140.84 -1493.9 2281.92 -1367.52 2362.86 -1181.73Z" fill="#E54846"/>
<path d="M1651.54 -1400.6C1566.11 -1350.76 1478.85 -1270.37 1384.82 -1154.84C1306.25 -1058.37 1230.5 -947.003 1157.23 -839.323C1119.76 -784.24 1081.02 -727.305 1042.6 -673.399C1031.33 -657.585 1020.31 -642.339 1009.83 -628.09C965.16 -567.331 924.776 -516.795 886.327 -473.551C682.902 -244.487 604.989 -62.7556 654.753 66.6305C681.611 136.092 745.241 189.55 843.866 225.559C942.61 261.956 1077.12 280.093 1232.82 278.037C1377.52 276.137 1533.34 256.63 1649.64 225.871C1753.6 198.418 1888.28 154.221 2007.95 55.2349C2119.6 -37.0815 2217.21 -176.188 2290.99 -345.857C2314.71 -400.424 2335.98 -458.192 2354.46 -518.544C2386.84 -624.168 2400.85 -731.529 2396.13 -837.667C2391.65 -938.172 2370.71 -1033.3 2333.87 -1120.45C2257.98 -1300.17 2123.57 -1422.51 1965.1 -1456.1C1857.17 -1478.9 1754.61 -1460.75 1651.54 -1400.6ZM2329.53 -1116.74C2366.14 -1030.19 2386.94 -935.706 2391.37 -835.915C2396.06 -730.623 2382.15 -624.136 2350.05 -519.385C2314.68 -403.828 2268.78 -297.258 2213.6 -202.672C2152.61 -98.1019 2082.78 -12.9225 2006.06 50.5047C1943.65 102.114 1846.76 168.047 1649.79 220.053C1533.79 250.716 1378.33 270.177 1233.92 272.088C1078.63 274.145 944.549 256.059 846.155 219.814C748.491 184.178 685.563 131.43 659.123 63.0714C634.594 -0.681828 641.966 -77.6811 680.94 -167.315C719.47 -255.928 788.925 -356.909 888.982 -469.588C927.581 -512.992 968.117 -563.731 1012.94 -624.693C1023.43 -638.98 1034.49 -654.258 1045.79 -670.104C1084.24 -724.061 1123.02 -781.047 1160.51 -836.167C1233.67 -943.714 1309.32 -1054.92 1387.68 -1151.13C1481.17 -1265.99 1567.82 -1345.86 1652.59 -1395.31C1754.66 -1454.86 1856.26 -1472.82 1963.2 -1450.23C2120.61 -1416.88 2254.13 -1295.33 2329.53 -1116.74Z" fill="#E54846"/>
<path d="M1710.74 -1416.04C1625.3 -1366.2 1538.05 -1285.81 1444.02 -1170.28C1365.44 -1073.81 1289.69 -962.443 1216.43 -854.762C1178.96 -799.68 1140.22 -742.745 1101.8 -688.838C1090.53 -673.025 1079.51 -657.778 1069.03 -643.53C1024.36 -582.77 983.974 -532.235 945.525 -488.99C742.1 -259.926 664.188 -78.195 713.951 51.1911C740.809 120.653 804.439 174.111 903.064 210.119C1001.81 246.517 1136.32 264.654 1292.02 262.597C1436.72 260.698 1592.53 241.19 1708.83 210.432C1812.79 182.978 1947.48 138.781 2067.15 39.7951C2178.8 -52.5212 2276.41 -191.628 2350.18 -361.297C2373.91 -415.863 2395.18 -473.632 2413.66 -533.984C2446.03 -639.607 2460.05 -746.969 2455.33 -853.107C2450.85 -953.612 2429.91 -1048.74 2393.07 -1135.89C2317.18 -1315.61 2182.77 -1437.95 2024.3 -1471.54C1916.37 -1494.34 1813.81 -1476.19 1710.74 -1416.04ZM2388.73 -1132.18C2425.33 -1045.63 2446.14 -951.146 2450.57 -851.355C2455.26 -746.062 2441.35 -639.576 2409.24 -534.825C2373.88 -419.268 2327.98 -312.698 2272.8 -218.112C2211.81 -113.542 2141.97 -28.3621 2065.26 35.0649C2002.85 86.6746 1905.96 152.608 1708.99 204.613C1592.99 235.277 1437.53 254.738 1293.11 256.648C1137.83 258.706 1003.75 240.62 905.353 204.375C807.689 168.739 744.761 115.99 718.322 47.632C693.793 -16.1212 701.164 -93.1205 740.138 -182.754C778.668 -271.368 848.123 -372.348 948.18 -485.027C986.779 -528.431 1027.32 -579.17 1072.14 -640.133C1082.63 -654.419 1093.68 -669.698 1104.99 -685.543C1143.44 -739.501 1182.22 -796.486 1219.71 -851.607C1292.87 -959.154 1368.52 -1070.36 1446.88 -1166.57C1540.37 -1281.43 1627.02 -1361.29 1711.79 -1410.75C1813.86 -1470.3 1915.46 -1488.26 2022.4 -1465.67C2179.81 -1432.32 2313.33 -1310.77 2388.73 -1132.18Z" fill="#E54846"/>
<path d="M1659.94 -1326.65C1579.97 -1280.14 1498.53 -1205.08 1410.97 -1097.21C1338.24 -1007.72 1268.38 -904.447 1200.82 -804.575C1165.53 -752.408 1129.04 -698.471 1092.78 -647.467C1082.27 -632.67 1072 -618.446 1062.25 -605.163C1020.79 -548.691 983.083 -501.551 946.985 -461.059C848.064 -349.885 780.22 -249.844 745.273 -163.716C713.302 -84.877 708.055 -15.7155 729.681 41.878C754.264 106.576 813.278 156.746 905.093 191.007C1022.35 234.76 1167.52 242.322 1268.68 240.945C1403.77 239.115 1549.59 220.746 1658.76 191.784C1755.67 166.163 1881.2 124.924 1992.76 32.7716C2097.28 -53.5028 2188.63 -183.535 2257.56 -342.1C2279.48 -392.491 2299.14 -445.791 2316.23 -501.468C2346.57 -600.021 2359.73 -700.226 2355.34 -799.302C2351.18 -893.224 2331.52 -982.224 2296.92 -1063.79C2225.97 -1231.62 2100.44 -1346.07 1952.48 -1377.83C1851.77 -1399.29 1756.08 -1382.55 1659.94 -1326.65ZM2292.63 -1060.09C2326.98 -979.078 2346.48 -890.751 2350.63 -797.533C2354.99 -699.322 2341.95 -599.985 2311.86 -502.31C2294.87 -446.928 2275.33 -393.955 2253.54 -343.829C2185.12 -186.479 2094.52 -57.444 1990.9 28.0779C1932.75 76.1004 1842.47 137.469 1658.93 186.015C1550.06 214.882 1404.58 233.224 1269.79 235.026C1168.93 236.396 1024.19 228.865 907.414 185.299C816.554 151.386 758.227 101.963 734.067 38.3931C713.025 -17.6659 718.192 -85.1321 749.406 -162.121C751.029 -166.111 752.708 -170.121 754.466 -174.165C790.335 -256.656 855.929 -351.745 949.618 -457.083C985.874 -497.754 1023.74 -545.072 1065.36 -601.766C1075.14 -615.081 1085.44 -629.362 1095.97 -644.172C1132.27 -695.246 1168.8 -749.233 1204.12 -801.433C1271.59 -901.165 1341.35 -1004.28 1413.85 -1093.51C1500.87 -1200.72 1581.72 -1275.24 1661.01 -1321.35C1756.14 -1376.66 1850.87 -1393.23 1950.64 -1371.96C2097.52 -1340.44 2222.16 -1226.76 2292.63 -1060.09Z" fill="#E54846"/>
<path d="M1668.41 -1252.72C1593.91 -1209.56 1518.27 -1139.84 1437.17 -1039.61C1370.25 -957.074 1306.24 -861.835 1244.33 -769.728C1211.26 -720.527 1177.07 -669.659 1143 -621.589C1133.28 -607.865 1123.75 -594.644 1114.7 -582.288C1076.42 -530.053 1041.4 -486.328 1007.66 -448.606C915.858 -345.616 852.768 -253.078 820.128 -173.586C790.139 -100.558 784.939 -36.4085 804.659 17.1212C826.78 77.1541 881.185 124.018 966.392 156.438C1075.53 197.986 1210.57 205.141 1304.61 203.842C1430.09 202.12 1565.92 184.864 1667.98 157.686C1757.82 133.89 1874.21 95.6222 1977.67 10.3037C2075.07 -69.9228 2160.14 -190.892 2224.26 -338.341C2244.35 -384.556 2262.4 -433.412 2278.11 -484.39C2333.62 -663.661 2327.23 -849.315 2260.09 -1007.15C2228.34 -1082.15 2183.03 -1148.25 2129.07 -1198.29C2072.82 -1250.44 2009.21 -1284.53 1940 -1299.6C1846.43 -1319.72 1757.6 -1304.38 1668.41 -1252.72ZM2125.67 -1193.18C2179.26 -1143.51 2224.24 -1077.89 2255.75 -1003.42C2322.34 -846.881 2328.71 -662.852 2273.69 -485.23C2208.35 -273.14 2102.55 -98.8183 1975.77 5.61121C1921.88 50.0524 1838.2 106.856 1668.1 151.918C1566.35 179.007 1430.86 196.21 1305.69 197.93C1211.93 199.24 1077.37 192.111 968.691 150.743C884.468 118.682 830.748 72.5662 809.037 13.6553C789.892 -38.3211 794.991 -100.762 824.232 -171.959C856.494 -250.582 919.111 -342.291 1010.3 -444.606C1044.22 -482.519 1079.38 -526.429 1117.82 -578.867C1126.9 -591.248 1136.45 -604.507 1146.2 -618.288C1180.32 -666.446 1214.55 -717.365 1247.65 -766.598C1309.46 -858.548 1373.37 -953.628 1440.06 -1035.9C1520.6 -1135.46 1595.64 -1204.65 1669.46 -1247.4C1757.66 -1298.5 1845.53 -1313.64 1938.12 -1293.69C2006.74 -1278.75 2069.85 -1244.93 2125.67 -1193.18Z" fill="#E54846"/>
<path d="M1727.28 -1261.73C1652.78 -1218.57 1577.15 -1148.85 1496.04 -1048.63C1429.12 -966.09 1365.11 -870.851 1303.2 -778.743C1270.14 -729.542 1235.94 -678.674 1201.87 -630.604C1192.15 -616.88 1182.62 -603.659 1173.57 -591.304C1135.29 -539.069 1100.27 -495.343 1066.53 -457.622C974.731 -354.631 911.642 -262.093 879.002 -182.601C849.012 -109.573 843.812 -45.4234 863.533 8.10635C885.654 68.1392 940.059 115.003 1025.27 147.423C1134.41 188.971 1269.44 196.126 1363.49 194.827C1488.96 193.105 1624.79 175.849 1726.85 148.671C1816.7 124.875 1933.09 86.6071 2036.55 1.28841C2133.94 -78.9381 2219.02 -199.907 2283.13 -347.357C2303.23 -393.572 2321.28 -442.427 2336.98 -493.405C2392.49 -672.677 2386.1 -858.331 2318.96 -1016.17C2287.21 -1091.17 2241.91 -1157.26 2187.94 -1207.31C2131.7 -1259.46 2068.08 -1293.55 1998.87 -1308.61C1905.3 -1328.74 1816.48 -1313.4 1727.28 -1261.73ZM2184.55 -1202.2C2238.13 -1152.52 2283.12 -1086.91 2314.63 -1012.43C2381.21 -855.897 2387.59 -671.867 2332.57 -494.246C2267.23 -282.156 2161.42 -107.834 2034.64 -3.40407C1980.76 41.0371 1897.07 97.8404 1726.97 142.903C1625.22 169.992 1489.73 187.195 1364.57 188.915C1270.8 190.226 1136.24 183.096 1027.56 141.728C943.341 109.668 889.621 63.5513 867.91 4.6404C848.765 -47.3361 853.864 -109.777 883.106 -180.974C915.367 -259.597 977.985 -351.307 1069.17 -453.621C1103.09 -491.534 1138.25 -535.444 1176.69 -587.882C1185.78 -600.264 1195.33 -613.522 1205.07 -627.303C1239.2 -675.462 1273.43 -726.381 1306.53 -775.614C1368.33 -867.563 1432.24 -962.644 1498.93 -1044.92C1579.48 -1144.47 1654.51 -1213.66 1728.34 -1256.42C1816.53 -1307.51 1904.41 -1322.66 1996.99 -1302.71C2065.62 -1287.77 2128.72 -1253.95 2184.55 -1202.2Z" fill="#E54846"/>
<path d="M1676.84 -1178.77C1607.83 -1138.96 1537.98 -1074.59 1463.35 -981.99C1402.2 -906.336 1343.98 -819.07 1287.71 -734.689C1256.9 -688.505 1225.05 -640.75 1193.21 -595.665C1184.27 -582.995 1175.5 -570.79 1167.13 -559.356C1132.02 -511.358 1099.7 -471.066 1068.32 -436.115C983.65 -341.345 925.328 -256.305 895.013 -183.486C867.051 -116.338 861.867 -57.1692 879.601 -7.62633C899.444 47.7987 949.246 91.3803 1027.63 121.892C1128.66 161.235 1253.53 167.995 1340.5 166.76C1456.35 165.127 1582.21 148.991 1677.13 123.628C1759.9 101.659 1867.16 66.3612 1962.52 -12.1239C2052.78 -86.3084 2131.6 -198.202 2190.88 -334.542C2209.17 -376.6 2225.59 -420.974 2239.92 -467.272C2291.51 -632.769 2285.57 -804.366 2223.18 -950.452C2193.85 -1019.62 2152.01 -1080.7 2102.15 -1127.05C2050.11 -1175.42 1991.33 -1207.13 1927.42 -1221.29C1841.08 -1240.14 1759.11 -1226.22 1676.84 -1178.77ZM2098.79 -1122.02C2148.26 -1076.02 2189.79 -1015.43 2218.89 -946.79C2280.71 -802.008 2286.64 -632.035 2235.55 -468.182C2175.24 -273.27 2077.61 -112.986 1960.67 -16.8802C1911.04 23.9738 1833.96 76.212 1677.29 117.816C1582.64 143.116 1457.17 159.192 1341.6 160.817C1254.94 162.068 1130.52 155.327 1029.99 116.176C952.563 86.0379 903.46 43.2095 884.027 -11.0936C866.856 -59.089 871.938 -116.55 899.125 -181.878C929.084 -253.841 986.907 -338.064 1070.96 -432.158C1102.51 -467.281 1134.99 -507.796 1170.26 -555.997C1178.66 -567.464 1187.45 -579.706 1196.42 -592.408C1228.31 -637.581 1260.2 -685.387 1291.04 -731.603C1347.23 -815.839 1405.33 -902.952 1466.25 -978.326C1540.33 -1070.24 1609.55 -1134.07 1677.88 -1173.49C1759.13 -1220.37 1840.15 -1234.09 1925.55 -1215.47C1988.9 -1201.43 2047.17 -1169.98 2098.79 -1122.02Z" fill="#E54846"/>
<path d="M1685.38 -1104.83C1621.83 -1068.37 1557.8 -1009.33 1489.62 -924.376C1434.19 -855.579 1381.73 -776.211 1331.01 -699.46C1302.52 -656.358 1273.06 -611.766 1243.49 -569.736C1235.32 -558.102 1227.29 -546.9 1219.64 -536.431C1188.13 -493.272 1158.5 -456.37 1129.05 -423.612C1051.48 -337.305 997.888 -259.824 969.885 -193.503C943.997 -132.193 938.857 -77.993 954.619 -32.3627C972.188 18.4794 1017.37 58.7732 1088.94 87.3751C1181.81 124.496 1296.55 130.873 1376.45 129.691C1482.71 128.128 1598.57 113.13 1686.36 89.5635C1762.09 69.4068 1860.2 37.0928 1947.44 -34.5646C2030.58 -102.701 2103.13 -205.526 2157.58 -330.756C2174.04 -368.62 2188.86 -408.569 2201.81 -450.186C2249.46 -601.895 2243.98 -759.431 2186.38 -893.799C2159.47 -957.146 2121.07 -1013.18 2075.33 -1055.85C2027.52 -1100.45 1973.56 -1129.78 1914.96 -1143.02C1835.79 -1160.55 1760.69 -1148.05 1685.38 -1104.83ZM2071.96 -1050.83C2117.32 -1008.5 2155.4 -952.941 2182.08 -890.117C2239.14 -757.066 2244.59 -601.161 2197.47 -451.109C2142.2 -273.369 2052.75 -127.141 1945.61 -39.334C1900.24 -2.06708 1829.77 45.6121 1686.52 83.7264C1599.02 107.216 1483.53 122.173 1377.57 123.729C1297.98 124.909 1183.71 118.563 1091.34 81.6339C1020.73 53.4047 976.231 13.9019 959.064 -35.7993C943.621 -80.5044 948.501 -131.56 973.989 -191.876C1001.66 -257.422 1054.72 -334.03 1131.7 -419.674C1161.32 -452.63 1191.11 -489.729 1222.79 -533.11C1230.46 -543.611 1238.51 -554.85 1246.72 -566.536C1276.35 -608.673 1305.84 -653.297 1334.37 -696.45C1384.99 -773.043 1437.34 -852.234 1492.53 -920.75C1560.15 -1005.01 1623.56 -1063.5 1686.41 -1099.57C1760.72 -1142.21 1834.88 -1154.54 1913.11 -1137.24C1971.13 -1124.08 2024.58 -1095.01 2071.96 -1050.83Z" fill="#E54846"/>
<path d="M1693.94 -1031.02C1635.91 -997.88 1577.66 -944.147 1515.87 -866.727C1466.11 -804.699 1419.35 -733.189 1374.13 -663.999C1348.01 -624.041 1320.99 -582.702 1293.76 -543.791C1286.38 -533.229 1279.1 -523.025 1272.15 -513.49C1244.24 -475.165 1216.54 -440.729 1189.8 -411.106C1053.27 -259.873 1000.88 -144.079 1029.65 -57.0956C1044.95 -10.8365 1085.52 26.1505 1150.28 52.849C1234.97 87.761 1339.57 93.7491 1412.44 92.6301C1509.1 91.1675 1614.95 77.2962 1695.62 55.5076C1764.29 37.1767 1853.26 7.83337 1932.39 -56.9905C2008.25 -118.95 2074.59 -212.926 2124.44 -327.575C2139 -361.056 2152.16 -396.335 2163.74 -433.066C2207.16 -570.931 2202.14 -714.429 2149.58 -837.123C2124.92 -894.71 2089.96 -945.723 2048.49 -984.69C2004.86 -1025.68 1955.74 -1052.61 1902.52 -1064.74C1830.61 -1081.14 1762.39 -1070.09 1693.94 -1031.02ZM2045.09 -979.632C2086.18 -941.028 2120.83 -890.468 2145.26 -833.404C2197.25 -712.039 2202.25 -570.17 2159.36 -433.982C2147.87 -397.527 2134.83 -362.556 2120.37 -329.322C2071.05 -215.881 2005.45 -122.928 1930.54 -61.7279C1889.41 -28.0293 1825.56 15.066 1695.74 49.7213C1615.39 71.4207 1509.89 85.264 1413.52 86.6999C1282.11 88.7113 1199.15 66.3212 1152.7 47.1573C1088.91 20.8622 1049.02 -15.3338 1034.12 -60.4331C1020.7 -101.047 1025.72 -148.378 1049.54 -203.152C1075.21 -262.196 1122.71 -329.878 1192.43 -407.112C1219.34 -436.926 1247.22 -471.578 1275.29 -510.125C1282.28 -519.711 1289.57 -529.953 1296.99 -540.566C1324.29 -579.584 1351.35 -620.974 1377.5 -660.983C1422.61 -729.996 1469.26 -801.353 1518.78 -863.082C1580.01 -939.803 1637.63 -992.996 1694.96 -1025.72C1762.39 -1064.22 1829.66 -1075.08 1900.62 -1058.92C1953.26 -1046.88 2001.87 -1020.21 2045.09 -979.632Z" fill="#E54846"/>
<path d="M1702.52 -957.058C1650.12 -927.335 1597.65 -878.954 1542.1 -809.133C1498.07 -753.8 1456.99 -690.136 1417.24 -628.562C1393.49 -591.755 1368.93 -553.706 1344.03 -517.914C1337.41 -508.368 1330.88 -499.186 1324.65 -490.617C1299.9 -456.515 1274.95 -425.577 1250.53 -398.674C1186.29 -327.893 1143.52 -267.296 1119.79 -213.427C1097.61 -163.154 1092.7 -120.152 1104.65 -81.9084C1117.86 -39.6336 1152.85 -6.8734 1211.58 18.2559C1253.78 36.3133 1329.12 57.413 1448.37 55.5027C1535.43 54.1289 1631.29 41.3772 1704.81 21.3793C1766.42 4.8744 1846.24 -21.5043 1917.28 -79.5135C1985.99 -135.412 2046.09 -220.357 2091.14 -323.972C2103.86 -353.239 2115.41 -384.031 2125.58 -416.049C2165.03 -540.119 2160.45 -669.561 2112.71 -780.544C2090.44 -832.306 2058.94 -878.307 2021.6 -913.575C1982.17 -950.823 1937.9 -975.355 1889.99 -986.549C1825.38 -1001.61 1764.03 -991.98 1702.52 -957.058ZM2018.23 -908.499C2055.2 -873.576 2086.39 -828.046 2108.43 -776.788C2155.59 -667.134 2160.15 -539.341 2121.25 -416.967C2075.52 -273.158 2002.45 -154.993 1915.45 -84.2391C1878.58 -54.1277 1821.33 -15.5726 1704.95 15.5989C1631.72 35.5206 1536.22 48.2065 1449.47 49.5783C1330.8 51.4919 1255.93 30.5102 1214.03 12.5818C1157.09 -11.7734 1121.79 -44.6685 1109.13 -85.1529C1097.78 -121.427 1102.38 -162.316 1123.18 -210.156C1123.39 -210.648 1123.6 -211.139 1123.82 -211.63C1147.18 -264.649 1189.47 -324.529 1253.13 -394.648C1277.73 -421.761 1302.86 -452.915 1327.78 -487.258C1334.04 -495.86 1340.59 -505.098 1347.25 -514.694C1372.22 -550.613 1396.82 -588.713 1420.6 -625.571C1460.24 -686.968 1501.23 -750.473 1545.01 -805.488C1599.98 -874.571 1651.81 -922.4 1703.49 -951.737C1763.99 -986.065 1824.38 -995.528 1888.08 -980.66C1935.46 -969.607 1979.24 -945.336 2018.23 -908.499Z" fill="#E54846"/>
<path d="M1568.36 -751.57C1529.88 -702.878 1494.36 -646.882 1459.98 -592.722C1438.72 -559.212 1416.74 -524.581 1394.3 -492.054C1388.47 -483.582 1382.7 -475.398 1377.16 -467.761C1355.52 -437.833 1333.35 -410.405 1311.29 -386.254C1201.12 -265.704 1159.31 -176.898 1179.68 -106.733C1190.62 -69.0852 1221.11 -39.5164 1272.9 -16.3434C1310.54 0.491516 1377.77 20.177 1484.35 18.3749C1561.15 17.1009 1647.03 5.46875 1714.08 -12.7377C1768.89 -27.6168 1839.8 -51.2178 1902.23 -101.988C1963.81 -151.82 2017.67 -227.746 2057.93 -320.327C2068.82 -345.38 2078.73 -371.671 2087.5 -398.972C2122.98 -509.247 2118.87 -624.645 2075.92 -723.905C2056.04 -769.842 2027.99 -810.818 1994.8 -842.394C1959.59 -875.876 1920.15 -898.06 1877.56 -908.288C1771.28 -933.853 1673.01 -884.043 1568.36 -751.57ZM2071.65 -720.193C2114 -622.268 2118.1 -508.537 2083.17 -399.958C2042.43 -273.282 1977.52 -169.155 1900.42 -106.77C1868.05 -80.4514 1817.65 -46.6484 1714.22 -18.5618C1647.48 -0.425701 1561.96 11.1407 1485.47 12.4127C1379.5 14.211 1312.75 -5.33178 1275.42 -22.0129C1224.61 -44.7331 1194.77 -73.479 1184.2 -109.911C1164.58 -177.437 1205.8 -263.962 1313.88 -382.228C1336.15 -406.583 1358.5 -434.246 1380.33 -464.41C1385.9 -472.097 1391.71 -480.332 1397.57 -488.861C1420.09 -521.527 1442.11 -556.234 1463.42 -589.789C1497.67 -643.777 1533.1 -699.59 1571.31 -747.951C1674.42 -878.465 1771.13 -927.561 1875.64 -902.473C1957.51 -882.805 2030.79 -814.659 2071.65 -720.193Z" fill="#E54846"/>
<path d="M1594.65 -694.037C1561.64 -651.884 1531.58 -603.442 1502.52 -556.589C1483.84 -526.497 1464.53 -495.373 1444.62 -466.219C1439.56 -458.782 1434.54 -451.62 1429.72 -444.931C1411.13 -419.111 1391.74 -395.212 1372.08 -373.883C1276.01 -269.671 1238.72 -192.694 1254.73 -131.632C1263.4 -98.5673 1289.42 -72.203 1334.26 -50.9979C1380.95 -28.921 1447.05 -17.5029 1520.37 -18.8272C1587.5 -20.011 1663.38 -30.5108 1723.37 -46.935C1774.11 -60.8402 1833.25 -80.9331 1887.21 -124.555C1941.67 -168.32 1989.3 -235.228 2024.76 -316.775C2033.81 -337.596 2042.09 -359.405 2049.46 -381.993C2080.95 -478.473 2077.3 -579.81 2039.16 -667.364C2002.64 -751.251 1937.58 -812.092 1865.14 -830.132C1771.54 -853.445 1685.59 -810.207 1594.65 -694.037ZM2034.87 -663.614C2072.42 -577.395 2076.06 -477.726 2045.12 -382.979C2037.83 -360.63 2029.67 -339.104 2020.72 -318.509C1985.79 -238.191 1938.93 -172.318 1885.42 -129.312C1832.26 -86.3286 1773.75 -66.4766 1723.51 -52.7154C1663.83 -36.3804 1588.32 -25.9217 1521.48 -24.7457C1448.66 -23.4285 1383.08 -34.7548 1336.83 -56.6192C1293 -77.3408 1267.63 -102.863 1259.29 -134.636C1249.64 -171.41 1251.1 -235.814 1374.65 -369.8C1394.53 -391.372 1414.12 -415.518 1432.88 -441.579C1437.74 -448.319 1442.8 -455.532 1447.91 -463.039C1467.92 -492.351 1487.27 -523.544 1506 -553.706C1534.94 -600.363 1564.89 -648.628 1597.62 -690.431C1687 -804.605 1771.4 -847.148 1863.2 -824.284C1934.62 -806.504 1998.8 -746.449 2034.87 -663.614Z" fill="#E54846"/>
<path d="M1728.25 -735.561C1692.44 -715.973 1657.36 -683.575 1620.98 -636.533C1593.35 -600.805 1568.65 -559.783 1544.77 -520.09C1528.77 -493.524 1512.25 -466.067 1494.98 -440.414C1490.71 -434.05 1486.45 -427.904 1482.33 -422.148C1466.78 -400.4 1450.17 -380.011 1432.93 -361.536C1349.76 -272.402 1317.98 -209.186 1329.85 -156.573C1336.29 -128.074 1357.82 -104.895 1395.67 -85.6754C1435.79 -65.3091 1492.9 -54.7899 1556.44 -56.0273C1613.93 -57.1152 1679.82 -66.5013 1732.72 -81.1302C1773.31 -92.3737 1825.84 -110.018 1872.25 -147.126C1919.68 -185.051 1961.11 -242.992 1991.73 -313.41C1998.93 -329.961 2005.52 -347.181 2011.46 -365.018C2039 -447.673 2035.79 -534.979 2002.47 -610.847C1970.73 -683.079 1914.79 -735.846 1852.81 -752.012C1809.74 -763.236 1769.01 -757.852 1728.25 -735.561ZM1998.15 -607.084C2014.32 -570.31 2023.39 -531.161 2025.1 -490.739C2026.88 -449.192 2020.82 -407.23 2007.12 -366.054C1976.42 -273.878 1927.88 -197.839 1870.45 -151.908C1846.5 -132.756 1809.2 -108.061 1732.81 -86.9093C1680.23 -72.3449 1614.7 -63.0246 1557.51 -61.9445C1494.5 -60.7214 1437.94 -71.137 1398.27 -91.2603C1361.43 -109.953 1340.54 -132.246 1334.42 -159.397C1329.49 -181.196 1332.65 -205.096 1344.5 -232.342C1359.82 -267.579 1389.69 -308.378 1435.44 -357.432C1452.9 -376.15 1469.73 -396.8 1485.48 -418.821C1489.65 -424.647 1493.96 -430.862 1498.28 -437.296C1515.67 -463.121 1532.25 -490.686 1548.29 -517.321C1572.05 -556.799 1596.63 -597.606 1623.97 -632.965C1699.63 -730.819 1771.7 -766.77 1850.78 -746.156C1911.79 -730.276 1966.88 -678.263 1998.15 -607.084Z" fill="#E54846"/>
<path d="M1647.37 -579.09C1624.98 -549.646 1605.53 -515.867 1586.72 -483.2C1573.55 -460.327 1559.93 -436.682 1545.39 -414.674C1541.9 -409.365 1538.4 -404.235 1534.97 -399.413C1522.38 -381.634 1508.53 -364.762 1493.83 -349.274C1423.88 -275.558 1397.3 -225.422 1405 -181.637C1409.21 -157.653 1426.25 -137.641 1457.09 -120.456C1490.57 -101.811 1538.67 -92.1718 1592.56 -93.3191C1640.43 -94.2993 1696.33 -102.566 1742.11 -115.417C1777.71 -125.413 1819.26 -139.701 1857.32 -169.77C1897.68 -201.667 1932.92 -250.578 1958.71 -309.905C1964.06 -322.205 1969.01 -334.949 1973.5 -348.092C1997.43 -417.939 1994.76 -489.26 1965.79 -554.383C1938.86 -614.934 1892.03 -659.629 1840.51 -673.92C1773.24 -692.565 1710.07 -661.552 1647.37 -579.09ZM1961.5 -550.608C1989.83 -486.888 1992.49 -417.253 1969.19 -349.203C1943.5 -274.191 1903.15 -212.184 1855.55 -174.559C1818.27 -145.097 1777.32 -131.042 1742.19 -121.177C1696.73 -108.415 1641.2 -100.209 1593.64 -99.2304C1540.34 -98.0987 1492.82 -107.592 1459.84 -125.977C1430.03 -142.578 1413.62 -161.624 1409.65 -184.195C1402.42 -225.353 1428.34 -273.485 1496.33 -345.133C1511.28 -360.895 1525.37 -378.066 1538.18 -396.131C1541.65 -401.023 1545.22 -406.235 1548.75 -411.621C1563.41 -433.843 1577.11 -457.589 1590.34 -480.57C1609.02 -513.022 1628.35 -546.561 1650.42 -575.586C1679.82 -614.25 1708.41 -640.704 1737.85 -656.436C1770.65 -673.964 1803.56 -677.788 1838.46 -668.114C1889.02 -654.083 1935.02 -610.157 1961.5 -550.608Z" fill="#E54846"/>
</g>
</svg>
