<svg width="1440" height="1983" viewBox="0 0 1440 1983" fill="none" xmlns="http://www.w3.org/2000/svg">
<path d="M1345.54 54.7449C1286.68 -16.8741 1209.04 -58.6347 1108.2 -72.9443C1024.89 -84.767 923.643 -77.4838 798.692 -50.6782C693.693 -28.1474 582.27 5.64245 474.518 38.3308C347.881 76.7359 216.922 116.464 98.7878 136.86C-114.48 173.699 -254.626 234.469 -317.75 317.467C-372.541 389.493 -369.359 477.116 -308.257 577.895C-246.8 679.285 -140.539 770.792 -62.22 829.71C29.623 898.801 135.956 962.569 222.237 1000.29C305.812 1036.82 418.786 1078.43 551.726 1075.81C637.615 1074.12 730.847 1054.24 828.83 1016.72C871.414 1000.42 914.094 981.141 956.6 959.014C1002.37 935.186 1047.93 908.074 1092.93 877.843C1172.85 824.16 1241.28 759.429 1296.28 685.467C1348.3 615.522 1386.06 540.566 1408.51 462.704C1453.46 306.812 1430.51 158.119 1345.54 54.7449ZM1403.95 462.913C1381.63 540.286 1344.11 614.765 1292.42 684.246C1237.83 757.658 1169.93 821.893 1090.62 875.167C1004.29 933.157 915.909 979.635 827.953 1013.31C730.684 1050.55 638.161 1070.28 552.96 1071.97C483.602 1073.33 383.675 1066.02 225.291 996.776C139.222 959.145 33.1142 895.521 -58.5496 826.558C-136.684 767.779 -242.677 676.5 -303.933 575.461C-364.347 475.787 -367.721 389.413 -313.966 318.737C-289.072 286.018 -251.905 256.796 -202.66 231.161C-129.006 192.819 -28.356 162.509 98.4089 140.623C216.935 120.153 348.092 80.3743 474.921 41.9082C582.545 9.26058 693.825 -24.4809 798.571 -46.9584C924.578 -74 1022.32 -81.051 1106.18 -69.1473C1206.09 -54.9684 1283.04 -13.5559 1341.4 57.4718C1425.83 160.173 1448.63 307.954 1403.95 462.913Z" fill="#E54651"/>
<path d="M1075.73 -22.9973C997.492 -34.1965 902.554 -27.3642 785.512 -2.10352C687.738 18.9652 584.12 50.6506 483.916 81.2775C432.663 96.9484 379.681 113.141 328.441 127.616C313.41 131.863 298.82 135.879 285.077 139.546C226.478 155.188 175.742 166.607 129.92 174.462C-112.652 216.185 -253.485 290.399 -288.686 395.065C-307.497 451.325 -295.411 515.78 -252.791 586.66C-210.295 657.84 -136.375 735.321 -39.056 810.729C51.3785 880.815 157.667 945.468 245.259 983.691C323.535 1017.88 429.347 1056.83 553.807 1054.44C669.91 1052.24 801.19 1014.13 933.315 945.355C975.806 923.235 1018.41 897.921 1060.61 869.634C1134.48 820.142 1197.89 760.532 1249.09 692.453C1297.56 627.984 1333.12 558.737 1354.77 486.604C1399.49 337.884 1378.76 195.898 1297.9 97.0442C1242.79 29.7653 1170.12 -9.49933 1075.73 -22.9973ZM1350.2 486.764C1328.7 558.41 1293.39 627.191 1245.25 691.197C1194.46 758.735 1131.57 817.857 1058.31 866.939C977.525 921.113 894.805 964.527 812.463 995.95C721.434 1030.7 634.825 1049.07 555.051 1050.58C490.151 1051.82 396.626 1044.95 248.322 980.163C160.963 942.029 54.9192 877.522 -35.3455 807.583C-132.408 732.381 -206.09 655.142 -248.447 584.229C-290.663 514.053 -302.676 450.383 -284.17 395.012C-266.83 343.436 -223.012 299.364 -153.213 263.028C-84.2082 227.107 10.2232 198.754 129.541 178.224C175.537 170.344 226.471 158.875 285.268 143.182C299.04 139.5 313.665 135.478 328.731 131.227C380.02 116.739 433.052 100.533 484.334 84.8472C584.405 54.2508 687.879 22.6137 785.386 1.60586C901.754 -23.5129 996.054 -30.3135 1073.68 -19.2029C1167.16 -5.82534 1239.13 33.0809 1293.74 99.7479C1374.05 197.928 1394.64 338.986 1350.2 486.764Z" fill="#E54651"/>
<path d="M1120.2 -3.40762C1041.97 -14.6069 947.028 -7.77457 829.987 17.4861C732.212 38.5549 628.595 70.2403 528.39 100.867C477.137 116.538 424.155 132.731 372.915 147.206C357.884 151.452 343.294 155.469 329.551 159.136C270.952 174.778 220.216 186.197 174.394 194.052C-68.1777 235.775 -209.011 309.989 -244.212 414.654C-263.022 470.914 -250.937 535.37 -208.317 606.25C-165.821 677.43 -91.9014 754.911 5.41813 830.319C95.8527 900.405 202.141 965.058 289.733 1003.28C368.009 1037.47 473.821 1076.42 598.281 1074.03C714.384 1071.83 845.665 1033.72 977.789 964.944C1020.28 942.825 1062.89 917.511 1105.08 889.223C1178.96 839.732 1242.36 780.122 1293.56 712.043C1342.04 647.574 1377.59 578.326 1399.25 506.193C1443.96 357.474 1423.23 215.488 1342.38 116.634C1287.27 49.3548 1214.6 10.0903 1120.2 -3.40762ZM1394.68 506.353C1373.18 578 1337.87 646.781 1289.73 710.786C1238.94 778.325 1176.05 837.446 1102.78 886.529C1022 940.702 939.279 984.116 856.937 1015.54C765.908 1050.28 679.299 1068.66 599.525 1070.17C534.625 1071.41 441.1 1064.54 292.797 999.753C205.437 961.618 99.3933 897.112 9.12863 827.173C-87.9341 751.971 -161.616 674.731 -203.972 603.819C-246.189 533.643 -258.202 469.972 -239.696 414.602C-222.356 363.025 -178.538 318.953 -108.739 282.618C-39.734 246.697 54.6974 218.343 174.015 197.814C220.011 189.934 270.945 178.465 329.742 162.772C343.515 159.089 358.139 155.068 373.205 150.816C424.494 136.328 477.526 120.123 528.809 104.437C628.879 73.8405 732.354 42.2034 829.861 21.1955C946.228 -3.92325 1040.53 -10.7238 1118.16 0.386692C1211.63 13.7642 1283.61 52.6705 1338.21 119.338C1418.53 217.518 1439.11 358.575 1394.68 506.353Z" fill="#E54651"/>
<path d="M1043.22 26.9559C970.056 16.3801 881.434 22.7718 772.297 46.4773C681.697 66.0968 585.845 95.6726 493.149 124.271C444.732 139.21 394.669 154.654 346.245 168.395C332.204 172.387 318.598 176.139 305.796 179.565C251.369 194.132 204.02 204.767 161.055 212.075C43.2074 232.231 -49.7487 260.795 -115.271 296.941C-175.236 330.038 -213.744 370.301 -229.738 416.632C-247.526 468.82 -236.618 528.965 -197.317 595.409C-147.123 680.264 -61.2202 756.444 2.02467 805.408C86.4849 870.807 186.017 931.246 268.283 967.069C341.265 998.922 439.904 1035.19 555.87 1033.05C664.482 1031.07 787.268 995.51 910.735 931.223C949.975 910.796 989.309 887.46 1028.26 861.383C1097.27 815.272 1156.51 759.676 1204.31 696.134C1249.62 635.898 1282.84 571.078 1303.04 503.505C1344.74 364.594 1325.48 231.86 1250.19 139.316C1198.87 76.4286 1131.17 39.6704 1043.22 26.9559ZM1298.5 503.689C1278.43 570.79 1245.45 635.116 1200.49 694.909C1153.11 757.902 1094.4 813.019 1025.99 858.712C987.25 884.654 948.16 907.849 909.126 928.169C786.595 991.955 664.784 1027.27 557.115 1029.23C496.675 1030.34 409.56 1023.89 271.328 963.577C189.294 927.842 89.9922 867.557 5.73116 802.29C-57.3292 753.465 -142.979 677.52 -192.972 593.016C-231.859 527.259 -242.724 467.914 -225.249 416.633C-209.677 371.54 -172.083 332.288 -113.528 299.965C-110.491 298.293 -107.408 296.635 -104.259 294.996C-40.0212 261.556 49.0186 234.952 160.656 215.835C203.81 208.494 251.347 197.827 305.987 183.201C318.824 179.77 332.474 175.995 346.535 172.005C395.024 158.244 445.136 142.788 493.588 127.843C586.155 99.2856 681.864 69.7582 772.191 50.1893C880.654 26.6257 968.643 20.2761 1041.18 30.7605C1128.2 43.3443 1195.22 79.7366 1246.06 142.053C1320.81 233.913 1339.91 365.726 1298.5 503.689Z" fill="#E54651"/>
<path d="M1010.75 76.9238C942.686 66.974 860.375 72.9147 759.123 95.0625C675.662 113.238 587.527 140.717 502.285 167.289C456.753 181.484 409.674 196.157 364.101 209.159C351.093 212.874 338.457 216.37 326.565 219.57C276.261 233.075 232.315 242.918 192.222 249.671C82.9476 268.263 -3.24325 294.521 -63.9553 327.693C-119.733 358.165 -155.656 395.346 -170.756 438.221C-187.688 486.307 -177.943 542.133 -141.791 604.182C-95.4919 683.673 -15.6478 754.609 43.1635 800.122C121.62 860.849 214.404 917.055 291.365 950.482C359.048 979.987 450.525 1013.6 557.996 1011.7C659.122 1009.96 773.402 976.921 888.224 917.148C924.212 898.414 960.284 877.037 995.985 853.189C1121.71 769.467 1212.42 651.305 1251.39 520.455C1270 458.356 1275.68 395.097 1267.83 337.515C1259.65 277.505 1237.69 225.057 1202.58 181.639C1154.99 123.089 1092.25 88.8446 1010.75 76.9238ZM1263.13 339.009C1270.93 396.173 1265.29 458.977 1246.8 520.633C1208.16 650.404 1118.27 767.552 993.685 850.495C845.146 949.708 690.845 1005.6 559.211 1007.85C503.235 1008.85 422.531 1002.82 294.379 946.967C217.656 913.639 125.111 857.569 46.8446 796.991C-11.7969 751.625 -91.3628 680.936 -137.465 601.787C-173.194 540.445 -182.895 485.418 -166.282 438.229C-151.618 396.6 -116.629 360.428 -62.2475 330.722C-2.21233 297.902 83.2642 271.925 191.813 253.449C232.116 246.666 276.245 236.78 326.747 223.224C338.679 220.029 351.344 216.518 364.396 212.78C410.049 199.75 457.177 185.064 502.744 170.864C587.842 144.34 675.834 116.909 759.022 98.7848C859.58 76.7764 941.253 70.8674 1008.7 80.736C1089.28 92.5185 1151.34 126.415 1198.41 184.371C1233.22 227.424 1255 279.456 1263.13 339.009Z" fill="#E54651"/>
<path d="M1051.75 100.333C983.686 90.3836 901.374 96.3243 800.122 118.472C716.661 136.647 628.526 164.126 543.284 190.699C497.752 204.894 450.673 219.567 405.1 232.569C392.092 236.284 379.456 239.78 367.564 242.98C317.26 256.485 273.314 266.328 233.22 273.081C123.946 291.673 37.7553 317.931 -22.9568 351.103C-78.7346 381.575 -114.658 418.756 -129.758 461.631C-146.689 509.717 -136.945 565.544 -100.792 627.592C-54.4935 707.084 25.3506 778.02 84.162 823.532C162.619 884.259 255.403 940.466 332.364 973.892C400.047 1003.4 491.524 1037.01 598.995 1035.11C700.121 1033.37 814.402 1000.33 929.223 940.558C965.212 921.824 1001.28 900.447 1036.98 876.599C1162.71 792.877 1253.42 674.714 1292.38 543.865C1311 481.765 1316.68 418.507 1308.83 360.925C1300.65 300.915 1278.69 248.466 1243.58 205.049C1195.99 146.498 1133.25 112.254 1051.75 100.333ZM1304.13 362.419C1311.93 419.582 1306.29 482.387 1287.8 544.043C1249.16 673.813 1159.27 790.962 1034.68 873.905C886.145 973.118 731.844 1029.01 600.21 1031.26C544.234 1032.26 463.53 1026.23 335.378 970.377C258.655 937.049 166.11 880.979 87.8431 820.401C29.2015 775.035 -50.3644 704.346 -96.4667 625.197C-132.195 563.855 -141.897 508.828 -125.284 461.639C-110.62 420.01 -75.6304 383.838 -21.2491 354.132C38.7862 321.312 124.263 295.335 232.812 276.859C273.114 270.075 317.243 260.19 367.746 246.633C379.678 243.439 392.343 239.928 405.395 236.19C451.048 223.16 498.176 208.474 543.743 194.274C628.841 167.749 716.834 140.319 800.021 122.194C900.579 100.186 982.253 94.277 1049.7 104.146C1130.28 115.928 1192.34 149.824 1239.41 207.78C1274.22 250.833 1296 302.866 1304.13 362.419Z" fill="#E54651"/>
<path d="M978.271 126.889C915.297 117.565 839.29 123.045 745.934 143.655C669.549 160.407 589.06 185.798 511.243 210.361C468.645 223.799 424.605 237.7 381.931 249.95C369.943 253.395 358.297 256.637 347.291 259.598C301.108 272.041 260.58 281.085 223.358 287.283C122.687 304.296 43.2665 328.257 -12.6062 358.439C-64.1318 386.268 -97.5054 420.371 -111.801 459.797C-127.792 503.906 -119.221 555.433 -86.311 612.94C-43.9079 687.068 29.8578 752.757 84.2557 794.82C156.723 850.868 242.766 902.853 314.386 933.887C376.77 961.045 461.085 992.001 560.062 990.341C653.696 988.836 759.482 958.334 865.652 903.065C898.404 886.016 931.184 866.614 963.647 844.987C1079.93 767.868 1163.75 658.633 1199.66 537.404C1216.79 480.112 1222.06 421.665 1214.86 368.392C1207.35 312.799 1187.18 264.203 1154.88 223.958C1111.11 169.756 1053.33 138.008 978.271 126.889ZM1210.22 369.855C1217.36 422.718 1212.14 480.703 1195.14 537.562C1159.54 657.702 1076.54 765.922 961.411 842.272C824.741 933.322 682.651 984.538 561.346 986.486C509.83 987.353 435.536 981.754 317.455 930.37C246.032 899.429 160.255 847.593 87.9715 791.685C33.7488 749.778 -39.744 684.325 -81.9398 610.56C-114.446 553.757 -122.969 503.041 -107.297 459.829C-93.4422 421.638 -61.0022 388.543 -10.8837 361.461C44.3322 331.633 123.028 307.933 222.974 291.036C260.39 284.814 301.131 275.713 347.511 263.218C358.552 260.252 370.228 256.995 382.251 253.545C425.004 241.267 469.093 227.353 511.726 213.91C589.419 189.399 669.76 164.045 745.857 147.352C838.525 126.891 913.874 121.44 976.22 130.673C1050.36 141.644 1107.45 173.044 1150.76 226.639C1182.77 266.54 1202.76 314.719 1210.22 369.855Z" fill="#E54651"/>
<path d="M945.848 176.902C887.963 168.194 818.272 173.233 732.8 192.285C663.45 207.608 590.549 230.943 520.053 253.51C480.459 266.181 439.507 279.297 399.797 290.774C388.814 293.959 378.137 296.943 368.071 299.663C326.58 310.879 289.444 319.149 254.535 324.94C162.566 340.205 89.9243 361.812 38.7946 389.108C-8.4722 414.34 -39.2855 445.387 -52.8054 481.418C-67.8651 521.569 -60.4714 568.785 -30.8048 621.751C7.68658 690.483 75.3844 750.947 125.389 789.564C191.882 840.925 271.168 888.695 337.463 917.33C394.568 942.142 471.701 970.438 562.178 969.01C648.326 967.746 745.612 939.774 843.131 889.009C872.616 873.66 902.148 856.21 931.373 836.804C1038.19 766.285 1115.12 665.99 1148.01 554.376C1163.68 501.882 1168.51 448.252 1161.98 399.291C1155.16 348.118 1136.75 303.372 1107.27 266.311C1067.25 216.459 1014.44 187.217 945.848 176.902ZM1157.33 400.744C1163.8 449.305 1159.02 502.481 1143.48 554.542C1110.92 665.068 1034.8 764.34 929.157 834.092C804.362 916.988 674.497 963.525 563.482 965.157C516.425 965.897 448.547 960.733 340.541 913.795C274.464 885.256 195.428 837.642 129.119 786.42C79.3048 747.953 11.8906 687.746 -26.3935 619.376C-55.6563 567.114 -63.0313 520.724 -48.3047 481.479C-35.0591 446.178 -6.01007 416.951 40.5023 392.137C91.0288 365.155 162.901 343.831 254.166 328.685C289.278 322.853 326.617 314.543 368.321 303.268C378.422 300.544 389.128 297.543 400.161 294.347C439.965 282.833 480.951 269.712 520.594 257.029C590.947 234.51 663.691 211.231 732.753 195.967C817.521 177.071 886.554 172.061 943.806 180.668C1011.49 190.845 1063.63 219.731 1103.18 268.976C1132.34 305.709 1150.57 350.038 1157.33 400.744Z" fill="#E54651"/>
<path d="M913.504 226.846C860.729 218.795 797.319 223.399 719.638 240.929C657.245 254.85 591.872 276.122 528.631 296.714C492.111 308.607 454.327 320.911 417.651 331.606C407.701 334.513 398 337.251 388.839 339.734C352.043 349.734 317.354 357.422 285.719 362.606C124.192 389.057 32.7622 434.994 6.19753 503.049C-7.93094 539.24 -1.70055 582.138 24.7283 630.573C59.2879 693.908 120.913 749.135 166.534 784.326C227.05 831.028 299.568 874.564 360.552 900.792C412.358 923.256 482.328 948.893 564.311 947.708C642.803 946.681 731.74 921.136 821.02 874.66C847.091 861.088 873.215 845.712 899.102 828.658C996.246 764.636 1066.3 673.261 1096.36 571.364C1110.48 523.543 1114.87 474.722 1109.1 430.16C1103.02 383.278 1086.38 342.404 1059.67 308.682C1023.56 263.104 975.75 236.353 913.504 226.846ZM1104.42 431.618C1110.15 475.772 1105.79 524.157 1091.8 571.545C1062.06 672.335 992.818 762.685 896.86 825.933C871.169 842.859 845.275 858.102 819.395 871.574C731.057 917.56 643.105 942.841 565.58 943.86C522.967 944.481 461.515 939.733 363.58 897.269C302.834 871.139 230.546 827.758 170.23 781.188C87.9485 717.711 48.0703 662.983 29.1209 628.234C3.09187 580.532 -3.11989 538.46 10.6608 503.181C23.0702 471.41 50.3094 444.562 92.9629 422.358C138.942 398.423 202.822 379.887 285.306 366.374C317.15 361.159 352.056 353.423 389.064 343.365C398.275 340.869 408.005 338.115 418.005 335.196C454.775 324.465 492.609 312.149 529.178 300.243C592.261 279.707 657.486 258.474 719.576 244.618C796.554 227.245 859.306 222.671 911.433 230.628C972.761 239.985 1019.89 266.388 1055.52 311.349C1081.93 344.735 1098.39 385.193 1104.42 431.618Z" fill="#E54651"/>
<path d="M881.097 276.888C833.548 269.5 776.438 273.632 706.489 289.527C651.055 302.124 593.189 321.329 537.219 339.9C503.767 351.006 469.179 362.481 435.536 372.393C426.576 375.046 417.859 377.52 409.639 379.762C376.946 388.697 345.744 395.576 316.931 400.218C241.118 412.427 183.776 428.904 141.639 450.591C102.292 470.812 77.3336 495.037 65.2227 524.615C51.8369 557.311 56.7677 594.839 80.2638 639.328C97.1496 671.298 132.976 721.476 207.682 779.022C262.209 821.045 327.985 860.358 383.637 884.177C430.145 904.293 492.948 927.262 566.45 926.312C637.437 925.522 717.903 902.493 798.59 860.49C821.381 848.626 844.218 835.235 866.831 820.408C954.483 762.973 1017.65 680.526 1044.72 588.258C1057.34 545.223 1061.32 501.214 1056.21 460.971C1050.83 418.481 1035.96 381.476 1012.05 350.945C979.779 309.795 936.938 285.55 881.097 276.888ZM1051.55 462.46C1056.6 502.302 1052.67 545.867 1040.16 588.477C1013.41 679.638 951.071 761.053 864.621 817.706C763.026 884.279 657.593 921.494 567.73 922.485C529.577 922.978 474.526 918.672 386.671 880.664C331.237 856.942 265.72 817.767 211.383 775.894C137.031 718.633 101.441 668.764 84.6724 637.02C61.8824 593.887 56.8285 556.123 69.6431 524.808C81.1226 496.747 104.813 473.679 142.067 454.286C142.449 454.087 142.832 453.888 143.214 453.689C184.69 432.347 241.374 416.081 316.483 403.991C345.519 399.311 376.939 392.384 409.859 383.383C418.115 381.136 426.875 378.639 435.885 375.973C469.636 366.017 504.273 354.529 537.775 343.411C593.588 324.896 651.31 305.74 706.427 293.216C775.643 277.493 832.075 273.388 878.986 280.665C933.899 289.196 976.063 313.075 1007.87 353.657C1031.53 383.838 1046.22 420.437 1051.55 462.46Z" fill="#E54651"/>
<path d="M693.375 338.12C644.759 349.336 594.242 366.531 545.374 383.154C515.144 393.445 483.892 404.071 453.437 413.174C445.51 415.55 437.769 417.777 430.454 419.783C401.813 427.666 374.118 433.738 348.162 437.833C218.581 458.259 147.452 492.688 124.267 546.184C111.837 574.896 115.614 608.232 135.824 648.097C150.508 677.06 182.042 722.367 248.86 773.742C296.992 810.774 356.027 845.865 406.764 867.606C448.237 885.38 504.118 905.684 568.601 904.975C632.087 904.433 704.103 883.922 776.198 846.392C795.707 836.236 815.238 824.828 834.584 812.237C912.742 761.389 969.04 687.874 993.097 605.231C1004.23 566.982 1007.78 527.782 1003.35 491.872C998.657 453.79 985.579 420.621 964.46 393.309C911.784 325.131 825.627 307.593 693.375 338.12ZM988.56 605.424C964.819 686.95 909.364 759.426 832.407 809.491C742.627 867.903 649.404 900.446 569.926 901.125C536.491 901.487 488.095 897.608 409.822 864.068C359.308 842.433 300.533 807.481 252.591 770.598C186.152 719.522 154.845 674.542 140.269 645.822C120.439 606.725 116.646 574.221 128.685 546.444C150.986 494.949 220.585 461.643 347.714 441.606C373.899 437.483 401.826 431.355 430.7 423.416C438.064 421.398 445.855 419.158 453.826 416.759C484.41 407.616 515.72 396.959 546.005 386.666C594.71 370.088 645.074 352.96 693.353 341.815C823.654 311.741 908.481 328.953 960.309 395.967C1000.9 448.47 1011.46 526.778 988.56 605.424Z" fill="#E54651"/>
<path d="M680.294 386.709C638.396 396.57 595.11 411.776 553.251 426.488C526.357 435.93 498.551 445.704 471.376 453.96C464.454 456.074 457.697 458.038 451.308 459.81C426.65 466.651 402.477 471.908 379.442 475.436C266.906 492.683 204.603 522.008 183.37 567.723C171.871 592.476 174.514 621.622 191.427 656.843C209.041 693.515 244.086 733.141 290.096 768.431C332.209 800.76 384.481 831.628 429.943 850.994C468.407 867.37 515.22 884.049 570.825 883.6C626.81 883.306 690.375 865.314 753.877 832.257C770.091 823.816 786.331 814.383 802.403 804.018C871.069 759.758 920.481 695.181 941.541 622.156C961.729 552.197 952.526 482.467 916.935 435.615C870.944 375.071 795.756 359.528 680.294 386.709ZM936.975 622.365C916.231 694.272 867.661 757.81 800.226 801.273C784.319 811.525 768.3 820.843 752.263 829.192C689.717 861.751 627.157 879.482 572.14 879.768C517.359 880.219 471.061 863.703 432.977 847.482C387.753 828.214 335.73 797.503 293.803 765.313C248.106 730.265 213.335 690.953 195.884 654.628C179.348 620.203 176.674 591.896 187.722 568.108C200.503 540.572 234.245 501.392 378.95 479.232C402.243 475.661 426.668 470.35 451.553 463.443C457.992 461.658 464.799 459.682 471.785 457.548C499.103 449.243 526.973 439.449 553.931 429.987C595.618 415.338 638.746 400.188 680.292 390.406C793.774 363.695 867.647 378.903 912.749 438.278C947.848 484.471 956.908 553.283 936.975 622.365Z" fill="#E54651"/>
<path d="M784.074 426.783C751.944 421.281 713.735 424.075 667.256 435.302C631.957 443.83 595.768 457.079 560.764 469.908C537.33 478.489 513.112 487.36 489.358 494.75C483.47 496.588 477.702 498.297 472.218 499.833C451.515 505.648 430.849 510.098 410.77 513.054C313.903 527.316 262.018 550.825 242.535 589.269C231.983 610.094 233.477 635.058 247.079 665.604C261.502 697.981 291.447 732.622 331.37 763.153C367.468 790.79 412.993 817.425 453.161 834.416C483.989 847.44 525.464 862.378 573.082 862.248C621.743 862.11 676.907 846.623 731.743 818.077C744.631 811.368 757.485 803.945 770.255 795.822C829.424 758.177 871.956 702.511 890.034 639.096C907.243 578.72 899.558 518.478 869.478 477.938C848.57 449.772 820.639 433.046 784.074 426.783ZM885.448 639.303C876.692 670.046 862.34 698.766 842.791 724.654C822.704 751.266 797.564 774.279 768.097 793.04C702.118 835.027 633.337 858.229 574.406 858.398C549.834 858.469 514.183 855.4 456.164 830.881C416.225 814.006 370.96 787.51 335.046 760.012C295.461 729.736 265.802 695.429 251.537 663.427C238.289 633.703 236.739 609.604 246.796 589.767C254.867 573.838 269.007 560.587 290.223 549.542C317.663 535.258 356.93 524.69 410.232 516.834C430.569 513.835 451.508 509.334 472.474 503.448C478.022 501.892 483.853 500.163 489.805 498.305C513.723 490.869 538.034 481.962 561.532 473.36C596.35 460.603 632.351 447.426 667.283 438.984C763.96 415.626 826.85 428.847 865.236 480.565C894.863 520.451 902.403 579.803 885.448 639.303Z" fill="#E54651"/>
<path d="M654.284 483.886C625.426 491.099 596.176 502.447 567.893 513.422C548.088 521.107 527.613 529.049 507.401 535.522C502.532 537.09 497.755 538.545 493.176 539.844C476.327 544.658 459.163 548.291 442.174 550.644C361.338 561.863 319.342 579.833 301.775 610.749C292.152 627.683 292.483 648.472 302.79 674.307C313.983 702.345 338.812 732.009 372.716 757.837C402.81 780.803 441.593 803.216 476.45 817.8C503.56 829.141 536.531 840.749 575.395 840.866C616.615 840.983 663.339 828.035 709.539 803.986C719.117 798.999 728.674 793.541 738.155 787.613C788.56 756.124 823.276 710.626 838.568 656.014C852.79 605.238 846.622 554.484 822.054 520.257C789.968 475.577 735.098 463.68 654.284 483.886ZM833.992 656.241C819.019 709.668 785.16 754.119 736.055 784.801C681.926 818.621 625.36 837.162 576.745 837.029C538.67 836.919 506.189 825.461 479.438 814.272C444.819 799.787 406.301 777.523 376.397 754.707C342.862 729.156 318.326 699.876 307.307 672.243C297.34 647.276 296.9 627.392 305.959 611.458C322.471 582.396 363.037 565.341 441.606 554.44C458.888 552.038 476.355 548.34 493.486 543.457C498.129 542.138 502.991 540.665 507.918 539.066C528.317 532.522 548.891 524.554 568.79 516.834C596.886 505.93 625.939 494.672 654.382 487.558C692.274 478.085 723.445 475.78 749.667 480.531C778.885 485.826 801.178 499.662 817.829 522.848C841.936 556.44 847.979 606.306 833.992 656.241Z" fill="#E54651"/>
<path d="M641.416 532.482C618.829 538.415 596.301 547.91 574.525 557.09C558.532 563.835 541.998 570.797 525.538 576.323C521.674 577.629 517.88 578.82 514.242 579.878C500.981 583.752 487.715 586.504 473.691 588.267C408.275 596.488 376.727 608.809 361.162 632.219C352.426 645.36 351.594 661.975 358.595 683.04C366.46 706.698 386.194 731.388 414.145 752.57C438.266 770.887 470.302 789.068 499.822 801.231C521.294 810.075 547.362 819.164 577.786 819.521C611.577 819.915 649.887 809.519 687.405 789.988C693.673 786.725 699.922 783.211 706.127 779.432C746.904 754.666 774.936 717.845 787.205 672.944C798.454 631.76 793.789 590.503 774.732 562.588C749.362 525.421 705.753 515.577 641.416 532.482ZM782.64 673.191C770.708 716.872 743.558 752.62 704.13 776.567C661.877 802.233 617.521 816.102 579.2 815.664C549.551 815.322 523.946 806.37 502.815 797.676C473.538 785.62 441.762 767.579 417.83 749.411C390.285 728.54 370.865 704.275 363.151 681.086C356.452 660.961 357.107 645.3 365.15 633.199C379.548 611.534 409.804 600.001 473.029 592.06C487.386 590.254 500.959 587.446 514.562 583.473C518.284 582.397 522.171 581.171 526.114 579.836C542.816 574.237 559.468 567.214 575.59 560.428C597.154 551.345 619.436 541.952 641.557 536.131C703.806 519.777 745.961 529.269 770.466 565.135C789.122 592.423 793.678 632.823 782.64 673.191Z" fill="#E54651"/>
<path d="M628.688 581.135C612.085 585.847 596.001 593.567 580.443 601.039C568.533 606.756 556.235 612.661 543.824 617.163C540.866 618.233 538.141 619.142 535.473 619.943C525.868 622.867 516.035 624.812 505.417 625.899C459.904 630.576 435.639 635.907 420.819 653.599C412.894 663.054 410.845 675.535 414.577 691.72C419.002 710.926 433.637 730.669 455.778 747.301C482.036 767.065 511.813 780.009 523.398 784.662C539.216 791.015 558.362 797.583 580.361 798.172C606.798 798.881 636.656 791.109 665.376 776.158C668.348 774.611 671.318 772.986 674.279 771.275C705.45 753.272 726.797 725.129 736.05 689.882C742.45 665.498 743.584 630.389 727.634 604.958C709.281 575.737 675.99 567.717 628.688 581.135ZM731.463 690.194C722.432 724.646 702.553 750.941 672.405 768.359C642.067 785.876 609.918 795.102 581.846 794.343C560.567 793.771 541.845 787.335 526.356 781.111C514.893 776.512 485.425 763.695 459.448 744.149C437.779 727.885 423.487 708.657 419.191 690.023C415.758 675.093 417.518 663.35 424.441 655.097C428.421 650.348 433.173 646.581 439.058 643.517C452.992 636.264 473.263 632.96 504.627 629.732C515.646 628.593 525.852 626.571 535.862 623.528C538.624 622.691 541.477 621.742 544.564 620.631C557.311 616.02 569.77 610.03 581.827 604.237C597.115 596.892 612.929 589.3 628.963 584.754C674.08 571.951 705.81 579.594 723.302 607.449C738.843 632.166 737.703 666.402 731.463 690.194Z" fill="#E54651"/>
<path d="M616.206 629.974C605.344 633.499 595.458 639.547 585.9 645.398C578.312 650.04 570.455 654.848 562.319 658.222C560.443 659.002 558.703 659.647 556.96 660.215C550.739 662.238 544.557 663.367 537.51 663.731C533.139 663.956 529.165 664.118 525.316 664.267C505.74 665.028 492.816 665.527 481.032 675.005C473.925 680.715 470.32 689.775 470.851 700.495C471.813 719.298 485.993 733.57 497.702 742.232C514.972 755.039 536.18 764.06 547.286 768.295C557.385 772.141 569.539 776.197 583.193 777.029C601.346 778.132 621.323 773.545 642.546 763.411C643.372 763.02 644.171 762.617 644.981 762.196C665.373 751.58 678.885 733.027 685.183 707.011C689.293 690.048 690.29 665.525 680.83 647.568C669.483 626.022 647.129 619.936 616.206 629.974ZM680.596 707.361C674.422 732.896 661.187 750.651 641.177 760.206C620.971 769.85 602.019 774.217 584.872 773.178C571.818 772.385 560.029 768.453 550.222 764.703C539.278 760.527 518.379 751.633 501.391 739.045C490.113 730.707 476.482 717.024 475.575 699.224C475.097 689.757 478.023 681.978 483.808 677.321C493.824 669.259 505.253 668.834 524.2 668.087C528.07 667.94 532.063 667.781 536.469 667.551C544.06 667.152 550.738 665.935 557.516 663.726C559.422 663.112 561.335 662.404 563.392 661.542C572.036 657.957 580.132 652.998 587.95 648.222C597.582 642.333 606.685 636.759 616.748 633.493C645.685 624.097 665.763 629.617 676.451 649.86C685.565 667.188 684.57 690.927 680.596 707.361Z" fill="#E54651"/>
<path d="M604.056 679.737C598.415 682.23 594.391 686.858 590.512 691.333C587.425 694.886 584.516 698.242 581.081 700.265C580.352 700.697 579.635 701.044 578.906 701.332C572.078 703.985 567.612 701.908 562.451 699.502C557.275 697.103 551.418 694.366 542.562 697.004C535.926 698.983 529.86 704.178 527.842 709.643C524.063 719.877 528.223 729.413 540.218 737.979C547.836 743.417 558.469 748.395 571.811 752.76C588.709 758.277 601.206 759.438 611.152 756.415C613.025 755.845 614.797 755.119 616.46 754.253C626.009 749.282 632.198 739.439 634.904 724.879C635.518 721.568 638.392 704.387 634.658 691.142C632.41 683.196 628.195 678.403 622.125 676.874C617.161 675.671 611.092 676.623 604.056 679.737ZM630.049 692.993C632.826 702.818 631.891 716.613 630.26 725.442C627.421 740.75 621.026 749.734 610.739 752.856C602.103 755.484 590.268 754.266 574.562 749.134C561.537 744.878 551.21 740.054 543.852 734.794C532.932 727.001 529.06 718.556 532.328 709.711C533.456 706.668 536.461 703.641 539.978 701.81C540.934 701.312 541.933 700.897 542.937 700.597C549.786 698.559 554.424 700.715 559.331 702.993C564.66 705.47 570.709 708.289 579.818 704.736C580.907 704.313 581.982 703.792 583.039 703.164C587.413 700.573 590.802 696.667 594.091 692.891C597.668 688.77 601.048 684.881 605.272 683.009C611.016 680.463 615.851 679.657 619.659 680.613C624.579 681.839 628.079 686.012 630.049 692.993Z" fill="#E54651"/>
</svg>
