<svg width="3697" height="3754" viewBox="0 0 3697 3754" fill="none" xmlns="http://www.w3.org/2000/svg">
<g opacity="0.8">
<path d="M2231.63 891.663C2116.54 867.549 2007.12 887.124 1897.11 951.484C1806.21 1004.66 1713.16 1090.39 1612.64 1213.56C1528.18 1317.07 1446.5 1436.55 1367.52 1552.1C1274.68 1687.9 1178.69 1828.34 1079.68 1939.97C900.956 2141.51 812.906 2309.6 817.971 2439.54C822.354 2552.32 895.913 2635.28 1036.63 2686.09C1178.19 2737.22 1355.57 2743.91 1479.45 2740.53C1624.73 2736.57 1779.87 2716.16 1894.49 2685.93C2005.51 2656.65 2149.33 2609.48 2277.09 2503.68C2359.64 2435.33 2434.74 2343.54 2500.29 2230.87C2528.79 2181.91 2554.98 2129.96 2578.71 2075.38C2604.27 2016.6 2626.98 1954.78 2646.64 1890.36C2681.55 1775.95 2696.35 1659.7 2690.61 1544.87C2685.2 1436.28 2661.82 1333.87 2621.15 1240.52C2539.72 1053.62 2397.75 926.466 2231.63 891.663ZM2616.86 1244.27C2657.27 1337.03 2680.49 1438.79 2685.87 1546.68C2691.56 1660.65 2676.87 1776.01 2642.23 1889.54C2604.51 2013.13 2555.54 2127.08 2496.7 2228.23C2431.61 2340.07 2357.09 2431.17 2275.21 2498.98C2208.55 2554.17 2105.05 2624.65 1894.65 2680.14C1780.31 2710.29 1625.5 2730.66 1480.5 2734.61C1356.91 2737.98 1179.98 2731.3 1038.9 2680.36C899.741 2630.09 826.999 2548.5 822.688 2437.84C820.7 2386.61 833.515 2329.25 861.012 2266.02C902.138 2171.43 976.094 2063.71 1082.34 1943.93C1181.67 1831.92 1277.81 1691.28 1370.79 1555.28C1449.68 1439.87 1531.26 1320.55 1615.52 1217.28C1716.87 1093.06 1806.69 1010.28 1898.18 956.759C2007.19 892.992 2115.65 873.61 2229.78 897.533C2394.84 932.097 2535.92 1058.48 2616.86 1244.27Z" fill="#E54846"/>
<path d="M1905.54 1025.4C1820.11 1075.24 1732.85 1155.63 1638.82 1271.16C1560.25 1367.63 1484.5 1479 1411.23 1586.68C1373.76 1641.76 1335.02 1698.69 1296.6 1752.6C1285.33 1768.42 1274.31 1783.66 1263.83 1797.91C1219.16 1858.67 1178.78 1909.21 1140.33 1952.45C936.902 2181.51 858.989 2363.24 908.753 2492.63C935.611 2562.09 999.241 2615.55 1097.87 2651.56C1196.61 2687.96 1331.12 2706.09 1486.82 2704.04C1631.52 2702.14 1787.34 2682.63 1903.64 2651.87C2007.6 2624.42 2142.28 2580.22 2261.95 2481.24C2373.6 2388.92 2471.21 2249.81 2544.99 2080.14C2568.71 2025.58 2589.98 1967.81 2608.46 1907.46C2640.84 1801.83 2654.85 1694.47 2650.13 1588.33C2645.65 1487.83 2624.71 1392.7 2587.87 1305.55C2511.98 1125.83 2377.57 1003.49 2219.1 969.901C2111.17 947.101 2008.61 965.254 1905.54 1025.4ZM2583.53 1309.26C2620.14 1395.81 2640.94 1490.29 2645.37 1590.09C2650.06 1695.38 2636.15 1801.86 2604.05 1906.62C2568.68 2022.17 2522.78 2128.74 2467.6 2223.33C2406.61 2327.9 2336.78 2413.08 2260.06 2476.51C2197.65 2528.11 2100.76 2594.05 1903.79 2646.05C1787.79 2676.72 1632.33 2696.18 1487.92 2698.09C1332.63 2700.15 1198.55 2682.06 1100.16 2645.81C1002.49 2610.18 939.563 2557.43 913.123 2489.07C888.594 2425.32 895.966 2348.32 934.94 2258.69C973.47 2170.07 1042.92 2069.09 1142.98 1956.41C1181.58 1913.01 1222.12 1862.27 1266.94 1801.31C1277.43 1787.02 1288.49 1771.74 1299.79 1755.9C1338.24 1701.94 1377.02 1644.95 1414.51 1589.83C1487.67 1482.29 1563.32 1371.08 1641.68 1274.87C1735.17 1160.01 1821.82 1080.15 1906.59 1030.69C2008.66 971.142 2110.26 953.176 2217.2 975.772C2374.61 1009.12 2508.13 1130.67 2583.53 1309.26Z" fill="#E54846"/>
<path d="M1964.74 1009.96C1879.3 1059.8 1792.05 1140.19 1698.02 1255.72C1619.44 1352.19 1543.69 1463.56 1470.43 1571.24C1432.96 1626.32 1394.22 1683.26 1355.8 1737.16C1344.53 1752.98 1333.51 1768.22 1323.03 1782.47C1278.36 1843.23 1237.97 1893.77 1199.53 1937.01C996.1 2166.07 918.188 2347.81 967.951 2477.19C994.809 2546.65 1058.44 2600.11 1157.06 2636.12C1255.81 2672.52 1390.32 2690.65 1546.02 2688.6C1690.72 2686.7 1846.53 2667.19 1962.83 2636.43C2066.79 2608.98 2201.48 2564.78 2321.15 2465.8C2432.8 2373.48 2530.41 2234.37 2604.18 2064.7C2627.91 2010.14 2649.18 1952.37 2667.66 1892.02C2700.03 1786.39 2714.05 1679.03 2709.33 1572.89C2704.85 1472.39 2683.91 1377.26 2647.07 1290.11C2571.18 1110.39 2436.77 988.049 2278.3 954.461C2170.37 931.661 2067.81 949.814 1964.74 1009.96ZM2642.73 1293.82C2679.33 1380.37 2700.14 1474.85 2704.57 1574.65C2709.26 1679.94 2695.35 1786.42 2663.24 1891.18C2627.88 2006.73 2581.98 2113.3 2526.8 2207.89C2465.81 2312.46 2395.97 2397.64 2319.26 2461.07C2256.85 2512.68 2159.96 2578.61 1962.99 2630.61C1846.99 2661.28 1691.53 2680.74 1547.11 2682.65C1391.83 2684.71 1257.75 2666.62 1159.35 2630.38C1061.69 2594.74 998.761 2541.99 972.322 2473.63C947.793 2409.88 955.164 2332.88 994.138 2243.25C1032.67 2154.63 1102.12 2053.65 1202.18 1940.97C1240.78 1897.57 1281.32 1846.83 1326.14 1785.87C1336.63 1771.58 1347.68 1756.3 1358.99 1740.46C1397.44 1686.5 1436.22 1629.51 1473.71 1574.39C1546.87 1466.85 1622.52 1355.64 1700.88 1259.43C1794.37 1144.57 1881.02 1064.71 1965.79 1015.25C2067.86 955.702 2169.46 937.736 2276.4 960.332C2433.81 993.681 2567.33 1115.23 2642.73 1293.82Z" fill="#E54846"/>
<path d="M1913.94 1099.35C1833.97 1145.86 1752.53 1220.92 1664.97 1328.79C1592.24 1418.28 1522.38 1521.55 1454.82 1621.43C1419.53 1673.59 1383.04 1727.53 1346.78 1778.53C1336.27 1793.33 1326 1807.55 1316.25 1820.84C1274.79 1877.31 1237.08 1924.45 1200.99 1964.94C1102.06 2076.12 1034.22 2176.16 999.273 2262.28C967.302 2341.12 962.055 2410.28 983.681 2467.88C1008.26 2532.58 1067.28 2582.75 1159.09 2617.01C1276.35 2660.76 1421.52 2668.32 1522.68 2666.95C1657.77 2665.12 1803.59 2646.75 1912.76 2617.78C2009.67 2592.16 2135.2 2550.92 2246.76 2458.77C2351.28 2372.5 2442.63 2242.47 2511.56 2083.9C2533.48 2033.51 2553.14 1980.21 2570.23 1924.53C2600.57 1825.98 2613.73 1725.77 2609.34 1626.7C2605.18 1532.78 2585.52 1443.78 2550.92 1362.21C2479.97 1194.38 2354.44 1079.93 2206.48 1048.17C2105.77 1026.71 2010.08 1043.45 1913.94 1099.35ZM2546.63 1365.92C2580.98 1446.92 2600.48 1535.25 2604.63 1628.47C2608.99 1726.68 2595.95 1826.02 2565.86 1923.69C2548.87 1979.07 2529.33 2032.05 2507.54 2082.17C2439.12 2239.52 2348.52 2368.56 2244.9 2454.08C2186.75 2502.1 2096.47 2563.47 1912.93 2612.02C1804.06 2640.88 1658.58 2659.22 1523.79 2661.03C1422.93 2662.4 1278.19 2654.87 1161.41 2611.3C1070.55 2577.39 1012.23 2527.96 988.067 2464.39C967.025 2408.33 972.192 2340.87 1003.41 2263.88C1005.03 2259.89 1006.71 2255.88 1008.47 2251.84C1044.33 2169.34 1109.93 2074.26 1203.62 1968.92C1239.87 1928.25 1277.74 1880.93 1319.36 1824.23C1329.14 1810.92 1339.44 1796.64 1349.97 1781.83C1386.27 1730.75 1422.8 1676.77 1458.12 1624.57C1525.59 1524.84 1595.35 1421.72 1667.85 1332.49C1754.87 1225.28 1835.72 1150.76 1915.01 1104.65C2010.14 1049.34 2104.87 1032.77 2204.64 1054.04C2351.52 1085.56 2476.16 1199.24 2546.63 1365.92Z" fill="#E54846"/>
<path d="M1922.41 1173.28C1847.91 1216.45 1772.27 1286.16 1691.17 1386.39C1624.25 1468.93 1560.24 1564.17 1498.33 1656.27C1465.26 1705.47 1431.07 1756.34 1397 1804.41C1387.28 1818.14 1377.75 1831.36 1368.7 1843.71C1330.42 1895.95 1295.4 1939.67 1261.66 1977.39C1169.86 2080.38 1106.77 2172.92 1074.13 2252.41C1044.14 2325.44 1038.94 2389.59 1058.66 2443.12C1080.78 2503.15 1135.19 2550.02 1220.39 2582.44C1329.53 2623.99 1464.57 2631.14 1558.61 2629.84C1684.09 2628.12 1819.92 2610.86 1921.98 2583.69C2011.82 2559.89 2128.21 2521.62 2231.67 2436.3C2329.07 2356.08 2414.14 2235.11 2478.26 2087.66C2498.35 2041.44 2516.4 1992.59 2532.11 1941.61C2587.62 1762.34 2581.23 1576.69 2514.09 1418.85C2482.34 1343.85 2437.03 1277.76 2383.07 1227.71C2326.82 1175.56 2263.21 1141.47 2194 1126.41C2100.43 1106.28 2011.6 1121.62 1922.41 1173.28ZM2379.67 1232.82C2433.26 1282.49 2478.24 1348.11 2509.75 1422.58C2576.34 1579.12 2582.71 1763.15 2527.69 1940.77C2462.35 2152.86 2356.55 2327.18 2229.77 2431.61C2175.88 2476.05 2092.2 2532.86 1922.1 2577.92C1820.35 2605.01 1684.86 2622.21 1559.69 2623.93C1465.93 2625.24 1331.37 2618.11 1222.69 2576.74C1138.47 2544.68 1084.75 2498.57 1063.04 2439.66C1043.89 2387.68 1048.99 2325.24 1078.23 2254.04C1110.49 2175.42 1173.11 2083.71 1264.3 1981.39C1298.22 1943.48 1333.38 1899.57 1371.82 1847.13C1380.9 1834.75 1390.45 1821.49 1400.2 1807.71C1434.32 1759.55 1468.55 1708.64 1501.65 1659.4C1563.46 1567.45 1627.37 1472.37 1694.06 1390.1C1774.6 1290.54 1849.64 1221.35 1923.46 1178.6C2011.66 1127.51 2099.53 1112.36 2192.12 1132.31C2260.74 1147.25 2323.85 1181.07 2379.67 1232.82Z" fill="#E54846"/>
<path d="M1981.28 1164.27C1906.78 1207.43 1831.15 1277.15 1750.04 1377.37C1683.12 1459.91 1619.11 1555.15 1557.2 1647.26C1524.14 1696.46 1489.94 1747.33 1455.87 1795.4C1446.15 1809.12 1436.62 1822.34 1427.57 1834.7C1389.29 1886.93 1354.27 1930.66 1320.53 1968.38C1228.73 2071.37 1165.64 2163.91 1133 2243.4C1103.01 2316.43 1097.81 2380.58 1117.53 2434.11C1139.65 2494.14 1194.06 2541 1279.27 2573.42C1388.41 2614.97 1523.44 2622.13 1617.49 2620.83C1742.96 2619.11 1878.79 2601.85 1980.85 2574.67C2070.7 2550.88 2187.09 2512.61 2290.55 2427.29C2387.94 2347.06 2473.02 2226.09 2537.13 2078.64C2557.23 2032.43 2575.28 1983.57 2590.98 1932.6C2646.49 1753.32 2640.1 1567.67 2572.96 1409.83C2541.21 1334.83 2495.91 1268.74 2441.94 1218.7C2385.7 1166.54 2322.08 1132.45 2252.87 1117.39C2159.3 1097.26 2070.48 1112.6 1981.28 1164.27ZM2438.55 1223.8C2492.13 1273.48 2537.12 1339.09 2568.63 1413.57C2635.21 1570.1 2641.59 1754.13 2586.57 1931.75C2521.23 2143.84 2415.42 2318.17 2288.64 2422.6C2234.76 2467.04 2151.07 2523.84 1980.97 2568.9C1879.22 2595.99 1743.73 2613.2 1618.57 2614.92C1524.8 2616.23 1390.24 2609.1 1281.56 2567.73C1197.34 2535.67 1143.62 2489.55 1121.91 2430.64C1102.77 2378.66 1107.86 2316.22 1137.11 2245.03C1169.37 2166.4 1231.98 2074.69 1323.17 1972.38C1357.09 1934.47 1392.25 1890.56 1430.69 1838.12C1439.78 1825.74 1449.33 1812.48 1459.07 1798.7C1493.2 1750.54 1527.43 1699.62 1560.53 1650.39C1622.33 1558.44 1686.24 1463.36 1752.93 1381.08C1833.48 1281.53 1908.51 1212.34 1982.34 1169.58C2070.53 1118.49 2158.41 1103.34 2250.99 1123.29C2319.62 1138.23 2382.72 1172.05 2438.55 1223.8Z" fill="#E54846"/>
<path d="M1930.84 1247.23C1861.83 1287.04 1791.98 1351.41 1717.35 1444.01C1656.2 1519.66 1597.98 1606.93 1541.71 1691.31C1510.9 1737.5 1479.05 1785.25 1447.21 1830.34C1438.27 1843.01 1429.5 1855.21 1421.13 1866.64C1386.02 1914.64 1353.7 1954.93 1322.32 1989.89C1237.65 2084.66 1179.33 2169.7 1149.01 2242.51C1121.05 2309.66 1115.87 2368.83 1133.6 2418.37C1153.44 2473.8 1203.25 2517.38 1281.63 2547.89C1382.66 2587.24 1507.53 2594 1594.5 2592.76C1710.35 2591.13 1836.21 2574.99 1931.13 2549.63C2013.9 2527.66 2121.16 2492.36 2216.52 2413.88C2306.78 2339.69 2385.6 2227.8 2444.88 2091.46C2463.17 2049.4 2479.59 2005.03 2493.92 1958.73C2545.51 1793.23 2539.57 1621.63 2477.18 1475.55C2447.85 1406.38 2406.01 1345.3 2356.15 1298.95C2304.11 1250.58 2245.33 1218.87 2181.42 1204.71C2095.08 1185.86 2013.11 1199.78 1930.84 1247.23ZM2352.79 1303.98C2402.26 1349.98 2443.79 1410.57 2472.89 1479.21C2534.71 1623.99 2540.64 1793.97 2489.55 1957.82C2429.24 2152.73 2331.61 2313.01 2214.67 2409.12C2165.04 2449.97 2087.96 2502.21 1931.29 2543.82C1836.64 2569.12 1711.17 2585.19 1595.6 2586.82C1508.94 2588.07 1384.52 2581.33 1283.99 2542.18C1206.56 2512.04 1157.46 2469.21 1138.03 2414.91C1120.86 2366.91 1125.94 2309.45 1153.12 2244.12C1183.08 2172.16 1240.91 2087.94 1324.96 1993.84C1356.51 1958.72 1388.99 1918.2 1424.26 1870C1432.66 1858.54 1441.45 1846.29 1450.42 1833.59C1482.31 1788.42 1514.2 1740.61 1545.04 1694.4C1601.23 1610.16 1659.33 1523.05 1720.25 1447.67C1794.33 1355.76 1863.55 1291.93 1931.88 1252.51C2013.13 1205.63 2094.15 1191.91 2179.55 1210.53C2242.9 1224.57 2301.17 1256.02 2352.79 1303.98Z" fill="#E54846"/>
<path d="M1939.38 1321.17C1875.83 1357.63 1811.8 1416.67 1743.62 1501.62C1688.19 1570.42 1635.73 1649.79 1585.01 1726.54C1556.52 1769.64 1527.06 1814.23 1497.49 1856.26C1489.32 1867.9 1481.29 1879.1 1473.64 1889.57C1442.13 1932.73 1412.5 1969.63 1383.05 2002.39C1305.48 2088.7 1251.89 2166.18 1223.89 2232.5C1198 2293.81 1192.86 2348.01 1208.62 2393.64C1226.19 2444.48 1271.37 2484.77 1342.94 2513.38C1435.81 2550.5 1550.55 2556.87 1630.45 2555.69C1736.71 2554.13 1852.57 2539.13 1940.36 2515.56C2016.09 2495.41 2114.2 2463.09 2201.44 2391.44C2284.58 2323.3 2357.13 2220.47 2411.58 2095.24C2428.04 2057.38 2442.86 2017.43 2455.81 1975.81C2503.46 1824.11 2497.98 1666.57 2440.38 1532.2C2413.47 1468.85 2375.07 1412.82 2329.33 1370.15C2281.52 1325.55 2227.56 1296.22 2168.96 1282.98C2089.79 1265.45 2014.69 1277.96 1939.38 1321.17ZM2325.96 1375.17C2371.32 1417.5 2409.4 1473.06 2436.08 1535.88C2493.14 1668.93 2498.59 1824.84 2451.47 1974.89C2396.2 2152.63 2306.75 2298.86 2199.61 2386.67C2154.24 2423.93 2083.77 2471.61 1940.52 2509.73C1853.02 2533.22 1737.53 2548.17 1631.57 2549.73C1551.98 2550.91 1437.71 2544.56 1345.34 2507.63C1274.73 2479.41 1230.23 2439.9 1213.06 2390.2C1197.62 2345.5 1202.5 2294.44 1227.99 2234.12C1255.66 2168.58 1308.72 2091.97 1385.7 2006.33C1415.32 1973.37 1445.11 1936.27 1476.79 1892.89C1484.46 1882.39 1492.51 1871.15 1500.72 1859.46C1530.35 1817.33 1559.84 1772.7 1588.37 1729.55C1638.99 1652.96 1691.34 1573.77 1746.53 1505.25C1814.15 1421 1877.56 1362.5 1940.41 1326.43C2014.72 1283.79 2088.88 1271.46 2167.11 1288.76C2225.13 1301.93 2278.58 1330.99 2325.96 1375.17Z" fill="#E54846"/>
<path d="M1947.94 1394.98C1889.91 1428.12 1831.66 1481.85 1769.87 1559.27C1720.11 1621.3 1673.35 1692.81 1628.13 1762C1602.01 1801.96 1574.99 1843.3 1547.76 1882.21C1540.38 1892.77 1533.1 1902.98 1526.15 1912.51C1498.24 1950.84 1470.54 1985.27 1443.8 2014.89C1307.27 2166.13 1254.88 2281.92 1283.65 2368.9C1298.95 2415.16 1339.52 2452.15 1404.28 2478.85C1488.97 2513.76 1593.57 2519.75 1666.44 2518.63C1763.1 2517.17 1868.95 2503.3 1949.62 2481.51C2018.29 2463.18 2107.26 2433.83 2186.39 2369.01C2262.25 2307.05 2328.59 2213.07 2378.44 2098.43C2393 2064.94 2406.16 2029.67 2417.74 1992.93C2461.16 1855.07 2456.14 1711.57 2403.58 1588.88C2378.92 1531.29 2343.96 1480.28 2302.49 1441.31C2258.86 1400.32 2209.74 1373.39 2156.52 1361.26C2084.61 1344.86 2016.39 1355.91 1947.94 1394.98ZM2299.09 1446.37C2340.18 1484.97 2374.83 1535.53 2399.26 1592.6C2451.25 1713.96 2456.25 1855.83 2413.36 1992.02C2401.87 2028.47 2388.83 2063.44 2374.37 2096.68C2325.05 2210.12 2259.45 2303.07 2184.54 2364.27C2143.41 2397.97 2079.56 2441.07 1949.74 2475.72C1869.39 2497.42 1763.89 2511.26 1667.52 2512.7C1536.11 2514.71 1453.15 2492.32 1406.7 2473.16C1342.91 2446.86 1303.02 2410.67 1288.12 2365.57C1274.7 2324.95 1279.72 2277.62 1303.54 2222.85C1329.21 2163.8 1376.71 2096.12 1446.43 2018.89C1473.34 1989.07 1501.22 1954.42 1529.29 1915.88C1536.28 1906.29 1543.57 1896.05 1550.99 1885.43C1578.29 1846.42 1605.35 1805.03 1631.5 1765.02C1676.61 1696 1723.26 1624.65 1772.78 1562.92C1834.01 1486.2 1891.63 1433 1948.96 1400.28C2016.39 1361.78 2083.66 1350.92 2154.62 1367.08C2207.26 1379.12 2255.87 1405.79 2299.09 1446.37Z" fill="#E54846"/>
<path d="M1956.52 1468.94C1904.12 1498.67 1851.65 1547.05 1796.1 1616.87C1752.07 1672.2 1710.99 1735.86 1671.24 1797.44C1647.49 1834.25 1622.93 1872.29 1598.03 1908.09C1591.41 1917.63 1584.88 1926.81 1578.65 1935.38C1553.9 1969.49 1528.95 2000.42 1504.53 2027.33C1440.29 2098.11 1397.52 2158.7 1373.79 2212.57C1351.61 2262.85 1346.7 2305.85 1358.65 2344.09C1371.86 2386.37 1406.85 2419.13 1465.58 2444.26C1507.78 2462.31 1583.12 2483.41 1702.37 2481.5C1789.43 2480.13 1885.29 2467.38 1958.81 2447.38C2020.42 2430.87 2100.24 2404.5 2171.28 2346.49C2239.99 2290.59 2300.09 2205.64 2345.14 2102.03C2357.86 2072.76 2369.41 2041.97 2379.58 2009.95C2419.03 1885.88 2414.45 1756.44 2366.71 1645.46C2344.44 1593.69 2312.94 1547.69 2275.6 1512.43C2236.17 1475.18 2191.9 1450.65 2143.99 1439.45C2079.38 1424.39 2018.03 1434.02 1956.52 1468.94ZM2272.23 1517.5C2309.2 1552.42 2340.39 1597.95 2362.43 1649.21C2409.59 1758.87 2414.15 1886.66 2375.25 2009.03C2329.52 2152.84 2256.45 2271.01 2169.45 2341.76C2132.58 2371.87 2075.33 2410.43 1958.95 2441.6C1885.72 2461.52 1790.22 2474.21 1703.47 2475.58C1584.8 2477.49 1509.93 2456.51 1468.03 2438.58C1411.09 2414.23 1375.79 2381.33 1363.13 2340.85C1351.78 2304.57 1356.38 2263.68 1377.18 2215.84C1377.39 2215.35 1377.6 2214.86 1377.82 2214.37C1401.18 2161.35 1443.47 2101.47 1507.13 2031.35C1531.73 2004.24 1556.86 1973.09 1581.78 1938.74C1588.04 1930.14 1594.59 1920.9 1601.25 1911.31C1626.22 1875.39 1650.82 1837.29 1674.6 1800.43C1714.24 1739.03 1755.23 1675.53 1799.01 1620.51C1853.98 1551.43 1905.81 1503.6 1957.49 1474.26C2017.99 1439.94 2078.38 1430.47 2142.08 1445.34C2189.46 1456.39 2233.24 1480.66 2272.23 1517.5Z" fill="#E54846"/>
<path d="M1822.36 1674.43C1783.88 1723.12 1748.36 1779.12 1713.98 1833.28C1692.72 1866.79 1670.74 1901.42 1648.3 1933.95C1642.47 1942.42 1636.7 1950.6 1631.16 1958.24C1609.52 1988.17 1587.35 2015.6 1565.29 2039.75C1455.12 2160.3 1413.31 2249.1 1433.68 2319.27C1444.62 2356.92 1475.11 2386.48 1526.9 2409.66C1564.54 2426.49 1631.77 2446.18 1738.35 2444.38C1815.15 2443.1 1901.03 2431.47 1968.08 2413.26C2022.89 2398.38 2093.8 2374.78 2156.23 2324.01C2217.81 2274.18 2271.67 2198.25 2311.93 2105.67C2322.82 2080.62 2332.73 2054.33 2341.5 2027.03C2376.98 1916.75 2372.87 1801.36 2329.92 1702.1C2310.04 1656.16 2281.99 1615.18 2248.8 1583.61C2213.59 1550.12 2174.15 1527.94 2131.56 1517.71C2025.28 1492.15 1927.01 1541.96 1822.36 1674.43ZM2325.65 1705.81C2368 1803.73 2372.1 1917.46 2337.17 2026.04C2296.43 2152.72 2231.52 2256.85 2154.42 2319.23C2122.05 2345.55 2071.65 2379.35 1968.22 2407.44C1901.48 2425.57 1815.96 2437.14 1739.47 2438.41C1633.5 2440.21 1566.75 2420.67 1529.42 2403.99C1478.61 2381.27 1448.77 2352.52 1438.2 2316.09C1418.58 2248.56 1459.8 2162.04 1567.88 2043.77C1590.15 2019.42 1612.5 1991.75 1634.33 1961.59C1639.9 1953.9 1645.71 1945.67 1651.57 1937.14C1674.09 1904.47 1696.11 1869.77 1717.42 1836.21C1751.67 1782.22 1787.1 1726.41 1825.31 1678.05C1928.42 1547.54 2025.13 1498.44 2129.64 1523.53C2211.51 1543.2 2284.79 1611.34 2325.65 1705.81Z" fill="#E54846"/>
<path d="M1848.65 1731.96C1815.64 1774.12 1785.58 1822.56 1756.52 1869.41C1737.84 1899.5 1718.53 1930.63 1698.62 1959.78C1693.56 1967.22 1688.54 1974.38 1683.72 1981.07C1665.13 2006.89 1645.74 2030.79 1626.08 2052.12C1530.01 2156.33 1492.72 2233.31 1508.73 2294.37C1517.4 2327.43 1543.42 2353.8 1588.26 2375C1634.95 2397.08 1701.05 2408.5 1774.37 2407.17C1841.5 2405.99 1917.38 2395.49 1977.37 2379.07C2028.11 2365.16 2087.25 2345.07 2141.21 2301.45C2195.67 2257.68 2243.3 2190.77 2278.76 2109.23C2287.81 2088.4 2296.09 2066.6 2303.46 2044.01C2334.95 1947.53 2331.3 1846.19 2293.16 1758.64C2256.64 1674.75 2191.58 1613.91 2119.14 1595.87C2025.54 1572.56 1939.59 1615.79 1848.65 1731.96ZM2288.87 1762.39C2326.42 1848.61 2330.06 1948.27 2299.12 2043.02C2291.83 2065.37 2283.67 2086.9 2274.72 2107.49C2239.79 2187.81 2192.93 2253.68 2139.42 2296.69C2086.26 2339.67 2027.75 2359.52 1977.51 2373.29C1917.83 2389.62 1842.32 2400.08 1775.48 2401.25C1702.66 2402.57 1637.08 2391.25 1590.83 2369.38C1547 2348.66 1521.63 2323.14 1513.29 2291.36C1503.64 2254.59 1505.1 2190.19 1628.65 2056.2C1648.53 2034.63 1668.12 2010.48 1686.88 1984.42C1691.74 1977.68 1696.8 1970.47 1701.91 1962.96C1721.92 1933.65 1741.27 1902.46 1760 1872.29C1788.94 1825.64 1818.89 1777.37 1851.62 1735.57C1941 1621.4 2025.4 1578.85 2117.2 1601.72C2188.62 1619.5 2252.8 1679.55 2288.87 1762.39Z" fill="#E54846"/>
<path d="M1982.25 1690.44C1946.44 1710.03 1911.36 1742.43 1874.98 1789.47C1847.35 1825.2 1822.65 1866.22 1798.77 1905.91C1782.77 1932.48 1766.25 1959.93 1748.98 1985.59C1744.71 1991.95 1740.45 1998.1 1736.33 2003.85C1720.78 2025.6 1704.17 2045.99 1686.93 2064.46C1603.76 2153.6 1571.98 2216.81 1583.85 2269.43C1590.29 2297.93 1611.82 2321.11 1649.67 2340.33C1689.79 2360.69 1746.9 2371.21 1810.44 2369.97C1867.93 2368.89 1933.82 2359.5 1986.72 2344.87C2027.31 2333.63 2079.84 2315.98 2126.25 2278.87C2173.68 2240.95 2215.11 2183.01 2245.73 2112.59C2252.93 2096.04 2259.52 2078.82 2265.46 2060.98C2293 1978.33 2289.79 1891.02 2256.47 1815.15C2224.73 1742.92 2168.79 1690.15 2106.81 1673.99C2063.74 1662.76 2023.01 1668.15 1982.25 1690.44ZM2252.15 1818.92C2268.32 1855.69 2277.39 1894.84 2279.1 1935.26C2280.88 1976.81 2274.82 2018.77 2261.12 2059.95C2230.42 2152.12 2181.88 2228.16 2124.45 2274.09C2100.5 2293.24 2063.2 2317.94 1986.81 2339.09C1934.23 2353.66 1868.7 2362.98 1811.51 2364.06C1748.5 2365.28 1691.94 2354.86 1652.27 2334.74C1615.43 2316.05 1594.54 2293.75 1588.42 2266.6C1583.49 2244.8 1586.65 2220.9 1598.5 2193.66C1613.82 2158.42 1643.69 2117.62 1689.44 2068.57C1706.9 2049.85 1723.73 2029.2 1739.48 2007.18C1743.65 2001.35 1747.96 1995.14 1752.28 1988.7C1769.67 1962.88 1786.25 1935.31 1802.29 1908.68C1826.05 1869.2 1850.63 1828.39 1877.97 1793.04C1953.63 1695.18 2025.7 1659.23 2104.78 1679.84C2165.79 1695.72 2220.88 1747.74 2252.15 1818.92Z" fill="#E54846"/>
<path d="M1901.37 1846.91C1878.98 1876.35 1859.53 1910.13 1840.72 1942.8C1827.55 1965.67 1813.93 1989.32 1799.39 2011.33C1795.9 2016.64 1792.4 2021.77 1788.97 2026.59C1776.38 2044.37 1762.53 2061.24 1747.83 2076.73C1677.88 2150.44 1651.3 2200.58 1659 2244.36C1663.21 2268.35 1680.25 2288.36 1711.09 2305.54C1744.57 2324.19 1792.67 2333.83 1846.56 2332.68C1894.43 2331.7 1950.33 2323.43 1996.11 2310.58C2031.71 2300.59 2073.26 2286.3 2111.32 2256.23C2151.68 2224.33 2186.92 2175.42 2212.71 2116.1C2218.06 2103.8 2223.01 2091.05 2227.5 2077.91C2251.43 2008.06 2248.76 1936.74 2219.79 1871.62C2192.86 1811.07 2146.03 1766.37 2094.51 1752.08C2027.24 1733.44 1964.07 1764.45 1901.37 1846.91ZM2215.5 1875.39C2243.83 1939.11 2246.49 2008.75 2223.19 2076.8C2197.5 2151.81 2157.15 2213.82 2109.55 2251.44C2072.27 2280.9 2031.32 2294.96 1996.19 2304.82C1950.73 2317.59 1895.2 2325.79 1847.64 2326.77C1794.34 2327.9 1746.82 2318.41 1713.84 2300.02C1684.03 2283.42 1667.62 2264.38 1663.65 2241.81C1656.42 2200.65 1682.34 2152.52 1750.33 2080.87C1765.28 2065.11 1779.37 2047.93 1792.18 2029.87C1795.65 2024.98 1799.22 2019.77 1802.75 2014.38C1817.41 1992.16 1831.11 1968.41 1844.34 1945.43C1863.02 1912.98 1882.35 1879.44 1904.42 1850.41C1933.82 1811.75 1962.41 1785.3 1991.85 1769.56C2024.65 1752.04 2057.56 1748.21 2092.46 1757.89C2143.02 1771.92 2189.02 1815.84 2215.5 1875.39Z" fill="#E54846"/>
<path d="M1927.87 1904.28C1910.57 1927.61 1896.2 1954.36 1882.31 1980.23C1872.11 1999.22 1861.55 2018.85 1849.91 2037.02C1847.19 2041.3 1844.44 2045.4 1841.74 2049.26C1831.9 2063.34 1821.15 2076.32 1808.87 2088.93C1751.57 2147.75 1730.66 2184.26 1734.27 2219.18C1736.31 2238.77 1748.85 2255.62 1772.63 2270.72C1799.33 2287.68 1838.46 2296.42 1882.8 2295.37C1921.09 2294.5 1967 2287.34 2005.62 2276.28C2033.71 2268.23 2066.48 2256.84 2096.49 2233.56C2129.82 2207.7 2158.89 2167.82 2179.84 2119.64C2183.34 2111.59 2186.61 2103.31 2189.64 2094.81C2209.56 2038.99 2207.34 1981.32 2183.23 1928.01C2161.1 1879.12 2123.37 1842.52 2082.31 1830.1C2027.65 1813.57 1977.13 1837.84 1927.87 1904.28ZM2178.97 1931.8C2202.43 1983.65 2204.65 2039.59 2185.38 2093.56C2164.74 2151.4 2132.56 2199.37 2094.77 2228.7C2065.53 2251.4 2033.32 2262.55 2005.69 2270.49C1967.39 2281.47 1921.85 2288.56 1883.86 2289.43C1840.17 2290.47 1801.69 2281.9 1775.51 2265.28C1752.78 2250.86 1740.83 2235.08 1738.96 2217.03C1735.6 2184.73 1755.89 2149.99 1811.27 2093.14C1823.84 2080.23 1834.85 2066.95 1844.94 2052.52C1847.71 2048.58 1850.52 2044.36 1853.3 2040C1865.12 2021.57 1875.74 2001.79 1886.03 1982.65C1899.79 1957.05 1914.01 1930.59 1930.94 1907.73C1978.6 1843.44 2027.42 1819.96 2080.19 1835.9C2120.36 1848.02 2157.29 1883.87 2178.97 1931.8Z" fill="#E54846"/>
<path d="M1954.55 1961.61C1942.12 1979.09 1932.62 1999.11 1923.42 2018.48C1916.39 2033.3 1909.12 2048.61 1900.62 2062.64C1898.58 2065.98 1896.65 2068.98 1894.69 2071.84C1887.66 2082.15 1879.62 2091.68 1870.12 2100.98C1829.42 2140.89 1810 2164.93 1809.74 2193.69C1809.6 2209.06 1817.64 2222.82 1834.3 2235.71C1854.06 2251 1884.23 2258.88 1919.23 2257.9C1960.78 2256.78 2000.27 2246.27 2015.33 2241.81C2035.89 2235.72 2059.88 2227.26 2081.84 2210.75C2108.24 2190.91 2131.16 2160.14 2147.2 2123.26C2148.85 2119.44 2150.45 2115.55 2151.97 2111.59C2167.94 2069.83 2166.17 2025.81 2146.87 1984.26C2133.52 1955.51 2106.4 1920.4 2070.37 1907.99C2028.94 1893.75 1989.97 1911.79 1954.55 1961.61ZM2142.64 1988.12C2161.52 2028.73 2163.24 2069.8 2147.79 2110.2C2132.24 2150.84 2108.25 2184.8 2080.21 2205.86C2058.97 2221.83 2035.5 2230.09 2015.37 2236.05C2000.47 2240.47 1961.38 2250.86 1920.29 2251.98C1886.04 2252.95 1856.62 2245.3 1837.44 2230.47C1822.08 2218.58 1814.36 2205.76 1814.49 2192.34C1814.56 2184.62 1816.17 2177.25 1819.46 2169.7C1827.24 2151.8 1844.38 2132.84 1872.43 2105.34C1882.28 2095.67 1890.62 2085.77 1897.95 2075.03C1899.98 2072.07 1902 2068.93 1904.13 2065.45C1912.87 2051.05 1920.23 2035.54 1927.35 2020.52C1936.38 2001.49 1945.72 1981.81 1957.73 1964.92C1991.51 1917.4 2028.65 1900.21 2068.14 1913.78C2103.19 1925.81 2129.61 1960.08 2142.64 1988.12Z" fill="#E54846"/>
<path d="M1981.63 2018.92C1973.85 2030.79 1969.05 2044.36 1964.42 2057.49C1960.74 2067.91 1956.93 2078.7 1951.69 2088.31C1950.49 2090.53 1949.31 2092.51 1948.06 2094.41C1943.61 2101.22 1938.48 2107.12 1931.89 2112.95C1927.8 2116.56 1924.05 2119.8 1920.41 2122.94C1901.89 2138.88 1889.67 2149.41 1885.78 2167.8C1883.43 2178.89 1887.19 2190.52 1896.33 2200.56C1912.38 2218.15 1937.71 2221.05 1956.12 2220.4C1983.28 2219.48 2011.25 2211.8 2025.51 2207.3C2038.47 2203.21 2053.6 2197.73 2067.61 2187.93C2086.23 2174.91 2102.06 2154.92 2114.64 2128.56C2115.14 2127.54 2115.59 2126.53 2116.04 2125.49C2127.43 2099.3 2125.71 2070.72 2110.95 2040.46C2101.33 2020.73 2082.58 1996.04 2058.9 1985.88C2030.5 1973.69 2003.76 1985.12 1981.63 2018.92ZM2106.75 2044.36C2121.25 2074.05 2122.59 2101.64 2110.73 2126.5C2098.74 2151.6 2083.74 2170.57 2066.15 2182.87C2052.76 2192.24 2038.09 2197.56 2025.49 2201.52C2011.44 2205.95 1983.87 2213.51 1957.16 2214.43C1939.43 2215.06 1915.12 2212.3 1899.92 2195.65C1891.84 2186.79 1888.44 2176.94 1890.35 2167.9C1893.66 2152.26 1904.48 2142.97 1922.39 2127.53C1926.05 2124.38 1929.82 2121.13 1933.94 2117.48C1941.04 2111.2 1946.58 2104.82 1951.43 2097.4C1952.8 2095.33 1954.1 2093.15 1955.41 2090.71C1960.97 2080.5 1964.9 2069.38 1968.69 2058.65C1973.37 2045.43 1977.78 2032.93 1984.98 2021.93C2005.7 1990.29 2029.75 1980.08 2056.47 1991.52C2079.3 2001.34 2097.42 2025.25 2106.75 2044.36Z" fill="#E54846"/>
<path d="M2009.77 2076.87C2006.26 2083.68 2006.05 2091.32 2005.86 2098.7C2005.7 2104.56 2005.56 2110.09 2003.83 2114.73C2003.46 2115.72 2003.04 2116.61 2002.56 2117.46C1998.02 2125.35 1991.99 2126.79 1985.01 2128.45C1978.03 2130.13 1970.11 2132.01 1963.58 2141.46C1958.68 2148.55 1956.93 2158.32 1959.36 2165.22C1963.89 2178.13 1975.63 2184.2 1994.23 2183.24C2006.04 2182.62 2020.43 2179.22 2036.98 2173.11C2057.92 2165.37 2071.06 2156.79 2078.35 2146.12C2079.72 2144.11 2080.87 2142.03 2081.8 2139.89C2087.13 2127.63 2085.26 2113.23 2076.2 2096.93C2074.14 2093.22 2063.13 2074.24 2048.83 2064.23C2040.25 2058.22 2032.28 2056.83 2025.12 2060.05C2019.3 2062.73 2014.14 2068.37 2009.77 2076.87ZM2045.82 2069.61C2056.43 2077.03 2066.61 2091.21 2072.11 2101.08C2081.65 2118.22 2082.62 2131.94 2075.08 2142.97C2068.76 2152.24 2056.22 2160.25 2036.75 2167.44C2020.6 2173.4 2006.64 2176.72 1995.22 2177.31C1978.29 2178.19 1967.71 2172.96 1963.79 2161.8C1962.45 2157.96 1962.95 2152.67 1964.92 2148.16C1965.45 2146.93 1966.09 2145.75 1966.83 2144.68C1971.88 2137.37 1978.15 2135.87 1984.77 2134.28C1991.97 2132.56 2000.15 2130.61 2006.19 2120.07C2006.91 2118.81 2007.54 2117.47 2008.07 2116.04C2010.26 2110.11 2010.43 2103.67 2010.61 2097.44C2010.79 2090.64 2010.96 2084.22 2013.59 2079.12C2017.15 2072.18 2021.23 2067.63 2025.71 2065.61C2031.51 2062.98 2038.28 2064.33 2045.82 2069.61Z" fill="#E54846"/>
</g>
</svg>
